<?xml version="1.0" encoding="UTF-8" standalone="no"?>
<!-- Created with Inkscape (http://www.inkscape.org/) -->

<svg
   xmlns:dc="http://purl.org/dc/elements/1.1/"
   xmlns:cc="http://creativecommons.org/ns#"
   xmlns:rdf="http://www.w3.org/1999/02/22-rdf-syntax-ns#"
   xmlns:svg="http://www.w3.org/2000/svg"
   xmlns="http://www.w3.org/2000/svg"
   xmlns:sodipodi="http://sodipodi.sourceforge.net/DTD/sodipodi-0.dtd"
   xmlns:inkscape="http://www.inkscape.org/namespaces/inkscape"
   width="1300"
   height="1300"
   id="svg3081"
   version="1.1"
   inkscape:version="0.48.1 r9760"
   sodipodi:docname="cms-l10n-i18n.pdf">
  <defs
     id="defs3083" />
  <sodipodi:namedview
     id="base"
     pagecolor="#ffffff"
     bordercolor="#666666"
     borderopacity="1.0"
     inkscape:pageopacity="0.0"
     inkscape:pageshadow="2"
     inkscape:zoom="0.49497475"
     inkscape:cx="998.65752"
     inkscape:cy="802.73168"
     inkscape:document-units="px"
     inkscape:current-layer="layer1"
     showgrid="false"
     inkscape:window-width="1366"
     inkscape:window-height="754"
     inkscape:window-x="0"
     inkscape:window-y="14"
     inkscape:window-maximized="0" />
  <metadata
     id="metadata3086">
    <rdf:RDF>
      <cc:Work
         rdf:about="">
        <dc:format>image/svg+xml</dc:format>
        <dc:type
           rdf:resource="http://purl.org/dc/dcmitype/StillImage" />
        <dc:title></dc:title>
      </cc:Work>
    </rdf:RDF>
  </metadata>
  <g
     inkscape:label="Layer 1"
     inkscape:groupmode="layer"
     id="layer1"
     transform="translate(0,247.63782)">
    <text
       xml:space="preserve"
       style="font-size:40px;font-style:normal;font-weight:normal;line-height:125%;letter-spacing:0px;word-spacing:0px;fill:#000000;fill-opacity:1;stroke:none;font-family:Sans"
       x="537.40112"
       y="161.57339"
       id="text3144"
       sodipodi:linespacing="125%"
       transform="translate(0,52.362183)"><tspan
         sodipodi:role="line"
         id="tspan3146"
         x="537.40112"
         y="161.57339" /></text>
    <g
       id="g4182">
      <path
         inkscape:connector-curvature="0"
         id="path3198"
         d="m 640.49154,-123.84202 c -138.1614,2.44541 -263.31607,58.106683 -355.85153,147.38093 l 175.82213,175.82213 c 47.47523,-44.32737 110.51752,-72.21874 180.0294,-74.55296 l 0,-248.6501 z"
         style="fill:#3771c8;fill-opacity:1" />
      <g
         id="text3140"
         style="font-size:47.13761139px;font-style:normal;font-weight:normal;line-height:125%;letter-spacing:0px;word-spacing:0px;fill:#ffffff;fill-opacity:1;stroke:none;font-family:Sans">
        <path
           id="path4147"
           style=""
           d="m 387.25574,17.66618 4.23502,0 0,35.813537 -4.23502,0 0,-35.813537" />
        <path
           id="path4149"
           style=""
           d="m 401.73306,49.566927 7.59541,0 0,-26.215693 -8.26289,1.657182 0,-4.23502 8.21686,-1.657182 4.64932,0 0,30.450713 7.59541,0 0,3.91279 -19.79411,0 0,-3.91279" />
        <path
           id="path4151"
           style=""
           d="m 440.88398,22.177397 c -2.39372,3.1e-5 -4.19667,1.181539 -5.40886,3.544528 -1.19686,2.347699 -1.79529,5.884551 -1.79528,10.610565 -1e-5,4.710705 0.59842,8.247557 1.79528,10.610566 1.21219,2.347678 3.01514,3.521514 5.40886,3.521511 2.40903,3e-6 4.21198,-1.173833 5.40885,-3.521511 1.21218,-2.363009 1.81828,-5.899861 1.8183,-10.610566 -2e-5,-4.726014 -0.60612,-8.262866 -1.8183,-10.610565 -1.19687,-2.362989 -2.99982,-3.544497 -5.40885,-3.544528 m 0,-3.682626 c 3.85139,3.5e-5 6.78982,1.526789 8.81528,4.580266 2.04076,3.038194 3.06116,7.457341 3.06118,13.257453 -2e-5,5.784803 -1.02042,10.20395 -3.06118,13.257454 -2.02546,3.038167 -4.96389,4.557249 -8.81528,4.557249 -3.85143,0 -6.79753,-1.519082 -8.83831,-4.557249 -2.02544,-3.053504 -3.03817,-7.472651 -3.03816,-13.257454 -1e-5,-5.800112 1.01272,-10.219259 3.03816,-13.257453 2.04078,-3.053477 4.98688,-4.580231 8.83831,-4.580266" />
        <path
           id="path4153"
           style=""
           d="m 481.78414,37.920623 0,15.559094 -4.23502,0 0,-15.420996 c -2e-5,-2.439721 -0.47569,-4.265688 -1.42701,-5.477906 -0.95137,-1.212175 -2.37838,-1.818273 -4.28106,-1.818296 -2.28631,2.3e-5 -4.08926,0.728875 -5.40885,2.186559 -1.31962,1.457725 -1.97942,3.444807 -1.97941,5.961251 l 0,14.569388 -4.25804,0 0,-25.778381 4.25804,0 0,4.004856 c 1.01271,-1.549749 2.20189,-2.70824 3.56754,-3.475479 1.38097,-0.767187 2.9691,-1.150794 4.7644,-1.15082 2.96142,2.6e-5 5.20168,0.920682 6.72079,2.761969 1.51906,1.825991 2.2786,4.518908 2.27862,8.078761" />
        <path
           id="path4155"
           style=""
           d="m 497.80356,19.116214 3.91279,0 -11.96853,38.736621 -3.91279,0 11.96853,-38.736621" />
        <path
           id="path4157"
           style=""
           d="m 506.20455,27.701336 4.23502,0 0,25.778381 -4.23502,0 0,-25.778381 m 0,-10.035156 4.23502,0 0,5.362824 -4.23502,0 0,-5.362824" />
        <path
           id="path4159"
           style=""
           d="m 520.68188,49.566927 7.59541,0 0,-26.215693 -8.26289,1.657182 0,-4.23502 8.21686,-1.657182 4.64932,0 0,30.450713 7.59541,0 0,3.91279 -19.79411,0 0,-3.91279" />
        <path
           id="path4161"
           style=""
           d="m 559.83279,37.161081 c -2.20959,1.7e-5 -3.95116,0.590771 -5.22473,1.772264 -1.25823,1.181522 -1.88735,2.808014 -1.88734,4.879479 -10e-6,2.071485 0.62911,3.697976 1.88734,4.87948 1.27357,1.181512 3.01514,1.772266 5.22473,1.772263 2.20956,3e-6 3.95113,-0.590751 5.22473,-1.772263 1.27355,-1.196848 1.91034,-2.823339 1.91036,-4.87948 -2e-5,-2.071465 -0.63681,-3.697957 -1.91036,-4.879479 -1.25825,-1.181493 -2.99983,-1.772247 -5.22473,-1.772264 m -4.64932,-1.979411 c -1.99476,-0.490998 -3.5522,-1.419326 -4.67233,-2.784986 -1.10479,-1.365618 -1.65718,-3.03047 -1.65718,-4.994561 0,-2.746597 0.97436,-4.917809 2.92309,-6.513645 1.96405,-1.59577 4.6493,-2.393672 8.05574,-2.393707 3.42175,3.5e-5 6.107,0.797937 8.05574,2.393707 1.9487,1.595836 2.92306,3.767048 2.92309,6.513645 -3e-5,1.964091 -0.56009,3.628943 -1.6802,4.994561 -1.10481,1.36566 -2.64691,2.293988 -4.6263,2.784986 2.24024,0.521723 3.98182,1.542116 5.22473,3.061183 1.2582,1.519097 1.88732,3.375752 1.88734,5.569971 -2e-5,3.329714 -1.02042,5.884533 -3.06118,7.664465 -2.02547,1.779936 -4.9332,2.669904 -8.72322,2.669904 -3.79005,0 -6.70546,-0.889968 -8.74624,-2.669904 -2.02545,-1.779932 -3.03817,-4.334751 -3.03816,-7.664465 -1e-5,-2.194219 0.62911,-4.050874 1.88734,-5.569971 1.25823,-1.519067 3.00747,-2.53946 5.24774,-3.061183 m -1.70321,-7.342236 c -1e-5,1.77996 0.55238,3.168616 1.65718,4.165971 1.12012,0.997398 2.68524,1.496087 4.69535,1.496067 1.99474,2e-5 3.55218,-0.498669 4.67233,-1.496067 1.13546,-0.997355 1.70319,-2.386011 1.70322,-4.165971 -3e-5,-1.779908 -0.56776,-3.168563 -1.70322,-4.16597 -1.12015,-0.997347 -2.67759,-1.496036 -4.67233,-1.496067 -2.01011,3.1e-5 -3.57523,0.49872 -4.69535,1.496067 -1.1048,0.997407 -1.65719,2.386062 -1.65718,4.16597" />
        <path
           id="path4163"
           style=""
           d="m 600.73295,37.920623 0,15.559094 -4.23502,0 0,-15.420996 c -2e-5,-2.439721 -0.47569,-4.265688 -1.42702,-5.477906 -0.95136,-1.212175 -2.37838,-1.818273 -4.28105,-1.818296 -2.28631,2.3e-5 -4.08926,0.728875 -5.40886,2.186559 -1.31961,1.457725 -1.97942,3.444807 -1.97941,5.961251 l 0,14.569388 -4.25803,0 0,-25.778381 4.25803,0 0,4.004856 c 1.01271,-1.549749 2.20189,-2.70824 3.56755,-3.475479 1.38097,-0.767187 2.9691,-1.150794 4.76439,-1.15082 2.96143,2.6e-5 5.20169,0.920682 6.7208,2.761969 1.51905,1.825991 2.27859,4.518908 2.27862,8.078761" />
      </g>
    </g>
    <g
       id="g4165">
      <path
         inkscape:connector-curvature="0"
         id="path3196"
         d="m 659.50844,-123.84202 0,248.6501 c 69.50858,2.3445 132.5189,30.26254 179.98733,74.59503 L 1015.3179,23.58098 c -92.5354,-89.261197 -217.66788,-144.96709 -355.80946,-147.423 z"
         style="fill:#3771c8;fill-opacity:1" />
      <g
         id="text3148"
         style="font-size:40px;font-style:normal;font-weight:normal;line-height:125%;letter-spacing:0px;word-spacing:0px;fill:#ffffff;fill-opacity:1;stroke:none;font-family:Sans">
        <path
           id="path4120"
           style=""
           d="m 746.16455,1.8039818 -5.35156,14.5117192 10.72265,0 -5.37109,-14.5117192 m -2.22656,-3.8867188 4.47265,0 11.11329,29.160156 -4.10157,0 -2.65625,-7.480468 -13.14453,0 -2.65625,7.480468 -4.16015,0 11.13281,-29.160156" />
        <path
           id="path4122"
           style=""
           d="m 778.64502,6.042263 0,3.359375 c -1.01564,-0.5598776 -2.03778,-0.9765438 -3.06641,-1.25 -1.01564,-0.2864391 -2.04428,-0.4296681 -3.08593,-0.4296875 -2.33074,1.94e-5 -4.14064,0.7422061 -5.42969,2.2265625 -1.28907,1.47137 -1.9336,3.54168 -1.9336,6.210938 0,2.669279 0.64453,4.746099 1.9336,6.230468 1.28905,1.471358 3.09895,2.207034 5.42969,2.207032 1.04165,2e-6 2.07029,-0.136717 3.08593,-0.410157 1.02863,-0.286455 2.05077,-0.709632 3.06641,-1.269531 l 0,3.320313 c -1.00262,0.46875 -2.04429,0.820312 -3.125,1.054687 -1.06772,0.234375 -2.20705,0.351562 -3.41797,0.351563 -3.29428,-1e-6 -5.91146,-1.035156 -7.85156,-3.105469 -1.94011,-2.070308 -2.91016,-4.863274 -2.91016,-8.378906 0,-3.567694 0.97656,-6.3736811 2.92969,-8.4179692 1.96614,-2.0442495 4.65494,-3.0663839 8.06641,-3.0664063 1.10675,2.24e-5 2.18748,0.1172098 3.24218,0.3515625 1.05467,0.221376 2.07681,0.5599174 3.06641,1.015625" />
        <path
           id="path4124"
           style=""
           d="m 800.67627,6.042263 0,3.359375 c -1.01564,-0.5598776 -2.03778,-0.9765438 -3.06641,-1.25 -1.01564,-0.2864391 -2.04428,-0.4296681 -3.08593,-0.4296875 -2.33074,1.94e-5 -4.14064,0.7422061 -5.42969,2.2265625 -1.28907,1.47137 -1.9336,3.54168 -1.9336,6.210938 0,2.669279 0.64453,4.746099 1.9336,6.230468 1.28905,1.471358 3.09895,2.207034 5.42969,2.207032 1.04165,2e-6 2.07029,-0.136717 3.08593,-0.410157 1.02863,-0.286455 2.05077,-0.709632 3.06641,-1.269531 l 0,3.320313 c -1.00262,0.46875 -2.04429,0.820312 -3.125,1.054687 -1.06772,0.234375 -2.20705,0.351562 -3.41797,0.351563 -3.29428,-1e-6 -5.91146,-1.035156 -7.85156,-3.105469 -1.94011,-2.070308 -2.91016,-4.863274 -2.91016,-8.378906 0,-3.567694 0.97656,-6.3736811 2.92969,-8.4179692 1.96614,-2.0442495 4.65494,-3.0663839 8.06641,-3.0664063 1.10675,2.24e-5 2.18748,0.1172098 3.24218,0.3515625 1.05467,0.221376 2.07681,0.5599174 3.06641,1.015625" />
        <path
           id="path4126"
           style=""
           d="m 825.67627,15.241482 0,1.757812 -16.52344,0 c 0.15625,2.473966 0.89843,4.361985 2.22656,5.664063 1.34114,1.289065 3.20312,1.933596 5.58594,1.933594 1.3802,2e-6 2.71483,-0.169269 4.00391,-0.507813 1.30206,-0.338538 2.59112,-0.84635 3.86719,-1.523437 l 0,3.398437 c -1.28909,0.546876 -2.6107,0.963542 -3.96485,1.25 -1.35418,0.286458 -2.72788,0.429687 -4.12109,0.429688 -3.4896,-1e-6 -6.25652,-1.015625 -8.30078,-3.046875 -2.03126,-2.031246 -3.04688,-4.778639 -3.04688,-8.242188 0,-3.580715 0.96354,-6.4192537 2.89063,-8.515625 1.94009,-2.1093536 4.55077,-3.1640401 7.83203,-3.1640625 2.94269,2.24e-5 5.26691,0.9505423 6.97265,2.8515625 1.71873,1.8880385 2.57811,4.459651 2.57813,7.714844 m -3.59375,-1.054688 c -0.0261,-1.966131 -0.57945,-3.53514 -1.66016,-4.707031 -1.06772,-1.1718562 -2.48699,-1.7577931 -4.25781,-1.7578125 -2.00522,1.94e-5 -3.61329,0.5664251 -4.82422,1.6992188 -1.19792,1.1328287 -1.88803,2.7278797 -2.07031,4.7851567 l 12.8125,-0.01953" />
        <path
           id="path4128"
           style=""
           d="m 845.52002,5.8469505 0,3.3984375 c -1.01564,-0.5208149 -2.07033,-0.9114396 -3.16406,-1.171875 -1.09377,-0.2603974 -2.22658,-0.3906056 -3.39844,-0.390625 -1.78386,1.94e-5 -3.12501,0.2734567 -4.02344,0.8203125 -0.88542,0.5468931 -1.32813,1.3672047 -1.32812,2.4609375 -10e-6,0.833349 0.319,1.4909 0.95703,1.972656 0.63801,0.468764 1.92056,0.917982 3.84765,1.347657 l 1.23047,0.273437 c 2.55207,0.546887 4.36197,1.321626 5.42969,2.324219 1.08071,0.989592 1.62108,2.37631 1.62109,4.160156 -10e-6,2.031254 -0.80731,3.639325 -2.42187,4.824219 -1.60158,1.184896 -3.80861,1.777343 -6.62109,1.777344 -1.17189,-1e-6 -2.39584,-0.117188 -3.67188,-0.351563 -1.26302,-0.221354 -2.59766,-0.559895 -4.00391,-1.015625 l 0,-3.710937 c 1.32813,0.690108 2.63672,1.21094 3.92579,1.5625 1.28905,0.338544 2.56509,0.507814 3.82812,0.507812 1.6927,2e-6 2.99478,-0.286456 3.90625,-0.859375 0.91144,-0.585934 1.36717,-1.406245 1.36719,-2.460937 -2e-5,-0.976556 -0.33205,-1.725253 -0.9961,-2.246094 -0.65105,-0.520825 -2.08985,-1.022127 -4.3164,-1.503906 l -1.25,-0.292969 c -2.22657,-0.46874 -3.83464,-1.184885 -4.82422,-2.148438 -0.98959,-0.976549 -1.48438,-2.311183 -1.48438,-4.003906 0,-2.0572736 0.72917,-3.6458137 2.1875,-4.765625 1.45833,-1.1197698 3.52864,-1.6796651 6.21094,-1.6796875 1.32811,2.24e-5 2.57811,0.097679 3.75,0.2929688 1.17186,0.1953344 2.25259,0.4883029 3.24219,0.8789062" />
        <path
           id="path4130"
           style=""
           d="m 866.37939,5.8469505 0,3.3984375 c -1.01564,-0.5208149 -2.07032,-0.9114396 -3.16406,-1.171875 -1.09376,-0.2603974 -2.22657,-0.3906056 -3.39844,-0.390625 -1.78386,1.94e-5 -3.125,0.2734567 -4.02343,0.8203125 -0.88543,0.5468931 -1.32813,1.3672047 -1.32813,2.4609375 0,0.833349 0.31901,1.4909 0.95703,1.972656 0.63802,0.468764 1.92057,0.917982 3.84766,1.347657 l 1.23047,0.273437 c 2.55207,0.546887 4.36196,1.321626 5.42969,2.324219 1.08071,0.989592 1.62107,2.37631 1.62109,4.160156 -2e-5,2.031254 -0.80731,3.639325 -2.42188,4.824219 -1.60157,1.184896 -3.8086,1.777343 -6.62109,1.777344 -1.17188,-1e-6 -2.39584,-0.117188 -3.67187,-0.351563 -1.26303,-0.221354 -2.59766,-0.559895 -4.00391,-1.015625 l 0,-3.710937 c 1.32812,0.690108 2.63671,1.21094 3.92578,1.5625 1.28906,0.338544 2.5651,0.507814 3.82813,0.507812 1.69269,2e-6 2.99477,-0.286456 3.90625,-0.859375 0.91144,-0.585934 1.36717,-1.406245 1.36718,-2.460937 -10e-6,-0.976556 -0.33204,-1.725253 -0.99609,-2.246094 -0.65106,-0.520825 -2.08986,-1.022127 -4.31641,-1.503906 l -1.25,-0.292969 c -2.22657,-0.46874 -3.83464,-1.184885 -4.82422,-2.148438 -0.98958,-0.976549 -1.48437,-2.311183 -1.48437,-4.003906 0,-2.0572736 0.72916,-3.6458137 2.1875,-4.765625 1.45833,-1.1197698 3.52864,-1.6796651 6.21094,-1.6796875 1.32811,2.24e-5 2.57811,0.097679 3.75,0.2929688 1.17186,0.1953344 2.25258,0.4883029 3.24218,0.8789062" />
        <path
           id="path4132"
           style=""
           d="m 758.25439,50.163357 0,4.160156 c -1.32814,-1.236955 -2.74741,-2.161433 -4.25781,-2.773437 -1.49741,-0.611953 -3.09246,-0.917943 -4.78515,-0.917969 -3.33335,2.6e-5 -5.88543,1.022161 -7.65625,3.066406 -1.77084,2.031271 -2.65626,4.973977 -2.65625,8.828125 -10e-6,3.841157 0.88541,6.783862 2.65625,8.828125 1.77082,2.031254 4.3229,3.046878 7.65625,3.046875 1.69269,3e-6 3.28774,-0.305987 4.78515,-0.917969 1.5104,-0.611975 2.92967,-1.536453 4.25781,-2.773437 l 0,4.121094 c -1.38023,0.937501 -2.84507,1.640625 -4.39453,2.109375 -1.53647,0.468749 -3.16408,0.703124 -4.88281,0.703125 -4.41407,-10e-7 -7.89063,-1.347656 -10.42969,-4.042969 -2.53906,-2.708327 -3.80859,-6.39973 -3.80859,-11.074219 0,-4.687481 1.26953,-8.378883 3.80859,-11.074219 2.53906,-2.708305 6.01562,-4.06247 10.42969,-4.0625 1.74477,3e-5 3.3854,0.234405 4.92188,0.703125 1.54945,0.455758 3.00127,1.145861 4.35546,2.070313" />
        <path
           id="path4134"
           style=""
           d="m 772.70752,57.721951 c -1.92709,1.9e-5 -3.45053,0.755226 -4.57031,2.265625 -1.1198,1.497411 -1.6797,3.554701 -1.67969,6.171875 -1e-5,2.617195 0.55338,4.680995 1.66016,6.191406 1.11978,1.497399 2.64973,2.246096 4.58984,2.246094 1.91405,2e-6 3.43097,-0.755206 4.55078,-2.265625 1.11977,-1.510411 1.67967,-3.5677 1.67969,-6.171875 -2e-5,-2.591133 -0.55992,-4.641912 -1.67969,-6.152344 -1.11981,-1.523419 -2.63673,-2.285137 -4.55078,-2.285156 m 0,-3.046875 c 3.12498,2.2e-5 5.57941,1.015646 7.36328,3.046875 1.78383,2.031267 2.67576,4.843764 2.67578,8.4375 -2e-5,3.580736 -0.89195,6.393233 -2.67578,8.4375 -1.78387,2.03125 -4.2383,3.046874 -7.36328,3.046875 -3.13803,-10e-7 -5.59897,-1.015625 -7.38281,-3.046875 -1.77084,-2.044267 -2.65626,-4.856764 -2.65625,-8.4375 -10e-6,-3.593736 0.88541,-6.406233 2.65625,-8.4375 1.78384,-2.031229 4.24478,-3.046853 7.38281,-3.046875" />
        <path
           id="path4136"
           style=""
           d="m 806.86768,63.874294 0,13.203125 -3.59375,0 0,-13.085937 c -2e-5,-2.070298 -0.40367,-3.619775 -1.21094,-4.648438 -0.80731,-1.028627 -2.01825,-1.542949 -3.63281,-1.542968 -1.94012,1.9e-5 -3.47007,0.618508 -4.58985,1.855468 -1.1198,1.236996 -1.67969,2.923192 -1.67969,5.058594 l 0,12.363281 -3.61328,0 0,-21.875 3.61328,0 0,3.398438 c 0.85937,-1.315085 1.86849,-2.298157 3.02735,-2.949219 1.17186,-0.65102 2.51952,-0.97654 4.04297,-0.976562 2.513,2.2e-5 4.41404,0.781271 5.70312,2.34375 1.28904,1.549497 1.93357,3.834651 1.9336,6.855468" />
        <path
           id="path4138"
           style=""
           d="m 817.62939,48.991482 0,6.210937 7.40235,0 0,2.792969 -7.40235,0 0,11.875 c 0,1.78386 0.24088,2.929692 0.72266,3.4375 0.49478,0.507816 1.49088,0.761722 2.98828,0.761719 l 3.69141,0 0,3.007812 -3.69141,0 c -2.77344,0 -4.6875,-0.514322 -5.74219,-1.542968 -1.05469,-1.041665 -1.58203,-2.929683 -1.58203,-5.664063 l 0,-11.875 -2.63672,0 0,-2.792969 2.63672,0 0,-6.210937 3.61328,0" />
        <path
           id="path4140"
           style=""
           d="m 842.45361,58.561794 c -0.40366,-0.234356 -0.84637,-0.403627 -1.32812,-0.507812 -0.46877,-0.117169 -0.9896,-0.175762 -1.5625,-0.175781 -2.03126,1.9e-5 -3.59376,0.664081 -4.6875,1.992187 -1.08074,1.31512 -1.6211,3.209649 -1.6211,5.683594 l 0,11.523437 -3.61328,0 0,-21.875 3.61328,0 0,3.398438 c 0.7552,-1.328105 1.73828,-2.311177 2.94922,-2.949219 1.21093,-0.65102 2.68228,-0.97654 4.41407,-0.976562 0.24738,2.2e-5 0.52081,0.01955 0.82031,0.05859 0.29946,0.02606 0.63149,0.07164 0.99609,0.136719 l 0.0195,3.691406" />
        <path
           id="path4142"
           style=""
           d="m 853.87939,57.721951 c -1.92709,1.9e-5 -3.45053,0.755226 -4.57031,2.265625 -1.1198,1.497411 -1.67969,3.554701 -1.67969,6.171875 0,2.617195 0.55338,4.680995 1.66016,6.191406 1.11978,1.497399 2.64973,2.246096 4.58984,2.246094 1.91405,2e-6 3.43098,-0.755206 4.55079,-2.265625 1.11977,-1.510411 1.67966,-3.5677 1.67968,-6.171875 -2e-5,-2.591133 -0.55991,-4.641912 -1.67968,-6.152344 -1.11981,-1.523419 -2.63674,-2.285137 -4.55079,-2.285156 m 0,-3.046875 c 3.12499,2.2e-5 5.57941,1.015646 7.36329,3.046875 1.78383,2.031267 2.67575,4.843764 2.67578,8.4375 -3e-5,3.580736 -0.89195,6.393233 -2.67578,8.4375 -1.78388,2.03125 -4.2383,3.046874 -7.36329,3.046875 -3.13803,-10e-7 -5.59896,-1.015625 -7.38281,-3.046875 -1.77083,-2.044267 -2.65625,-4.856764 -2.65625,-8.4375 0,-3.593736 0.88542,-6.406233 2.65625,-8.4375 1.78385,-2.031229 4.24478,-3.046853 7.38281,-3.046875" />
        <path
           id="path4144"
           style=""
           d="m 869.85596,46.686794 3.59375,0 0,30.390625 -3.59375,0 0,-30.390625" />
      </g>
    </g>
    <g
       id="g4219">
      <path
         inkscape:connector-curvature="0"
         id="path3095"
         d="M 460.46214,605.36327 284.64001,781.18541 c 92.53546,89.27417 217.69013,144.93517 355.85153,147.38097 l 0,-248.65015 c -69.51188,-2.33501 -132.55417,-30.22577 -180.0294,-74.55296 z"
         style="fill:#3771c8;fill-opacity:1" />
      <g
         id="text3158"
         style="font-size:40px;font-style:normal;font-weight:normal;line-height:125%;letter-spacing:0px;word-spacing:0px;fill:#ffffff;fill-opacity:1;stroke:none;font-family:Sans">
        <path
           id="path4017"
           style=""
           d="m 371.27173,753.56543 0,4.16016 c -1.32815,-1.23696 -2.74742,-2.16144 -4.25781,-2.77344 -1.49742,-0.61195 -3.09247,-0.91794 -4.78516,-0.91797 -3.33335,3e-5 -5.88543,1.02216 -7.65625,3.06641 -1.77084,2.03127 -2.65626,4.97397 -2.65625,8.82812 -1e-5,3.84116 0.88541,6.78386 2.65625,8.82813 1.77082,2.03125 4.3229,3.04687 7.65625,3.04687 1.69269,0 3.28774,-0.30599 4.78516,-0.91797 1.51039,-0.61197 2.92966,-1.53645 4.25781,-2.77344 l 0,4.1211 c -1.38023,0.9375 -2.84508,1.64062 -4.39453,2.10937 -1.53648,0.46875 -3.16408,0.70313 -4.88282,0.70313 -4.41407,0 -7.89063,-1.34766 -10.42968,-4.04297 -2.53907,-2.70833 -3.8086,-6.39973 -3.8086,-11.07422 0,-4.68748 1.26953,-8.37888 3.8086,-11.07422 2.53905,-2.7083 6.01561,-4.06247 10.42968,-4.0625 1.74478,3e-5 3.3854,0.23441 4.92188,0.70313 1.54946,0.45575 3.00128,1.14586 4.35547,2.07031" />
        <path
           id="path4019"
           style=""
           d="m 385.72485,761.12402 c -1.92709,2e-5 -3.45053,0.75523 -4.57031,2.26563 -1.1198,1.49741 -1.67969,3.5547 -1.67969,6.17187 0,2.6172 0.55338,4.681 1.66016,6.19141 1.11978,1.4974 2.64973,2.2461 4.58984,2.24609 1.91405,10e-6 3.43098,-0.7552 4.55078,-2.26562 1.11978,-1.51041 1.67967,-3.5677 1.67969,-6.17188 -2e-5,-2.59113 -0.55991,-4.64191 -1.67969,-6.15234 -1.1198,-1.52342 -2.63673,-2.28514 -4.55078,-2.28516 m 0,-3.04687 c 3.12499,2e-5 5.57941,1.01564 7.36328,3.04687 1.78384,2.03127 2.67576,4.84377 2.67579,8.4375 -3e-5,3.58074 -0.89195,6.39324 -2.67579,8.4375 -1.78387,2.03125 -4.23829,3.04688 -7.36328,3.04688 -3.13803,0 -5.59896,-1.01563 -7.38281,-3.04688 -1.77084,-2.04426 -2.65625,-4.85676 -2.65625,-8.4375 0,-3.59373 0.88541,-6.40623 2.65625,-8.4375 1.78385,-2.03123 4.24478,-3.04685 7.38281,-3.04687" />
        <path
           id="path4021"
           style=""
           d="m 401.70142,750.08887 3.59375,0 0,30.39062 -3.59375,0 0,-30.39062" />
        <path
           id="path4023"
           style=""
           d="m 412.79517,750.08887 3.59375,0 0,30.39062 -3.59375,0 0,-30.39062" />
        <path
           id="path4025"
           style=""
           d="m 433.83032,769.4834 c -2.90365,1e-5 -4.91537,0.33204 -6.03515,0.99609 -1.1198,0.66407 -1.6797,1.79689 -1.67969,3.39844 -10e-6,1.27605 0.41666,2.29167 1.25,3.04687 0.84634,0.7422 1.99218,1.11329 3.4375,1.11329 1.99217,0 3.58722,-0.70313 4.78515,-2.10938 1.21093,-1.41926 1.81639,-3.30077 1.81641,-5.64453 l 0,-0.80078 -3.57422,0 m 7.16797,-1.48438 0,12.48047 -3.59375,0 0,-3.32031 c -0.82033,1.32813 -1.84246,2.3112 -3.06641,2.94922 -1.22397,0.625 -2.72136,0.9375 -4.49218,0.9375 -2.23959,0 -4.02345,-0.625 -5.35157,-1.875 -1.3151,-1.26302 -1.97265,-2.94922 -1.97265,-5.0586 0,-2.46092 0.82031,-4.31639 2.46094,-5.5664 1.65364,-1.24999 4.11457,-1.87499 7.38281,-1.875 l 5.03906,0 0,-0.35156 c -2e-5,-1.65363 -0.54689,-2.92967 -1.64062,-3.82813 -1.08075,-0.91144 -2.60418,-1.36717 -4.57032,-1.36719 -1.25001,2e-5 -2.46745,0.14976 -3.65234,0.44922 -1.1849,0.2995 -2.32422,0.74872 -3.41797,1.34766 l 0,-3.32031 c 1.3151,-0.5078 2.59114,-0.8854 3.82813,-1.13282 1.23697,-0.26039 2.44139,-0.3906 3.61328,-0.39062 3.16405,2e-5 5.52732,0.82033 7.08984,2.46094 1.56248,1.64064 2.34373,4.12762 2.34375,7.46093" />
        <path
           id="path4027"
           style=""
           d="m 464.12329,769.56152 c -2e-5,-2.64321 -0.54689,-4.71352 -1.64062,-6.21093 -1.08075,-1.5104 -2.57163,-2.26561 -4.47266,-2.26563 -1.90105,2e-5 -3.39845,0.75523 -4.49219,2.26563 -1.08073,1.49741 -1.6211,3.56772 -1.62109,6.21093 -10e-6,2.64324 0.54036,4.72006 1.62109,6.23047 1.09374,1.4974 2.59114,2.2461 4.49219,2.2461 1.90103,0 3.39191,-0.7487 4.47266,-2.2461 1.09373,-1.51041 1.6406,-3.58723 1.64062,-6.23047 m -12.22656,-7.63672 c 0.7552,-1.30206 1.70572,-2.2656 2.85156,-2.89062 1.15884,-0.638 2.53905,-0.95701 4.14063,-0.95703 2.65623,2e-5 4.81117,1.05471 6.46484,3.16406 1.66664,2.10939 2.49998,4.88283 2.5,8.32031 -2e-5,3.43751 -0.83336,6.21095 -2.5,8.32032 -1.65367,2.10937 -3.80861,3.16406 -6.46484,3.16406 -1.60158,0 -2.98179,-0.3125 -4.14063,-0.9375 -1.14584,-0.63802 -2.09636,-1.60807 -2.85156,-2.91016 l 0,3.28125 -3.61328,0 0,-30.39062 3.61328,0 0,11.83593" />
        <path
           id="path4029"
           style=""
           d="m 482.28735,761.12402 c -1.92709,2e-5 -3.45053,0.75523 -4.57031,2.26563 -1.1198,1.49741 -1.67969,3.5547 -1.67969,6.17187 0,2.6172 0.55338,4.681 1.66016,6.19141 1.11978,1.4974 2.64973,2.2461 4.58984,2.24609 1.91405,10e-6 3.43098,-0.7552 4.55078,-2.26562 1.11978,-1.51041 1.67967,-3.5677 1.67969,-6.17188 -2e-5,-2.59113 -0.55991,-4.64191 -1.67969,-6.15234 -1.1198,-1.52342 -2.63673,-2.28514 -4.55078,-2.28516 m 0,-3.04687 c 3.12499,2e-5 5.57941,1.01564 7.36328,3.04687 1.78384,2.03127 2.67576,4.84377 2.67579,8.4375 -3e-5,3.58074 -0.89195,6.39324 -2.67579,8.4375 -1.78387,2.03125 -4.23829,3.04688 -7.36328,3.04688 -3.13803,0 -5.59896,-1.01563 -7.38281,-3.04688 -1.77084,-2.04426 -2.65625,-4.85676 -2.65625,-8.4375 0,-3.59373 0.88541,-6.40623 2.65625,-8.4375 1.78385,-2.03123 4.24478,-3.04685 7.38281,-3.04687" />
        <path
           id="path4031"
           style=""
           d="m 510.9397,761.96387 c -0.40366,-0.23436 -0.84637,-0.40363 -1.32813,-0.50782 -0.46876,-0.11716 -0.9896,-0.17576 -1.5625,-0.17578 -2.03126,2e-5 -3.59376,0.66408 -4.6875,1.99219 -1.08073,1.31512 -1.6211,3.20965 -1.62109,5.68359 l 0,11.52344 -3.61328,0 0,-21.875 3.61328,0 0,3.39844 c 0.7552,-1.32811 1.73827,-2.31118 2.94922,-2.94922 1.21092,-0.65102 2.68228,-0.97654 4.41406,-0.97656 0.24738,2e-5 0.52082,0.0196 0.82031,0.0586 0.29947,0.0261 0.6315,0.0716 0.9961,0.13672 l 0.0195,3.69141" />
        <path
           id="path4033"
           style=""
           d="m 524.6897,769.4834 c -2.90366,1e-5 -4.91538,0.33204 -6.03516,0.99609 -1.1198,0.66407 -1.67969,1.79689 -1.67969,3.39844 0,1.27605 0.41666,2.29167 1.25,3.04687 0.84635,0.7422 1.99218,1.11329 3.4375,1.11329 1.99218,0 3.58723,-0.70313 4.78516,-2.10938 1.21092,-1.41926 1.81639,-3.30077 1.81641,-5.64453 l 0,-0.80078 -3.57422,0 m 7.16797,-1.48438 0,12.48047 -3.59375,0 0,-3.32031 c -0.82033,1.32813 -1.84247,2.3112 -3.06641,2.94922 -1.22397,0.625 -2.72137,0.9375 -4.49219,0.9375 -2.23959,0 -4.02344,-0.625 -5.35156,-1.875 -1.31511,-1.26302 -1.97266,-2.94922 -1.97266,-5.0586 0,-2.46092 0.82031,-4.31639 2.46094,-5.5664 1.65364,-1.24999 4.11458,-1.87499 7.38281,-1.875 l 5.03907,0 0,-0.35156 c -2e-5,-1.65363 -0.5469,-2.92967 -1.64063,-3.82813 -1.08074,-0.91144 -2.60418,-1.36717 -4.57031,-1.36719 -1.25001,2e-5 -2.46746,0.14976 -3.65235,0.44922 -1.1849,0.2995 -2.32422,0.74872 -3.41796,1.34766 l 0,-3.32031 c 1.31509,-0.5078 2.59114,-0.8854 3.82812,-1.13282 1.23697,-0.26039 2.4414,-0.3906 3.61328,-0.39062 3.16405,2e-5 5.52733,0.82033 7.08985,2.46094 1.56248,1.64064 2.34373,4.12762 2.34375,7.46093" />
        <path
           id="path4035"
           style=""
           d="m 542.83423,752.39355 0,6.21094 7.40234,0 0,2.79297 -7.40234,0 0,11.875 c -1e-5,1.78386 0.24088,2.92969 0.72265,3.4375 0.49479,0.50782 1.49088,0.76172 2.98829,0.76172 l 3.6914,0 0,3.00781 -3.6914,0 c -2.77345,0 -4.68751,-0.51432 -5.74219,-1.54297 -1.05469,-1.04166 -1.58204,-2.92968 -1.58203,-5.66406 l 0,-11.875 -2.63672,0 0,-2.79297 2.63672,0 0,-6.21094 3.61328,0" />
        <path
           id="path4037"
           style=""
           d="m 554.98267,758.60449 3.59375,0 0,21.875 -3.59375,0 0,-21.875 m 0,-8.51562 3.59375,0 0,4.55078 -3.59375,0 0,-4.55078" />
        <path
           id="path4039"
           style=""
           d="m 574.55298,761.12402 c -1.9271,2e-5 -3.45053,0.75523 -4.57031,2.26563 -1.1198,1.49741 -1.6797,3.5547 -1.67969,6.17187 -1e-5,2.6172 0.55338,4.681 1.66015,6.19141 1.11979,1.4974 2.64973,2.2461 4.58985,2.24609 1.91405,10e-6 3.43097,-0.7552 4.55078,-2.26562 1.11977,-1.51041 1.67967,-3.5677 1.67969,-6.17188 -2e-5,-2.59113 -0.55992,-4.64191 -1.67969,-6.15234 -1.11981,-1.52342 -2.63673,-2.28514 -4.55078,-2.28516 m 0,-3.04687 c 3.12498,2e-5 5.57941,1.01564 7.36328,3.04687 1.78383,2.03127 2.67576,4.84377 2.67578,8.4375 -2e-5,3.58074 -0.89195,6.39324 -2.67578,8.4375 -1.78387,2.03125 -4.2383,3.04688 -7.36328,3.04688 -3.13803,0 -5.59897,-1.01563 -7.38281,-3.04688 -1.77084,-2.04426 -2.65626,-4.85676 -2.65625,-8.4375 -10e-6,-3.59373 0.88541,-6.40623 2.65625,-8.4375 1.78384,-2.03123 4.24478,-3.04685 7.38281,-3.04687" />
        <path
           id="path4041"
           style=""
           d="m 608.71313,767.27637 0,13.20312 -3.59375,0 0,-13.08594 c -10e-6,-2.07029 -0.40366,-3.61977 -1.21093,-4.64843 -0.80731,-1.02863 -2.01825,-1.54295 -3.63282,-1.54297 -1.94011,2e-5 -3.47006,0.61851 -4.58984,1.85547 -1.1198,1.23699 -1.67969,2.92319 -1.67969,5.05859 l 0,12.36328 -3.61328,0 0,-21.875 3.61328,0 0,3.39844 c 0.85937,-1.31508 1.86848,-2.29816 3.02735,-2.94922 1.17186,-0.65102 2.51952,-0.97654 4.04297,-0.97656 2.513,2e-5 4.41404,0.78127 5.70312,2.34375 1.28904,1.5495 1.93357,3.83465 1.93359,6.85547" />
      </g>
    </g>
    <g
       id="g4236">
      <path
         inkscape:connector-curvature="0"
         id="path3186"
         d="m 839.49577,605.32127 c -47.46843,44.33232 -110.47875,72.24975 -179.98733,74.59503 l 0,248.65008 c 138.14158,-2.4563 263.27406,-58.1619 355.80946,-147.423 L 839.49577,605.32124 z"
         style="fill:#3771c8;fill-opacity:1" />
      <g
         id="text3162"
         style="font-size:40px;font-style:normal;font-weight:normal;line-height:125%;letter-spacing:0px;word-spacing:0px;fill:#ffffff;fill-opacity:1;stroke:none;font-family:Sans">
        <path
           id="path4044"
           style=""
           d="m 715.69196,751.30188 0,3.84766 c -1.49742,-0.71612 -2.91018,-1.24998 -4.23829,-1.60157 -1.32814,-0.35153 -2.61069,-0.52731 -3.84765,-0.52734 -2.14845,3e-5 -3.80861,0.41669 -4.98047,1.25 -1.15886,0.83336 -1.73829,2.01825 -1.73828,3.55469 -10e-6,1.28908 0.38411,2.26564 1.15234,2.92968 0.78124,0.65106 2.2526,1.17841 4.41406,1.58204 l 2.38282,0.48828 c 2.94269,0.55991 5.11065,1.54949 6.5039,2.96875 1.40623,1.40626 2.10935,3.29428 2.10938,5.66406 -3e-5,2.82553 -0.95054,4.96745 -2.85156,6.42578 -1.88804,1.45833 -4.66148,2.1875 -8.32032,2.1875 -1.38022,0 -2.85157,-0.15625 -4.41406,-0.46875 -1.54948,-0.3125 -3.15756,-0.77474 -4.82422,-1.38672 l 0,-4.0625 c 1.60156,0.89844 3.17057,1.57553 4.70703,2.03125 1.53645,0.45573 3.04687,0.6836 4.53125,0.6836 2.25259,0 3.99087,-0.44271 5.21485,-1.32813 1.22394,-0.88541 1.83592,-2.14843 1.83593,-3.78906 -10e-6,-1.43228 -0.44272,-2.55207 -1.32812,-3.35938 -0.87241,-0.80728 -2.31121,-1.41274 -4.31641,-1.8164 l -2.40234,-0.46875 c -2.94272,-0.58593 -5.07162,-1.50389 -6.38672,-2.75391 -1.31511,-1.24998 -1.97266,-2.98826 -1.97266,-5.21484 0,-2.5781 0.90495,-4.60935 2.71485,-6.09375 1.82291,-1.48435 4.32942,-2.22654 7.51953,-2.22657 1.36717,3e-5 2.7604,0.12373 4.17969,0.3711 1.41925,0.24742 2.87107,0.61852 4.35547,1.11328" />
        <path
           id="path4046"
           style=""
           d="m 732.54742,781.53625 c -1.01563,2.60417 -2.00521,4.30338 -2.96875,5.09766 -0.96355,0.79426 -2.25261,1.1914 -3.86718,1.19141 l -2.8711,0 0,-3.00782 2.10938,0 c 0.98958,0 1.7578,-0.23438 2.30469,-0.70312 0.54686,-0.46875 1.15233,-1.57552 1.8164,-3.32031 l 0.64453,-1.64063 -8.84765,-21.52344 3.80859,0 6.83594,17.10938 6.83594,-17.10938 3.80859,0 -9.60938,23.90625" />
        <path
           id="path4048"
           style=""
           d="m 765.30133,766.30188 0,13.20312 -3.59375,0 0,-13.08593 c -2e-5,-2.0703 -0.40366,-3.61978 -1.21094,-4.64844 -0.8073,-1.02863 -2.01824,-1.54295 -3.63281,-1.54297 -1.94012,2e-5 -3.47006,0.61851 -4.58984,1.85547 -1.1198,1.237 -1.6797,2.92319 -1.67969,5.05859 l 0,12.36328 -3.61328,0 0,-21.875 3.61328,0 0,3.39844 c 0.85937,-1.31508 1.86848,-2.29815 3.02734,-2.94922 1.17187,-0.65102 2.51952,-0.97654 4.04297,-0.97656 2.51301,2e-5 4.41405,0.78127 5.70313,2.34375 1.28904,1.5495 1.93357,3.83465 1.93359,6.85547" />
        <path
           id="path4050"
           style=""
           d="m 786.90289,760.95032 0,-11.83594 3.59375,0 0,30.39062 -3.59375,0 0,-3.28125 c -0.75522,1.30209 -1.71225,2.27214 -2.87109,2.91016 -1.14585,0.625 -2.52606,0.9375 -4.14063,0.9375 -2.64323,0 -4.79818,-1.05469 -6.46484,-3.16406 -1.65365,-2.10937 -2.48047,-4.88281 -2.48047,-8.32031 0,-3.43749 0.82682,-6.21092 2.48047,-8.32032 1.66666,-2.10935 3.82161,-3.16404 6.46484,-3.16406 1.61457,2e-5 2.99478,0.31903 4.14063,0.95703 1.15884,0.62502 2.11587,1.58856 2.87109,2.89063 m -12.24609,7.63672 c -10e-6,2.64323 0.54036,4.72005 1.62109,6.23046 1.09374,1.4974 2.59114,2.2461 4.49219,2.2461 1.90103,0 3.39842,-0.7487 4.49219,-2.2461 1.09373,-1.51041 1.6406,-3.58723 1.64062,-6.23046 -2e-5,-2.64322 -0.54689,-4.71353 -1.64062,-6.21094 -1.09377,-1.5104 -2.59116,-2.26561 -4.49219,-2.26563 -1.90105,2e-5 -3.39845,0.75523 -4.49219,2.26563 -1.08073,1.49741 -1.6211,3.56772 -1.62109,6.21094" />
        <path
           id="path4052"
           style=""
           d="m 797.89899,757.63 3.59375,0 0,21.875 -3.59375,0 0,-21.875 m 0,-8.51562 3.59375,0 0,4.55078 -3.59375,0 0,-4.55078" />
        <path
           id="path4054"
           style=""
           d="m 824.73492,758.46985 0,3.35937 c -1.01564,-0.55987 -2.03777,-0.97654 -3.0664,-1.25 -1.01564,-0.28644 -2.04429,-0.42966 -3.08594,-0.42968 -2.33074,2e-5 -4.14063,0.7422 -5.42969,2.22656 -1.28907,1.47137 -1.9336,3.54168 -1.93359,6.21094 -10e-6,2.66928 0.64452,4.7461 1.93359,6.23046 1.28906,1.47136 3.09895,2.20704 5.42969,2.20704 1.04165,0 2.0703,-0.13672 3.08594,-0.41016 1.02863,-0.28646 2.05076,-0.70963 3.0664,-1.26953 l 0,3.32031 c -1.00262,0.46875 -2.04428,0.82031 -3.125,1.05469 -1.06772,0.23437 -2.20704,0.35156 -3.41796,0.35156 -3.29428,0 -5.91147,-1.03515 -7.85157,-3.10547 -1.9401,-2.07031 -2.91016,-4.86327 -2.91015,-8.3789 -10e-6,-3.5677 0.97656,-6.37368 2.92968,-8.41797 1.96614,-2.04425 4.65494,-3.06639 8.06641,-3.06641 1.10676,2e-5 2.18749,0.11721 3.24219,0.35156 1.05467,0.22138 2.0768,0.55992 3.0664,1.01563" />
        <path
           id="path4056"
           style=""
           d="m 840.96539,768.50891 c -2.90365,10e-6 -4.91537,0.33204 -6.03515,0.99609 -1.1198,0.66408 -1.6797,1.79689 -1.67969,3.39844 -10e-6,1.27605 0.41666,2.29167 1.25,3.04688 0.84635,0.74219 1.99218,1.11328 3.4375,1.11328 1.99217,0 3.58722,-0.70312 4.78516,-2.10938 1.21092,-1.41926 1.81638,-3.30077 1.8164,-5.64453 l 0,-0.80078 -3.57422,0 m 7.16797,-1.48437 0,12.48046 -3.59375,0 0,-3.32031 c -0.82033,1.32813 -1.84246,2.3112 -3.0664,2.94922 -1.22398,0.625 -2.72137,0.9375 -4.49219,0.9375 -2.23959,0 -4.02345,-0.625 -5.35156,-1.875 -1.31511,-1.26302 -1.97266,-2.94921 -1.97266,-5.05859 0,-2.46093 0.82031,-4.3164 2.46094,-5.56641 1.65364,-1.24999 4.11457,-1.87499 7.38281,-1.875 l 5.03906,0 0,-0.35156 c -2e-5,-1.65363 -0.54689,-2.92967 -1.64062,-3.82813 -1.08075,-0.91144 -2.60418,-1.36716 -4.57032,-1.36718 -1.25001,2e-5 -2.46745,0.14975 -3.65234,0.44921 -1.1849,0.2995 -2.32422,0.74872 -3.41797,1.34766 l 0,-3.32031 c 1.3151,-0.50779 2.59114,-0.8854 3.82813,-1.13281 1.23697,-0.2604 2.44139,-0.39061 3.61328,-0.39063 3.16405,2e-5 5.52732,0.82034 7.08984,2.46094 1.56248,1.64064 2.34373,4.12762 2.34375,7.46094" />
        <path
           id="path4058"
           style=""
           d="m 859.10992,751.41907 0,6.21093 7.40235,0 0,2.79297 -7.40235,0 0,11.875 c 0,1.78386 0.24088,2.9297 0.72266,3.4375 0.49478,0.50782 1.49088,0.76173 2.98828,0.76172 l 3.69141,0 0,3.00781 -3.69141,0 c -2.77344,0 -4.6875,-0.51432 -5.74219,-1.54296 -1.05469,-1.04167 -1.58203,-2.92969 -1.58203,-5.66407 l 0,-11.875 -2.63672,0 0,-2.79297 2.63672,0 0,-6.21093 3.61328,0" />
        <path
           id="path4060"
           style=""
           d="m 871.25836,757.63 3.59375,0 0,21.875 -3.59375,0 0,-21.875 m 0,-8.51562 3.59375,0 0,4.55078 -3.59375,0 0,-4.55078" />
        <path
           id="path4062"
           style=""
           d="m 890.82867,760.14954 c -1.92709,2e-5 -3.45053,0.75522 -4.57031,2.26562 -1.1198,1.49741 -1.67969,3.5547 -1.67969,6.17188 0,2.61719 0.55338,4.68099 1.66016,6.1914 1.11978,1.4974 2.64973,2.2461 4.58984,2.2461 1.91405,0 3.43098,-0.75521 4.55079,-2.26563 1.11977,-1.51041 1.67966,-3.5677 1.67968,-6.17187 -2e-5,-2.59114 -0.55991,-4.64192 -1.67968,-6.15235 -1.11981,-1.52342 -2.63674,-2.28513 -4.55079,-2.28515 m 0,-3.04688 c 3.12499,2e-5 5.57941,1.01565 7.36329,3.04688 1.78383,2.03126 2.67575,4.84376 2.67578,8.4375 -3e-5,3.58073 -0.89195,6.39323 -2.67578,8.4375 -1.78388,2.03125 -4.2383,3.04687 -7.36329,3.04687 -3.13803,0 -5.59896,-1.01562 -7.38281,-3.04687 -1.77083,-2.04427 -2.65625,-4.85677 -2.65625,-8.4375 0,-3.59374 0.88542,-6.40624 2.65625,-8.4375 1.78385,-2.03123 4.24478,-3.04686 7.38281,-3.04688" />
        <path
           id="path4064"
           style=""
           d="m 924.98883,766.30188 0,13.20312 -3.59375,0 0,-13.08593 c -2e-5,-2.0703 -0.40366,-3.61978 -1.21094,-4.64844 -0.8073,-1.02863 -2.01824,-1.54295 -3.63281,-1.54297 -1.94012,2e-5 -3.47006,0.61851 -4.58984,1.85547 -1.1198,1.237 -1.6797,2.92319 -1.67969,5.05859 l 0,12.36328 -3.61328,0 0,-21.875 3.61328,0 0,3.39844 c 0.85937,-1.31508 1.86848,-2.29815 3.02734,-2.94922 1.17187,-0.65102 2.51952,-0.97654 4.04297,-0.97656 2.51301,2e-5 4.41405,0.78127 5.70313,2.34375 1.28904,1.5495 1.93357,3.83465 1.93359,6.85547" />
      </g>
    </g>
    <g
       id="g4251">
      <path
         inkscape:connector-curvature="0"
         id="path3188"
         d="m 927.55408,411.87065 c -2.33788,69.51541 -30.21207,132.56184 -74.55295,180.0294 l 175.78007,175.78003 c 89.2632,-92.53314 144.9739,-217.66651 147.423,-355.80943 l -248.65012,0 z"
         style="fill:#3771c8;fill-opacity:1" />
      <g
         id="text3166"
         style="font-size:40px;font-style:normal;font-weight:normal;line-height:125%;letter-spacing:0px;word-spacing:0px;fill:#ffffff;fill-opacity:1;stroke:none;font-family:Sans">
        <path
           id="path4074"
           style=""
           d="m 915.61383,531.77344 3.98438,0 6.13281,24.64843 6.11328,-24.64843 4.43359,0 6.13282,24.64843 6.11328,-24.64843 4.0039,0 -7.32422,29.16015 -4.96093,0 -6.15235,-25.3125 -6.21093,25.3125 -4.96094,0 -7.30469,-29.16015" />
        <path
           id="path4076"
           style=""
           d="m 973.95367,549.09766 0,1.75781 -16.52343,0 c 0.15624,2.47396 0.89843,4.36198 2.22656,5.66406 1.34114,1.28907 3.20311,1.9336 5.58594,1.93359 1.38019,10e-6 2.71482,-0.16926 4.0039,-0.50781 1.30207,-0.33854 2.59113,-0.84635 3.86719,-1.52344 l 0,3.39844 c -1.28908,0.54688 -2.6107,0.96354 -3.96484,1.25 -1.35419,0.28646 -2.72788,0.42969 -4.1211,0.42969 -3.48959,0 -6.25651,-1.01562 -8.30078,-3.04688 -2.03125,-2.03124 -3.04688,-4.77863 -3.04687,-8.24218 -10e-6,-3.58072 0.96354,-6.41926 2.89062,-8.51563 1.9401,-2.10935 4.55077,-3.16404 7.83203,-3.16406 2.9427,2e-5 5.26691,0.95054 6.97266,2.85156 1.71873,1.88804 2.5781,4.45965 2.57812,7.71485 m -3.59375,-1.05469 c -0.0261,-1.96613 -0.57944,-3.53514 -1.66015,-4.70703 -1.06773,-1.17186 -2.487,-1.7578 -4.25781,-1.75782 -2.00522,2e-5 -3.6133,0.56643 -4.82422,1.69922 -1.19793,1.13283 -1.88803,2.72788 -2.07032,4.78516 l 12.8125,-0.0195" />
        <path
           id="path4078"
           style=""
           d="m 995.55524,550.01562 c -2e-5,-2.64321 -0.5469,-4.71352 -1.64063,-6.21093 -1.08074,-1.5104 -2.57163,-2.26561 -4.47265,-2.26563 -1.90106,2e-5 -3.39845,0.75523 -4.49219,2.26563 -1.08074,1.49741 -1.6211,3.56772 -1.6211,6.21093 0,2.64324 0.54036,4.72006 1.6211,6.23047 1.09374,1.4974 2.59113,2.2461 4.49219,2.2461 1.90102,0 3.39191,-0.7487 4.47265,-2.2461 1.09373,-1.51041 1.64061,-3.58723 1.64063,-6.23047 m -12.22657,-7.63671 c 0.7552,-1.30207 1.70572,-2.26561 2.85157,-2.89063 1.15884,-0.638 2.53905,-0.95701 4.14062,-0.95703 2.65623,2e-5 4.81118,1.05471 6.46485,3.16406 1.66664,2.10939 2.49997,4.88283 2.5,8.32031 -3e-5,3.43751 -0.83336,6.21095 -2.5,8.32032 -1.65367,2.10937 -3.80862,3.16406 -6.46485,3.16406 -1.60157,0 -2.98178,-0.3125 -4.14062,-0.9375 -1.14585,-0.63802 -2.09637,-1.60807 -2.85157,-2.91016 l 0,3.28125 -3.61328,0 0,-30.39062 3.61328,0 0,11.83594" />
        <path
           id="path4080"
           style=""
           d="m 935.69196,582.73047 0,3.84765 c -1.49742,-0.71612 -2.91018,-1.24997 -4.23829,-1.60156 -1.32814,-0.35153 -2.61069,-0.52731 -3.84765,-0.52734 -2.14845,3e-5 -3.80861,0.41669 -4.98047,1.25 -1.15886,0.83336 -1.73829,2.01825 -1.73828,3.55469 -10e-6,1.28908 0.38411,2.26564 1.15234,2.92968 0.78124,0.65106 2.2526,1.17841 4.41406,1.58203 l 2.38282,0.48829 c 2.94269,0.55991 5.11065,1.54949 6.5039,2.96875 1.40623,1.40626 2.10935,3.29428 2.10938,5.66406 -3e-5,2.82552 -0.95054,4.96745 -2.85156,6.42578 -1.88804,1.45833 -4.66148,2.1875 -8.32032,2.1875 -1.38022,0 -2.85157,-0.15625 -4.41406,-0.46875 -1.54948,-0.3125 -3.15756,-0.77474 -4.82422,-1.38672 l 0,-4.0625 c 1.60156,0.89844 3.17057,1.57553 4.70703,2.03125 1.53645,0.45573 3.04687,0.6836 4.53125,0.68359 2.25259,10e-6 3.99087,-0.4427 5.21485,-1.32812 1.22394,-0.88541 1.83592,-2.14843 1.83593,-3.78906 -10e-6,-1.43228 -0.44272,-2.55208 -1.32812,-3.35938 -0.87241,-0.80728 -2.31121,-1.41275 -4.31641,-1.8164 l -2.40234,-0.46875 c -2.94272,-0.58593 -5.07162,-1.5039 -6.38672,-2.75391 -1.31511,-1.24998 -1.97266,-2.98826 -1.97266,-5.21484 0,-2.5781 0.90495,-4.60935 2.71485,-6.09375 1.82291,-1.48435 4.32942,-2.22654 7.51953,-2.22657 1.36717,3e-5 2.7604,0.12373 4.17969,0.3711 1.41925,0.24742 2.87107,0.61852 4.35547,1.11328" />
        <path
           id="path4082"
           style=""
           d="m 947.00055,582.84766 0,6.21093 7.40234,0 0,2.79297 -7.40234,0 0,11.875 c -10e-6,1.78386 0.24088,2.92969 0.72266,3.4375 0.49478,0.50782 1.49087,0.76172 2.98828,0.76172 l 3.6914,0 0,3.00781 -3.6914,0 c -2.77345,0 -4.68751,-0.51432 -5.74219,-1.54297 -1.05469,-1.04166 -1.58204,-2.92968 -1.58203,-5.66406 l 0,-11.875 -2.63672,0 0,-2.79297 2.63672,0 0,-6.21093 3.61328,0" />
        <path
           id="path4084"
           style=""
           d="m 969.09039,599.9375 c -2.90365,10e-6 -4.91537,0.33204 -6.03515,0.99609 -1.1198,0.66408 -1.6797,1.79689 -1.67969,3.39844 -10e-6,1.27605 0.41666,2.29167 1.25,3.04688 0.84635,0.74219 1.99218,1.11328 3.4375,1.11328 1.99217,0 3.58722,-0.70312 4.78516,-2.10938 1.21092,-1.41926 1.81638,-3.30077 1.8164,-5.64453 l 0,-0.80078 -3.57422,0 m 7.16797,-1.48438 0,12.48047 -3.59375,0 0,-3.32031 c -0.82033,1.32813 -1.84246,2.3112 -3.0664,2.94922 -1.22398,0.625 -2.72137,0.9375 -4.49219,0.9375 -2.23959,0 -4.02345,-0.625 -5.35156,-1.875 -1.31511,-1.26302 -1.97266,-2.94921 -1.97266,-5.05859 0,-2.46093 0.82031,-4.3164 2.46094,-5.56641 1.65364,-1.24999 4.11457,-1.87499 7.38281,-1.875 l 5.03906,0 0,-0.35156 c -2e-5,-1.65363 -0.54689,-2.92967 -1.64062,-3.82813 -1.08075,-0.91144 -2.60418,-1.36717 -4.57032,-1.36719 -1.25001,2e-5 -2.46745,0.14976 -3.65234,0.44922 -1.1849,0.2995 -2.32422,0.74872 -3.41797,1.34766 l 0,-3.32031 c 1.3151,-0.50779 2.59114,-0.8854 3.82813,-1.13282 1.23697,-0.26039 2.44139,-0.3906 3.61328,-0.39062 3.16405,2e-5 5.52732,0.82033 7.08984,2.46094 1.56248,1.64064 2.34373,4.12762 2.34375,7.46093" />
        <path
           id="path4086"
           style=""
           d="m 1001.8638,597.73047 0,13.20312 -3.59372,0 0,-13.08593 c -2e-5,-2.0703 -0.40366,-3.61978 -1.21094,-4.64844 -0.8073,-1.02863 -2.01824,-1.54295 -3.63281,-1.54297 -1.94012,2e-5 -3.47006,0.61851 -4.58984,1.85547 -1.1198,1.23699 -1.6797,2.92319 -1.67969,5.05859 l 0,12.36328 -3.61328,0 0,-21.875 3.61328,0 0,3.39844 c 0.85937,-1.31508 1.86848,-2.29816 3.02734,-2.94922 1.17187,-0.65102 2.51952,-0.97654 4.04297,-0.97656 2.51301,2e-5 4.41405,0.78127 5.70313,2.34375 1.28906,1.5495 1.93356,3.83465 1.93356,6.85547" />
        <path
           id="path4088"
           style=""
           d="m 1023.4654,592.37891 0,-11.83594 3.5937,0 0,30.39062 -3.5937,0 0,-3.28125 c -0.7552,1.30209 -1.7123,2.27214 -2.8711,2.91016 -1.1458,0.625 -2.5261,0.9375 -4.1406,0.9375 -2.6433,0 -4.7982,-1.05469 -6.4649,-3.16406 -1.6536,-2.10937 -2.4804,-4.88281 -2.4804,-8.32032 0,-3.43748 0.8268,-6.21092 2.4804,-8.32031 1.6667,-2.10935 3.8216,-3.16404 6.4649,-3.16406 1.6145,2e-5 2.9948,0.31903 4.1406,0.95703 1.1588,0.62502 2.1159,1.58856 2.8711,2.89063 m -12.2461,7.63671 c 0,2.64324 0.5404,4.72006 1.6211,6.23047 1.0937,1.4974 2.5911,2.2461 4.4922,2.2461 1.901,0 3.3984,-0.7487 4.4922,-2.2461 1.0937,-1.51041 1.6406,-3.58723 1.6406,-6.23047 0,-2.64321 -0.5469,-4.71352 -1.6406,-6.21093 -1.0938,-1.5104 -2.5912,-2.26561 -4.4922,-2.26563 -1.9011,2e-5 -3.3985,0.75523 -4.4922,2.26563 -1.0807,1.49741 -1.6211,3.56772 -1.6211,6.21093" />
        <path
           id="path4090"
           style=""
           d="m 1044.4029,599.9375 c -2.9037,10e-6 -4.9154,0.33204 -6.0352,0.99609 -1.1198,0.66408 -1.6797,1.79689 -1.6797,3.39844 0,1.27605 0.4167,2.29167 1.25,3.04688 0.8464,0.74219 1.9922,1.11328 3.4375,1.11328 1.9922,0 3.5873,-0.70312 4.7852,-2.10938 1.2109,-1.41926 1.8164,-3.30077 1.8164,-5.64453 l 0,-0.80078 -3.5742,0 m 7.168,-1.48438 0,12.48047 -3.5938,0 0,-3.32031 c -0.8203,1.32813 -1.8425,2.3112 -3.0664,2.94922 -1.224,0.625 -2.7214,0.9375 -4.4922,0.9375 -2.2396,0 -4.0234,-0.625 -5.3515,-1.875 -1.3152,-1.26302 -1.9727,-2.94921 -1.9727,-5.05859 0,-2.46093 0.8203,-4.3164 2.4609,-5.56641 1.6537,-1.24999 4.1146,-1.87499 7.3828,-1.875 l 5.0391,0 0,-0.35156 c 0,-1.65363 -0.5469,-2.92967 -1.6406,-3.82813 -1.0808,-0.91144 -2.6042,-1.36717 -4.5703,-1.36719 -1.25,2e-5 -2.4675,0.14976 -3.6524,0.44922 -1.1849,0.2995 -2.3242,0.74872 -3.4179,1.34766 l 0,-3.32031 c 1.3151,-0.50779 2.5911,-0.8854 3.8281,-1.13282 1.237,-0.26039 2.4414,-0.3906 3.6133,-0.39062 3.164,2e-5 5.5273,0.82033 7.0898,2.46094 1.5625,1.64064 2.3437,4.12762 2.3438,7.46093" />
        <path
           id="path4092"
           style=""
           d="m 1071.6685,592.41797 c -0.4036,-0.23436 -0.8464,-0.40363 -1.3281,-0.50781 -0.4688,-0.11717 -0.9896,-0.17577 -1.5625,-0.17579 -2.0313,2e-5 -3.5938,0.66409 -4.6875,1.99219 -1.0807,1.31512 -1.6211,3.20965 -1.6211,5.6836 l 0,11.52343 -3.6133,0 0,-21.875 3.6133,0 0,3.39844 c 0.7552,-1.3281 1.7383,-2.31118 2.9492,-2.94922 1.2109,-0.65102 2.6823,-0.97654 4.4141,-0.97656 0.2474,2e-5 0.5208,0.0195 0.8203,0.0586 0.2995,0.0261 0.6315,0.0716 0.9961,0.13672 l 0.02,3.69141" />
        <path
           id="path4094"
           style=""
           d="m 1089.1685,592.37891 0,-11.83594 3.5938,0 0,30.39062 -3.5938,0 0,-3.28125 c -0.7552,1.30209 -1.7122,2.27214 -2.8711,2.91016 -1.1458,0.625 -2.526,0.9375 -4.1406,0.9375 -2.6432,0 -4.7982,-1.05469 -6.4648,-3.16406 -1.6537,-2.10937 -2.4805,-4.88281 -2.4805,-8.32032 0,-3.43748 0.8268,-6.21092 2.4805,-8.32031 1.6666,-2.10935 3.8216,-3.16404 6.4648,-3.16406 1.6146,2e-5 2.9948,0.31903 4.1406,0.95703 1.1589,0.62502 2.1159,1.58856 2.8711,2.89063 m -12.2461,7.63671 c 0,2.64324 0.5404,4.72006 1.6211,6.23047 1.0938,1.4974 2.5912,2.2461 4.4922,2.2461 1.901,0 3.3984,-0.7487 4.4922,-2.2461 1.0937,-1.51041 1.6406,-3.58723 1.6406,-6.23047 0,-2.64321 -0.5469,-4.71352 -1.6406,-6.21093 -1.0938,-1.5104 -2.5912,-2.26561 -4.4922,-2.26563 -1.901,2e-5 -3.3984,0.75523 -4.4922,2.26563 -1.0807,1.49741 -1.6211,3.56772 -1.6211,6.21093" />
        <path
           id="path4096"
           style=""
           d="m 1114.1099,589.70312 0,3.39844 c -1.0156,-0.52081 -2.0703,-0.91144 -3.164,-1.17187 -1.0938,-0.2604 -2.2266,-0.39061 -3.3985,-0.39063 -1.7838,2e-5 -3.125,0.27346 -4.0234,0.82031 -0.8854,0.5469 -1.3281,1.36721 -1.3281,2.46094 0,0.83335 0.319,1.4909 0.957,1.97266 0.638,0.46876 1.9206,0.91798 3.8476,1.34765 l 1.2305,0.27344 c 2.5521,0.54689 4.362,1.32163 5.4297,2.32422 1.0807,0.98959 1.6211,2.37631 1.6211,4.16016 0,2.03125 -0.8073,3.63932 -2.4219,4.82422 -1.6016,1.18489 -3.8086,1.77734 -6.6211,1.77734 -1.1719,0 -2.3958,-0.11719 -3.6718,-0.35156 -1.2631,-0.22136 -2.5977,-0.5599 -4.004,-1.01563 l 0,-3.71094 c 1.3282,0.69011 2.6368,1.21095 3.9258,1.5625 1.2891,0.33855 2.5651,0.50782 3.8282,0.50782 1.6927,0 2.9947,-0.28646 3.9062,-0.85938 0.9114,-0.58593 1.3672,-1.40624 1.3672,-2.46094 0,-0.97655 -0.3321,-1.72525 -0.9961,-2.24609 -0.6511,-0.52082 -2.0899,-1.02213 -4.3164,-1.50391 l -1.25,-0.29296 c -2.2266,-0.46874 -3.8346,-1.18489 -4.8242,-2.14844 -0.9896,-0.97655 -1.4844,-2.31118 -1.4844,-4.00391 0,-2.05727 0.7292,-3.64581 2.1875,-4.76562 1.4583,-1.11977 3.5286,-1.67967 6.2109,-1.67969 1.3281,2e-5 2.5781,0.0977 3.75,0.29297 1.1719,0.19533 2.2526,0.4883 3.2422,0.8789" />
      </g>
    </g>
    <g
       id="g4267">
      <path
         inkscape:connector-curvature="0"
         id="path3192"
         d="M 1028.7812,37.0443 853.00113,212.82435 c 44.34088,47.46779 72.21507,110.51397 74.55295,180.02941 l 248.65012,0 C 1173.7551,254.71084 1118.0444,129.57757 1028.7812,37.0443 z"
         style="fill:#3771c8;fill-opacity:1" />
      <g
         id="text3172"
         style="font-size:40px;font-style:normal;font-weight:normal;line-height:125%;letter-spacing:0px;word-spacing:0px;fill:#ffffff;fill-opacity:1;stroke:none;font-family:Sans">
        <path
           id="path4099"
           style=""
           d="m 906.4386,231.10971 24.66797,0 0,3.32031 -10.35157,0 0,25.83985 -3.96484,0 0,-25.83985 -10.35156,0 0,-3.32031" />
        <path
           id="path4101"
           style=""
           d="m 946.6925,248.43393 0,1.75781 -16.52343,0 c 0.15624,2.47397 0.89843,4.36199 2.22656,5.66406 1.34114,1.28907 3.20311,1.9336 5.58594,1.9336 1.38019,0 2.71482,-0.16927 4.0039,-0.50781 1.30207,-0.33854 2.59113,-0.84635 3.86719,-1.52344 l 0,3.39844 c -1.28908,0.54687 -2.61069,0.96354 -3.96484,1.25 -1.35419,0.28645 -2.72788,0.42968 -4.1211,0.42968 -3.48959,0 -6.25651,-1.01562 -8.30078,-3.04687 -2.03125,-2.03125 -3.04687,-4.77864 -3.04687,-8.24219 0,-3.58071 0.96354,-6.41925 2.89062,-8.51562 1.9401,-2.10936 4.55077,-3.16404 7.83203,-3.16407 2.9427,3e-5 5.26691,0.95055 6.97266,2.85157 1.71873,1.88803 2.5781,4.45965 2.57812,7.71484 m -3.59375,-1.05469 c -0.0261,-1.96613 -0.57944,-3.53514 -1.66015,-4.70703 -1.06773,-1.17186 -2.487,-1.75779 -4.25781,-1.75781 -2.00522,2e-5 -3.61329,0.56642 -4.82422,1.69922 -1.19793,1.13283 -1.88803,2.72788 -2.07032,4.78515 l 12.8125,-0.0195" />
        <path
           id="path4103"
           style=""
           d="m 969.62219,242.59409 c 0.89842,-1.61457 1.97264,-2.80597 3.22266,-3.57422 1.24997,-0.76821 2.72133,-1.15232 4.41406,-1.15235 2.27862,3e-5 4.03643,0.80081 5.27344,2.40235 1.23694,1.58856 1.85543,3.85418 1.85547,6.79687 l 0,13.20313 -3.61328,0 0,-13.08594 c -4e-5,-2.09634 -0.37113,-3.65233 -1.11329,-4.66797 -0.74221,-1.01561 -1.87502,-1.52342 -3.39843,-1.52344 -1.86201,2e-5 -3.33336,0.61851 -4.41407,1.85547 -1.08075,1.237 -1.62111,2.92319 -1.62109,5.0586 l 0,12.36328 -3.61328,0 0,-13.08594 c -2e-5,-2.10936 -0.37111,-3.66535 -1.11328,-4.66797 -0.7422,-1.01561 -1.88804,-1.52342 -3.4375,-1.52344 -1.83595,2e-5 -3.29428,0.62502 -4.375,1.875 -1.08074,1.237 -1.6211,2.91668 -1.6211,5.03907 l 0,12.36328 -3.61328,0 0,-21.875 3.61328,0 0,3.39843 c 0.82031,-1.34112 1.80338,-2.3307 2.94922,-2.96875 1.14583,-0.63799 2.5065,-0.957 4.08203,-0.95703 1.58853,3e-5 2.93619,0.40367 4.04297,1.21094 1.11978,0.80731 1.9466,1.97919 2.48047,3.51563" />
        <path
           id="path4105"
           style=""
           d="m 995.05188,256.98862 0,11.60156 -3.61328,0 0,-30.19531 3.61328,0 0,3.32031 c 0.7552,-1.30206 1.70572,-2.2656 2.85156,-2.89063 1.15885,-0.63799 2.53906,-0.957 4.14066,-0.95703 2.6562,3e-5 4.8111,1.05471 6.4648,3.16407 1.6667,2.10939 2.5,4.88282 2.5,8.32031 0,3.43751 -0.8333,6.21094 -2.5,8.32031 -1.6537,2.10938 -3.8086,3.16406 -6.4648,3.16406 -1.6016,0 -2.98181,-0.3125 -4.14066,-0.9375 -1.14584,-0.63802 -2.09636,-1.60807 -2.85156,-2.91015 m 12.22652,-7.63672 c 0,-2.64322 -0.5469,-4.71353 -1.6406,-6.21094 -1.0807,-1.5104 -2.5716,-2.2656 -4.4726,-2.26562 -1.90109,2e-5 -3.39849,0.75522 -4.49223,2.26562 -1.08073,1.49741 -1.6211,3.56772 -1.62109,6.21094 -10e-6,2.64324 0.54036,4.72006 1.62109,6.23047 1.09374,1.4974 2.59114,2.24609 4.49223,2.24609 1.901,0 3.3919,-0.74869 4.4726,-2.24609 1.0937,-1.51041 1.6406,-3.58723 1.6406,-6.23047" />
        <path
           id="path4107"
           style=""
           d="m 1016.9659,229.87924 3.5938,0 0,30.39063 -3.5938,0 0,-30.39063" />
        <path
           id="path4109"
           style=""
           d="m 1038.0011,249.27377 c -2.9037,10e-6 -4.9154,0.33205 -6.0352,0.9961 -1.1198,0.66407 -1.6797,1.79688 -1.6796,3.39843 -10e-5,1.27605 0.4166,2.29168 1.25,3.04688 0.8463,0.74219 1.9921,1.11328 3.4375,1.11328 1.9921,0 3.5872,-0.70312 4.7851,-2.10937 1.2109,-1.41927 1.8164,-3.30078 1.8164,-5.64454 l 0,-0.80078 -3.5742,0 m 7.168,-1.48437 0,12.48047 -3.5938,0 0,-3.32032 c -0.8203,1.32813 -1.8424,2.3112 -3.0664,2.94922 -1.224,0.625 -2.7214,0.9375 -4.4922,0.9375 -2.2396,0 -4.0234,-0.625 -5.3515,-1.875 -1.3151,-1.26302 -1.9727,-2.94921 -1.9727,-5.05859 0,-2.46093 0.8203,-4.3164 2.4609,-5.56641 1.6537,-1.24998 4.1146,-1.87498 7.3829,-1.875 l 5.039,0 0,-0.35156 c 0,-1.65363 -0.5469,-2.92967 -1.6406,-3.82812 -1.0808,-0.91144 -2.6042,-1.36717 -4.5703,-1.36719 -1.25,2e-5 -2.4675,0.14976 -3.6524,0.44922 -1.1849,0.29949 -2.3242,0.74871 -3.4179,1.34765 l 0,-3.32031 c 1.3151,-0.50779 2.5911,-0.88539 3.8281,-1.13281 1.237,-0.2604 2.4414,-0.3906 3.6133,-0.39063 3.164,3e-5 5.5273,0.82034 7.0898,2.46094 1.5625,1.64064 2.3437,4.12762 2.3438,7.46094" />
        <path
           id="path4111"
           style=""
           d="m 1056.1456,232.18393 0,6.21094 7.4024,0 0,2.79297 -7.4024,0 0,11.875 c 0,1.78386 0.2409,2.92969 0.7227,3.4375 0.4948,0.50781 1.4909,0.76172 2.9883,0.76171 l 3.6914,0 0,3.00782 -3.6914,0 c -2.7735,0 -4.6875,-0.51433 -5.7422,-1.54297 -1.0547,-1.04167 -1.5821,-2.92968 -1.5821,-5.66406 l 0,-11.875 -2.6367,0 0,-2.79297 2.6367,0 0,-6.21094 3.6133,0" />
        <path
           id="path4113"
           style=""
           d="m 1068.2941,238.39487 3.5937,0 0,21.875 -3.5937,0 0,-21.875 m 0,-8.51563 3.5937,0 0,4.55078 -3.5937,0 0,-4.55078" />
        <path
           id="path4115"
           style=""
           d="m 1097.5714,247.06674 0,13.20313 -3.5937,0 0,-13.08594 c -10e-5,-2.0703 -0.4037,-3.61978 -1.211,-4.64844 -0.8073,-1.02863 -2.0182,-1.54295 -3.6328,-1.54297 -1.9401,2e-5 -3.4701,0.61851 -4.5898,1.85547 -1.1198,1.237 -1.6797,2.92319 -1.6797,5.0586 l 0,12.36328 -3.6133,0 0,-21.875 3.6133,0 0,3.39843 c 0.8593,-1.31508 1.8685,-2.29815 3.0273,-2.94921 1.1719,-0.65102 2.5195,-0.97654 4.043,-0.97657 2.513,3e-5 4.414,0.78127 5.7031,2.34375 1.2891,1.5495 1.9336,3.83465 1.9336,6.85547" />
        <path
           id="path4117"
           style=""
           d="m 1119.173,249.07846 c 0,-2.60415 -0.5404,-4.62238 -1.6211,-6.05469 -1.0677,-1.43227 -2.5716,-2.14841 -4.5117,-2.14843 -1.9271,2e-5 -3.431,0.71616 -4.5118,2.14843 -1.0677,1.43231 -1.6015,3.45054 -1.6015,6.05469 0,2.59116 0.5338,4.60287 1.6015,6.03516 1.0808,1.43229 2.5847,2.14844 4.5118,2.14843 1.9401,1e-5 3.444,-0.71614 4.5117,-2.14843 1.0807,-1.43229 1.6211,-3.444 1.6211,-6.03516 m 3.5937,8.47656 c 0,3.72396 -0.8268,6.49088 -2.4804,8.30078 -1.6537,1.82291 -4.1863,2.73437 -7.5977,2.73438 -1.263,-10e-6 -2.4544,-0.0977 -3.5742,-0.29297 -1.1198,-0.1823 -2.2071,-0.46876 -3.2617,-0.85937 l 0,-3.4961 c 1.0546,0.57291 2.0963,0.99609 3.125,1.26953 1.0286,0.27344 2.0768,0.41015 3.1445,0.41016 2.3567,-10e-6 4.1211,-0.61849 5.293,-1.85547 1.1718,-1.22396 1.7578,-3.07943 1.7578,-5.56641 l 0,-1.77734 c -0.7422,1.28907 -1.6928,2.25261 -2.8516,2.89063 -1.1589,0.63802 -2.5456,0.95703 -4.1601,0.95703 -2.6823,0 -4.8438,-1.02214 -6.4844,-3.06641 -1.6406,-2.04427 -2.461,-4.7526 -2.461,-8.125 0,-3.3854 0.8204,-6.10024 2.461,-8.14453 1.6406,-2.04425 3.8021,-3.06638 6.4844,-3.06641 1.6145,3e-5 3.0012,0.31904 4.1601,0.95703 1.1588,0.63805 2.1094,1.60159 2.8516,2.89063 l 0,-3.32031 3.5937,0 0,19.16015" />
      </g>
    </g>
    <g
       id="g4195">
      <path
         inkscape:connector-curvature="0"
         id="path3194"
         d="M 271.17672,37.0022 C 181.9099,129.53771 126.24472,254.69884 123.7958,392.85373 l 248.60802,0 c 2.33852,-69.5269 30.241,-132.55917 74.59503,-180.02941 L 271.17672,37.0022 z"
         style="fill:#3771c8;fill-opacity:1" />
      <g
         id="text3176"
         style="font-size:40px;font-style:normal;font-weight:normal;line-height:125%;letter-spacing:0px;word-spacing:0px;fill:#ffffff;fill-opacity:1;stroke:none;font-family:Sans">
        <path
           id="path3983"
           style=""
           d="m 228.161,234.96561 18.4375,0 0,3.32031 -14.49219,0 0,8.63281 13.88672,0 0,3.32031 -13.88672,0 0,10.56641 14.84375,0 0,3.32031 -18.78906,0 0,-29.16015" />
        <path
           id="path3985"
           style=""
           d="m 267.71178,245.57108 0,-11.83594 3.59375,0 0,30.39062 -3.59375,0 0,-3.28125 c -0.75523,1.30209 -1.71226,2.27214 -2.8711,2.91016 -1.14584,0.625 -2.52605,0.9375 -4.14062,0.9375 -2.64324,0 -4.79819,-1.05469 -6.46485,-3.16406 -1.65364,-2.10937 -2.48047,-4.88281 -2.48046,-8.32032 -1e-5,-3.43748 0.82682,-6.21092 2.48046,-8.32031 1.66666,-2.10935 3.82161,-3.16404 6.46485,-3.16406 1.61457,2e-5 2.99478,0.31903 4.14062,0.95703 1.15884,0.62502 2.11587,1.58856 2.8711,2.89063 m -12.2461,7.63671 c 0,2.64324 0.54036,4.72006 1.6211,6.23047 1.09374,1.4974 2.59113,2.2461 4.49218,2.2461 1.90103,0 3.39843,-0.7487 4.49219,-2.2461 1.09373,-1.51041 1.64061,-3.58723 1.64063,-6.23047 -2e-5,-2.64321 -0.5469,-4.71352 -1.64063,-6.21093 -1.09376,-1.5104 -2.59116,-2.26561 -4.49219,-2.26563 -1.90105,2e-5 -3.39844,0.75523 -4.49218,2.26563 -1.08074,1.49741 -1.6211,3.56772 -1.6211,6.21093" />
        <path
           id="path3987"
           style=""
           d="m 278.70787,242.25076 3.59375,0 0,21.875 -3.59375,0 0,-21.875 m 0,-8.51562 3.59375,0 0,4.55078 -3.59375,0 0,-4.55078" />
        <path
           id="path3989"
           style=""
           d="m 293.35631,236.03983 0,6.21093 7.40234,0 0,2.79297 -7.40234,0 0,11.875 c -1e-5,1.78386 0.24088,2.92969 0.72265,3.4375 0.49479,0.50782 1.49088,0.76172 2.98829,0.76172 l 3.6914,0 0,3.00781 -3.6914,0 c -2.77345,0 -4.68751,-0.51432 -5.74219,-1.54297 -1.05469,-1.04166 -1.58204,-2.92968 -1.58203,-5.66406 l 0,-11.875 -2.63672,0 0,-2.79297 2.63672,0 0,-6.21093 3.61328,0" />
        <path
           id="path3991"
           style=""
           d="m 313.98131,244.77029 c -1.9271,2e-5 -3.45053,0.75523 -4.57031,2.26563 -1.1198,1.49741 -1.6797,3.5547 -1.67969,6.17187 -1e-5,2.6172 0.55338,4.681 1.66015,6.19141 1.11979,1.4974 2.64973,2.2461 4.58985,2.24609 1.91405,1e-5 3.43097,-0.7552 4.55078,-2.26562 1.11977,-1.51041 1.67967,-3.5677 1.67969,-6.17188 -2e-5,-2.59113 -0.55992,-4.64191 -1.67969,-6.15234 -1.11981,-1.52342 -2.63673,-2.28514 -4.55078,-2.28516 m 0,-3.04687 c 3.12498,2e-5 5.57941,1.01565 7.36328,3.04687 1.78383,2.03127 2.67576,4.84377 2.67578,8.4375 -2e-5,3.58074 -0.89195,6.39324 -2.67578,8.4375 -1.78387,2.03125 -4.2383,3.04688 -7.36328,3.04688 -3.13803,0 -5.59897,-1.01563 -7.38281,-3.04688 -1.77084,-2.04426 -2.65626,-4.85676 -2.65625,-8.4375 -10e-6,-3.59373 0.88541,-6.40623 2.65625,-8.4375 1.78384,-2.03122 4.24478,-3.04685 7.38281,-3.04687" />
        <path
           id="path3993"
           style=""
           d="m 342.63365,245.61014 c -0.40366,-0.23436 -0.84637,-0.40363 -1.32812,-0.50781 -0.46877,-0.11717 -0.9896,-0.17577 -1.5625,-0.17579 -2.03126,2e-5 -3.59376,0.66409 -4.6875,1.99219 -1.08074,1.31512 -1.6211,3.20965 -1.6211,5.6836 l 0,11.52343 -3.61328,0 0,-21.875 3.61328,0 0,3.39844 c 0.7552,-1.3281 1.73828,-2.31118 2.94922,-2.94922 1.21093,-0.65102 2.68228,-0.97654 4.41406,-0.97656 0.24739,2e-5 0.52082,0.0196 0.82032,0.0586 0.29946,0.0261 0.63149,0.0716 0.99609,0.13672 l 0.0195,3.69141" />
      </g>
    </g>
    <g
       id="g4205">
      <path
         inkscape:connector-curvature="0"
         id="path3190"
         d="m 123.7958,411.87065 c 2.44892,138.1549 58.1141,263.31614 147.38092,355.85153 L 446.99885,591.90002 C 402.64482,544.42999 374.74234,481.39749 372.40382,411.87062 l -248.60802,0 z"
         style="fill:#3771c8;fill-opacity:1" />
      <g
         id="text3180"
         style="font-size:40px;font-style:normal;font-weight:normal;line-height:125%;letter-spacing:0px;word-spacing:0px;fill:#ffffff;fill-opacity:1;stroke:none;font-family:Sans">
        <path
           id="path3996"
           style=""
           d="m 173.9258,520.34491 5.8789,0 7.44141,19.84375 7.48047,-19.84375 5.8789,0 0,29.16016 -3.84765,0 0,-25.60547 -7.51953,20 -3.96485,0 -7.51953,-20 0,25.60547 -3.82812,0 0,-29.16016" />
        <path
           id="path3998"
           style=""
           d="m 216.77736,530.1496 c -1.92709,2e-5 -3.45053,0.75522 -4.57031,2.26562 -1.1198,1.49741 -1.6797,3.5547 -1.67969,6.17188 -10e-6,2.61719 0.55338,4.68099 1.66016,6.1914 1.11978,1.4974 2.64972,2.2461 4.58984,2.2461 1.91405,0 3.43097,-0.75521 4.55078,-2.26563 1.11977,-1.51041 1.67967,-3.5677 1.67969,-6.17187 -2e-5,-2.59114 -0.55992,-4.64191 -1.67969,-6.15235 -1.11981,-1.52342 -2.63673,-2.28513 -4.55078,-2.28515 m 0,-3.04688 c 3.12498,2e-5 5.57941,1.01565 7.36328,3.04688 1.78383,2.03126 2.67576,4.84376 2.67578,8.4375 -2e-5,3.58073 -0.89195,6.39323 -2.67578,8.4375 -1.78387,2.03125 -4.2383,3.04687 -7.36328,3.04687 -3.13803,0 -5.59897,-1.01562 -7.38281,-3.04687 -1.77084,-2.04427 -2.65626,-4.85677 -2.65625,-8.4375 -1e-5,-3.59374 0.88541,-6.40624 2.65625,-8.4375 1.78384,-2.03123 4.24478,-3.04686 7.38281,-3.04688" />
        <path
           id="path4000"
           style=""
           d="m 247.14845,530.95038 0,-11.83594 3.59375,0 0,30.39063 -3.59375,0 0,-3.28125 c -0.75522,1.30208 -1.71225,2.27213 -2.87109,2.91015 -1.14585,0.625 -2.52606,0.9375 -4.14063,0.9375 -2.64323,0 -4.79818,-1.05468 -6.46484,-3.16406 -1.65365,-2.10937 -2.48047,-4.88281 -2.48047,-8.32031 0,-3.43749 0.82682,-6.21092 2.48047,-8.32032 1.66666,-2.10935 3.82161,-3.16404 6.46484,-3.16406 1.61457,2e-5 2.99478,0.31903 4.14063,0.95703 1.15884,0.62502 2.11587,1.58856 2.87109,2.89063 m -12.24609,7.63672 c -10e-6,2.64323 0.54036,4.72006 1.62109,6.23047 1.09374,1.49739 2.59114,2.24609 4.49219,2.24609 1.90103,0 3.39842,-0.7487 4.49219,-2.24609 1.09373,-1.51041 1.6406,-3.58724 1.64062,-6.23047 -2e-5,-2.64322 -0.54689,-4.71353 -1.64062,-6.21094 -1.09377,-1.5104 -2.59116,-2.26561 -4.49219,-2.26563 -1.90105,2e-5 -3.39845,0.75523 -4.49219,2.26563 -1.08073,1.49741 -1.6211,3.56772 -1.62109,6.21094" />
        <path
           id="path4002"
           style=""
           d="m 257.77345,540.87225 0,-13.24218 3.59375,0 0,13.10546 c 0,2.07032 0.40364,3.62631 1.21094,4.66797 0.80728,1.02865 2.01822,1.54297 3.63281,1.54297 1.94009,0 3.47004,-0.61848 4.58985,-1.85547 1.13279,-1.23697 1.6992,-2.92317 1.69922,-5.05859 l 0,-12.40234 3.59375,0 0,21.875 -3.59375,0 0,-3.35938 c -0.87242,1.32813 -1.88804,2.31771 -3.04688,2.96875 -1.14585,0.63802 -2.48048,0.95703 -4.00391,0.95703 -2.51303,0 -4.42058,-0.78125 -5.72265,-2.34375 -1.30209,-1.56249 -1.95313,-3.84765 -1.95313,-6.85547 m 9.04297,-13.76953 0,0" />
        <path
           id="path4004"
           style=""
           d="m 283.53517,519.11444 3.59375,0 0,30.39063 -3.59375,0 0,-30.39063" />
        <path
           id="path4006"
           style=""
           d="m 304.57033,538.50897 c -2.90366,10e-6 -4.91538,0.33204 -6.03516,0.9961 -1.1198,0.66407 -1.67969,1.79688 -1.67969,3.39843 0,1.27605 0.41666,2.29167 1.25,3.04688 0.84635,0.74219 1.99218,1.11328 3.4375,1.11328 1.99218,0 3.58723,-0.70312 4.78516,-2.10938 1.21092,-1.41926 1.81639,-3.30077 1.81641,-5.64453 l 0,-0.80078 -3.57422,0 m 7.16797,-1.48437 0,12.48047 -3.59375,0 0,-3.32032 c -0.82033,1.32813 -1.84247,2.3112 -3.06641,2.94922 -1.22397,0.625 -2.72137,0.9375 -4.49219,0.9375 -2.23959,0 -4.02344,-0.625 -5.35156,-1.875 -1.31511,-1.26302 -1.97266,-2.94921 -1.97266,-5.05859 0,-2.46093 0.82031,-4.3164 2.46094,-5.56641 1.65364,-1.24998 4.11458,-1.87498 7.38281,-1.875 l 5.03907,0 0,-0.35156 c -2e-5,-1.65363 -0.5469,-2.92967 -1.64063,-3.82813 -1.08074,-0.91143 -2.60418,-1.36716 -4.57031,-1.36718 -1.25001,2e-5 -2.46746,0.14976 -3.65234,0.44922 -1.18491,0.29949 -2.32423,0.74871 -3.41797,1.34765 l 0,-3.32031 c 1.3151,-0.50779 2.59114,-0.8854 3.82812,-1.13281 1.23697,-0.2604 2.4414,-0.39061 3.61328,-0.39063 3.16405,2e-5 5.52733,0.82034 7.08985,2.46094 1.56248,1.64064 2.34373,4.12762 2.34375,7.46094" />
        <path
           id="path4008"
           style=""
           d="m 331.83595,530.98944 c -0.40366,-0.23436 -0.84637,-0.40363 -1.32812,-0.50781 -0.46877,-0.11717 -0.9896,-0.17576 -1.5625,-0.17578 -2.03126,2e-5 -3.59376,0.66408 -4.6875,1.99218 -1.08074,1.31512 -1.6211,3.20965 -1.6211,5.6836 l 0,11.52344 -3.61328,0 0,-21.875 3.61328,0 0,3.39843 c 0.7552,-1.3281 1.73828,-2.31117 2.94922,-2.94922 1.21093,-0.65101 2.68228,-0.97654 4.41407,-0.97656 0.24738,2e-5 0.52081,0.0196 0.82031,0.0586 0.29946,0.0261 0.63149,0.0716 0.99609,0.13671 l 0.0195,3.69141" />
        <path
           id="path4010"
           style=""
           d="m 335.64455,527.63007 3.59375,0 0,21.875 -3.59375,0 0,-21.875 m 0,-8.51563 3.59375,0 0,4.55078 -3.59375,0 0,-4.55078" />
        <path
           id="path4012"
           style=""
           d="m 350.29298,521.41913 0,6.21094 7.40235,0 0,2.79296 -7.40235,0 0,11.875 c 0,1.78386 0.24088,2.9297 0.72266,3.4375 0.49478,0.50782 1.49088,0.76173 2.98828,0.76172 l 3.69141,0 0,3.00782 -3.69141,0 c -2.77344,0 -4.6875,-0.51433 -5.74219,-1.54297 -1.05469,-1.04167 -1.58203,-2.92969 -1.58203,-5.66407 l 0,-11.875 -2.63672,0 0,-2.79296 2.63672,0 0,-6.21094 3.61328,0" />
        <path
           id="path4014"
           style=""
           d="m 371.54298,551.53632 c -1.01563,2.60416 -2.00522,4.30337 -2.96875,5.09765 -0.96355,0.79427 -2.25261,1.1914 -3.86718,1.19141 l -2.8711,0 0,-3.00781 2.10938,0 c 0.98957,-1e-5 1.7578,-0.23438 2.30469,-0.70313 0.54686,-0.46875 1.15233,-1.57552 1.8164,-3.32031 l 0.64453,-1.64063 -8.84765,-21.52343 3.80859,0 6.83594,17.10937 6.83594,-17.10937 3.80859,0 -9.60938,23.90625" />
      </g>
    </g>
    <g
       id="g4281">
      <path
         inkscape:connector-curvature="0"
         id="path3091"
         d="m 856.07114,402.36217 c 0,113.80993 -92.26119,206.07112 -206.07113,206.07112 -113.80996,0 -206.07113,-92.26119 -206.07113,-206.07112 0,-113.80994 92.26117,-206.07113 206.07113,-206.07113 113.80994,0 206.07113,92.26119 206.07113,206.07113 z"
         style="fill:#3771c8;fill-opacity:1" />
      <g
         id="text3248"
         style="font-size:105.76177979px;font-style:normal;font-weight:normal;line-height:125%;letter-spacing:0px;word-spacing:0px;fill:#ffffff;fill-opacity:1;stroke:none;font-family:Sans">
        <path
           id="path4067"
           style=""
           d="m 601.89595,369.69892 0,10.99964 c -3.51168,-3.27056 -7.26429,-5.71493 -11.25784,-7.33309 -3.95924,-1.61803 -8.17662,-2.42708 -12.65217,-2.42715 -8.81352,7e-5 -15.56133,2.70264 -20.24346,8.10771 -4.68219,5.37077 -7.02326,13.15142 -7.02325,23.34196 -1e-5,10.15619 2.34106,17.93683 7.02325,23.34195 4.68213,5.37073 11.42994,8.05608 20.24346,8.05608 4.47555,0 8.69293,-0.80905 12.65217,-2.42715 3.99355,-1.61809 7.74616,-4.06245 11.25784,-7.3331 l 0,10.89636 c -3.64939,2.47879 -7.5225,4.33789 -11.61933,5.57728 -4.06252,1.2394 -8.36597,1.85909 -12.91038,1.85909 -11.67101,0 -20.86318,-3.56326 -27.57655,-10.68979 -6.71341,-7.16093 -10.0701,-16.92117 -10.0701,-29.28072 0,-12.39391 3.35669,-22.15414 10.0701,-29.28073 6.71337,-7.16088 15.90554,-10.74135 27.57655,-10.74143 4.61326,8e-5 8.95114,0.61978 13.01366,1.85909 4.09683,1.20505 7.93551,3.02971 11.51605,5.474" />
        <path
           id="path4069"
           style=""
           d="m 618.11139,363.76015 15.54409,0 19.6754,52.46776 19.7787,-52.46776 15.54409,0 0,77.10075 -10.17338,0 0,-67.702 -19.88197,52.88089 -10.48323,0 -19.88197,-52.88089 0,67.702 -10.12173,0 0,-77.10075" />
        <path
           id="path4071"
           style=""
           d="m 755.63268,366.29058 0,10.17338 c -3.95924,-1.89346 -7.69463,-3.30499 -11.20621,-4.2346 -3.51166,-0.92948 -6.90278,-1.39426 -10.17337,-1.39433 -5.6806,7e-5 -10.07012,1.10176 -13.16858,3.30506 -3.06408,2.20344 -4.59611,5.33635 -4.5961,9.39875 -10e-6,3.4084 1.0156,5.99047 3.04685,7.74623 2.06564,1.72143 5.95596,3.11575 11.67098,4.18296 l 6.30026,1.29103 c 7.78061,1.48044 13.51281,4.09694 17.19662,7.84951 3.71813,3.71822 5.57722,8.71023 5.57728,14.97604 -6e-5,7.47081 -2.51328,13.13416 -7.53966,16.99005 -4.99206,3.8559 -12.32514,5.78384 -21.99927,5.78384 -3.64936,0 -7.53969,-0.41313 -11.67098,-1.23939 -4.09691,-0.82626 -8.34872,-2.04845 -12.75545,-3.66655 l 0,-10.74143 c 4.23459,2.37552 8.38312,4.16576 12.4456,5.37072 4.06244,1.20497 8.05605,1.80746 11.98083,1.80745 5.95595,1e-5 10.55203,-1.17053 13.78828,-3.51162 3.23615,-2.34107 4.85425,-5.68055 4.8543,-10.01845 -5e-5,-3.78702 -1.17059,-6.7478 -3.51163,-8.88234 -2.30669,-2.13448 -6.11095,-3.73537 -11.41277,-4.80266 l -6.3519,-1.23939 c -7.78067,-1.54921 -13.40959,-3.97636 -16.88677,-7.28145 -3.4772,-3.30501 -5.2158,-7.9011 -5.21579,-13.78828 -10e-6,-6.81662 2.39271,-12.18733 7.17817,-16.11215 4.81985,-3.92468 11.44717,-5.88705 19.88197,-5.88713 3.61487,8e-5 7.29863,0.32714 11.05128,0.98119 3.75257,0.6542 7.59125,1.63539 11.51606,2.94356" />
      </g>
    </g>
  </g>
  <g
     inkscape:groupmode="layer"
     id="layer2"
     inkscape:label="Layer" />
</svg>
