<?xml version="1.0" encoding="UTF-8" standalone="no"?>
<!-- Created with Inkscape (http://www.inkscape.org/) -->

<svg
   xmlns:dc="http://purl.org/dc/elements/1.1/"
   xmlns:cc="http://creativecommons.org/ns#"
   xmlns:rdf="http://www.w3.org/1999/02/22-rdf-syntax-ns#"
   xmlns:svg="http://www.w3.org/2000/svg"
   xmlns="http://www.w3.org/2000/svg"
   xmlns:xlink="http://www.w3.org/1999/xlink"
   xmlns:sodipodi="http://sodipodi.sourceforge.net/DTD/sodipodi-0.dtd"
   xmlns:inkscape="http://www.inkscape.org/namespaces/inkscape"
   width="744.09448819"
   height="1052.3622047"
   id="svg4805"
   version="1.1"
   inkscape:version="0.48.1 r9760"
   sodipodi:docname="contain.pdf">
  <defs
     id="defs4807">
    <linearGradient
       inkscape:collect="always"
       id="linearGradient5337">
      <stop
         style="stop-color:#ffffff;stop-opacity:1;"
         offset="0"
         id="stop5339" />
      <stop
         style="stop-color:#ffffff;stop-opacity:0;"
         offset="1"
         id="stop5341" />
    </linearGradient>
    <radialGradient
       inkscape:collect="always"
       xlink:href="#linearGradient5337"
       id="radialGradient5343"
       cx="285.71429"
       cy="706.64789"
       fx="285.71429"
       fy="706.64789"
       r="1414.2858"
       gradientTransform="matrix(1,0,0,0.50505048,0,349.75503)"
       gradientUnits="userSpaceOnUse" />
    <radialGradient
       inkscape:collect="always"
       xlink:href="#linearGradient5337"
       id="radialGradient5362"
       gradientUnits="userSpaceOnUse"
       gradientTransform="matrix(1,0,0,0.50505048,0,349.75503)"
       cx="285.71429"
       cy="706.64789"
       fx="285.71429"
       fy="706.64789"
       r="1414.2858" />
    <radialGradient
       inkscape:collect="always"
       xlink:href="#linearGradient5337"
       id="radialGradient5372"
       gradientUnits="userSpaceOnUse"
       gradientTransform="matrix(1,0,0,0.50505048,0,349.75503)"
       cx="285.71429"
       cy="706.64789"
       fx="285.71429"
       fy="706.64789"
       r="1414.2858" />
    <radialGradient
       inkscape:collect="always"
       xlink:href="#linearGradient5337"
       id="radialGradient5382"
       gradientUnits="userSpaceOnUse"
       gradientTransform="matrix(1,0,0,0.50505048,0,349.75503)"
       cx="285.71429"
       cy="706.64789"
       fx="285.71429"
       fy="706.64789"
       r="1414.2858" />
    <radialGradient
       inkscape:collect="always"
       xlink:href="#linearGradient5337"
       id="radialGradient5387"
       gradientUnits="userSpaceOnUse"
       gradientTransform="matrix(1,0,0,0.50505048,0,349.75503)"
       cx="285.71429"
       cy="706.64789"
       fx="285.71429"
       fy="706.64789"
       r="1414.2858" />
    <radialGradient
       inkscape:collect="always"
       xlink:href="#linearGradient5337"
       id="radialGradient5403"
       gradientUnits="userSpaceOnUse"
       gradientTransform="matrix(1,0,0,0.50505048,0,349.75503)"
       cx="285.71429"
       cy="706.64789"
       fx="285.71429"
       fy="706.64789"
       r="1414.2858" />
    <radialGradient
       inkscape:collect="always"
       xlink:href="#linearGradient5337"
       id="radialGradient5411"
       gradientUnits="userSpaceOnUse"
       gradientTransform="matrix(1,0,0,0.50505048,0,349.75503)"
       cx="285.71429"
       cy="706.64789"
       fx="285.71429"
       fy="706.64789"
       r="1414.2858" />
    <radialGradient
       inkscape:collect="always"
       xlink:href="#linearGradient5337"
       id="radialGradient5419"
       gradientUnits="userSpaceOnUse"
       gradientTransform="matrix(1,0,0,0.50505048,0,349.75503)"
       cx="285.71429"
       cy="706.64789"
       fx="285.71429"
       fy="706.64789"
       r="1414.2858" />
    <radialGradient
       inkscape:collect="always"
       xlink:href="#linearGradient5337"
       id="radialGradient5429"
       gradientUnits="userSpaceOnUse"
       gradientTransform="matrix(1,0,0,0.50505048,0,349.75503)"
       cx="285.71429"
       cy="706.64789"
       fx="285.71429"
       fy="706.64789"
       r="1414.2858" />
    <radialGradient
       inkscape:collect="always"
       xlink:href="#linearGradient5337"
       id="radialGradient5437"
       gradientUnits="userSpaceOnUse"
       gradientTransform="matrix(1,0,0,0.50505048,0,349.75503)"
       cx="285.71429"
       cy="706.64789"
       fx="285.71429"
       fy="706.64789"
       r="1414.2858" />
  </defs>
  <sodipodi:namedview
     id="base"
     pagecolor="#ffffff"
     bordercolor="#666666"
     borderopacity="1.0"
     inkscape:pageopacity="0.0"
     inkscape:pageshadow="2"
     inkscape:zoom="0.39414102"
     inkscape:cx="241.03637"
     inkscape:cy="345.71429"
     inkscape:document-units="px"
     inkscape:current-layer="layer1"
     showgrid="false"
     showborder="false"
     inkscape:window-width="1366"
     inkscape:window-height="754"
     inkscape:window-x="0"
     inkscape:window-y="14"
     inkscape:window-maximized="0" />
  <metadata
     id="metadata4810">
    <rdf:RDF>
      <cc:Work
         rdf:about="">
        <dc:format>image/svg+xml</dc:format>
        <dc:type
           rdf:resource="http://purl.org/dc/dcmitype/StillImage" />
        <dc:title></dc:title>
      </cc:Work>
    </rdf:RDF>
  </metadata>
  <g
     inkscape:label="Layer 1"
     inkscape:groupmode="layer"
     id="layer1">
    <g
       id="g5349">
      <g
         id="g5345">
        <path
           sodipodi:type="arc"
           style="opacity:1;fill:#5fd35f;fill-opacity:1;stroke:#2ca02c;stroke-width:10;stroke-miterlimit:4;stroke-dasharray:none;stroke-opacity:1"
           id="path4813"
           sodipodi:cx="285.71429"
           sodipodi:cy="706.64789"
           sodipodi:rx="1414.2858"
           sodipodi:ry="714.28571"
           d="m 1700.0001,706.64789 a 1414.2858,714.28571 0 1 1 -2828.5716,0 1414.2858,714.28571 0 1 1 2828.5716,0 z" />
        <path
           d="m 1700.0001,706.64789 a 1414.2858,714.28571 0 1 1 -2828.5716,0 1414.2858,714.28571 0 1 1 2828.5716,0 z"
           sodipodi:ry="714.28571"
           sodipodi:rx="1414.2858"
           sodipodi:cy="706.64789"
           sodipodi:cx="285.71429"
           id="path5327"
           style="fill:url(#radialGradient5343);fill-opacity:1;stroke:none"
           sodipodi:type="arc"
           transform="matrix(0.88278307,0,0,0.88278307,33.490552,82.831096)" />
      </g>
    </g>
    <g
       id="g5354"
       transform="matrix(0.40204988,0,0,0.71498571,918.0374,198.47219)">
      <g
         id="g5356">
        <path
           d="m 1700.0001,706.64789 c 0,394.48911 -633.1973,714.28571 -1414.28581,714.28571 -781.08846,0 -1414.28579,-319.7966 -1414.28579,-714.28571 0,-394.4891 633.19733,-714.2857074 1414.28579,-714.2857074 781.08851,0 1414.28581,319.7966074 1414.28581,714.2857074 z"
           sodipodi:ry="714.28571"
           sodipodi:rx="1414.2858"
           sodipodi:cy="706.64789"
           sodipodi:cx="285.71429"
           id="path5358"
           style="fill:#5fd35f;fill-opacity:1;stroke:#2ca02c;stroke-width:10;stroke-miterlimit:4;stroke-opacity:1;stroke-dasharray:none"
           sodipodi:type="arc" />
        <path
           transform="matrix(0.88278307,0,0,0.88278307,33.490552,82.831096)"
           sodipodi:type="arc"
           style="fill:url(#radialGradient5362);fill-opacity:1;stroke:none"
           id="path5360"
           sodipodi:cx="285.71429"
           sodipodi:cy="706.64789"
           sodipodi:rx="1414.2858"
           sodipodi:ry="714.28571"
           d="m 1700.0001,706.64789 c 0,394.48911 -633.1973,714.28571 -1414.28581,714.28571 -781.08846,0 -1414.28579,-319.7966 -1414.28579,-714.28571 0,-394.4891 633.19733,-714.2857074 1414.28579,-714.2857074 781.08851,0 1414.28581,319.7966074 1414.28581,714.2857074 z" />
      </g>
    </g>
    <g
       transform="matrix(0.48061344,0,0,0.74855377,-438.95706,191.24295)"
       id="g5364">
      <g
         id="g5366">
        <path
           sodipodi:type="arc"
           style="fill:#5fd35f;fill-opacity:1;stroke:#2ca02c;stroke-width:10;stroke-miterlimit:4;stroke-opacity:1;stroke-dasharray:none"
           id="path5368"
           sodipodi:cx="285.71429"
           sodipodi:cy="706.64789"
           sodipodi:rx="1414.2858"
           sodipodi:ry="714.28571"
           d="m 1700.0001,706.64789 c 0,394.48911 -633.1973,714.28571 -1414.28581,714.28571 -781.08846,0 -1414.28579,-319.7966 -1414.28579,-714.28571 0,-394.4891 633.19733,-714.2857074 1414.28579,-714.2857074 781.08851,0 1414.28581,319.7966074 1414.28581,714.2857074 z" />
        <path
           d="m 1700.0001,706.64789 c 0,394.48911 -633.1973,714.28571 -1414.28581,714.28571 -781.08846,0 -1414.28579,-319.7966 -1414.28579,-714.28571 0,-394.4891 633.19733,-714.2857074 1414.28579,-714.2857074 781.08851,0 1414.28581,319.7966074 1414.28581,714.2857074 z"
           sodipodi:ry="714.28571"
           sodipodi:rx="1414.2858"
           sodipodi:cy="706.64789"
           sodipodi:cx="285.71429"
           id="path5370"
           style="fill:url(#radialGradient5372);fill-opacity:1;stroke:none"
           sodipodi:type="arc"
           transform="matrix(0.88278307,0,0,0.88278307,33.490552,82.831096)" />
      </g>
    </g>
    <g
       id="g5393">
      <path
         transform="matrix(0.11618403,0,0,0.23035568,370.21774,1028.3776)"
         sodipodi:type="arc"
         style="fill:#2a7fff;fill-opacity:1;stroke:#0055d4;stroke-width:10;stroke-miterlimit:4;stroke-opacity:1;stroke-dasharray:none"
         id="path5378"
         sodipodi:cx="285.71429"
         sodipodi:cy="706.64789"
         sodipodi:rx="1414.2858"
         sodipodi:ry="714.28571"
         d="m 1700.0001,706.64789 a 1414.2858,714.28571 0 1 1 -2828.5716,0 1414.2858,714.28571 0 1 1 2828.5716,0 z" />
      <path
         d="m 1700.0001,706.64789 a 1414.2858,714.28571 0 1 1 -2828.5716,0 1414.2858,714.28571 0 1 1 2828.5716,0 z"
         sodipodi:ry="714.28571"
         sodipodi:rx="1414.2858"
         sodipodi:cy="706.64789"
         sodipodi:cx="285.71429"
         id="path5380"
         style="fill:url(#radialGradient5387);fill-opacity:1;stroke:none"
         sodipodi:type="arc"
         transform="matrix(0.10256529,0,0,0.20335409,374.10881,1047.4582)" />
    </g>
    <g
       id="g5397"
       transform="translate(433.85487,-479.5238)">
      <path
         d="m 1700.0001,706.64789 c 0,394.48911 -633.1973,714.28571 -1414.28581,714.28571 -781.08846,0 -1414.28579,-319.7966 -1414.28579,-714.28571 0,-394.4891 633.19733,-714.2857074 1414.28579,-714.2857074 781.08851,0 1414.28581,319.7966074 1414.28581,714.2857074 z"
         sodipodi:ry="714.28571"
         sodipodi:rx="1414.2858"
         sodipodi:cy="706.64789"
         sodipodi:cx="285.71429"
         id="path5399"
         style="fill:#2a7fff;fill-opacity:1;stroke:#0055d4;stroke-width:10;stroke-miterlimit:4;stroke-opacity:1;stroke-dasharray:none"
         sodipodi:type="arc"
         transform="matrix(0.11618403,0,0,0.23035568,370.21774,1028.3776)" />
      <path
         transform="matrix(0.10256529,0,0,0.20335409,374.10881,1047.4582)"
         sodipodi:type="arc"
         style="fill:url(#radialGradient5403);fill-opacity:1;stroke:none"
         id="path5401"
         sodipodi:cx="285.71429"
         sodipodi:cy="706.64789"
         sodipodi:rx="1414.2858"
         sodipodi:ry="714.28571"
         d="m 1700.0001,706.64789 c 0,394.48911 -633.1973,714.28571 -1414.28581,714.28571 -781.08846,0 -1414.28579,-319.7966 -1414.28579,-714.28571 0,-394.4891 633.19733,-714.2857074 1414.28579,-714.2857074 781.08851,0 1414.28581,319.7966074 1414.28581,714.2857074 z" />
    </g>
    <g
       transform="translate(877.85839,-482.06096)"
       id="g5405">
      <path
         transform="matrix(0.11618403,0,0,0.23035568,370.21774,1028.3776)"
         sodipodi:type="arc"
         style="fill:#2a7fff;fill-opacity:1;stroke:#0055d4;stroke-width:10;stroke-miterlimit:4;stroke-opacity:1;stroke-dasharray:none"
         id="path5407"
         sodipodi:cx="285.71429"
         sodipodi:cy="706.64789"
         sodipodi:rx="1414.2858"
         sodipodi:ry="714.28571"
         d="m 1700.0001,706.64789 c 0,394.48911 -633.1973,714.28571 -1414.28581,714.28571 -781.08846,0 -1414.28579,-319.7966 -1414.28579,-714.28571 0,-394.4891 633.19733,-714.2857074 1414.28579,-714.2857074 781.08851,0 1414.28581,319.7966074 1414.28581,714.2857074 z" />
      <path
         d="m 1700.0001,706.64789 c 0,394.48911 -633.1973,714.28571 -1414.28581,714.28571 -781.08846,0 -1414.28579,-319.7966 -1414.28579,-714.28571 0,-394.4891 633.19733,-714.2857074 1414.28579,-714.2857074 781.08851,0 1414.28581,319.7966074 1414.28581,714.2857074 z"
         sodipodi:ry="714.28571"
         sodipodi:rx="1414.2858"
         sodipodi:cy="706.64789"
         sodipodi:cx="285.71429"
         id="path5409"
         style="fill:url(#radialGradient5411);fill-opacity:1;stroke:none"
         sodipodi:type="arc"
         transform="matrix(0.10256529,0,0,0.20335409,374.10881,1047.4582)" />
    </g>
    <g
       id="g5413"
       transform="translate(-347.59133,-469.37515)">
      <path
         d="m 1700.0001,706.64789 c 0,394.48911 -633.1973,714.28571 -1414.28581,714.28571 -781.08846,0 -1414.28579,-319.7966 -1414.28579,-714.28571 0,-394.4891 633.19733,-714.2857074 1414.28579,-714.2857074 781.08851,0 1414.28581,319.7966074 1414.28581,714.2857074 z"
         sodipodi:ry="714.28571"
         sodipodi:rx="1414.2858"
         sodipodi:cy="706.64789"
         sodipodi:cx="285.71429"
         id="path5415"
         style="fill:#2a7fff;fill-opacity:1;stroke:#0055d4;stroke-width:10;stroke-miterlimit:4;stroke-opacity:1;stroke-dasharray:none"
         sodipodi:type="arc"
         transform="matrix(0.11618403,0,0,0.23035568,370.21774,1028.3776)" />
      <path
         transform="matrix(0.10256529,0,0,0.20335409,374.10881,1047.4582)"
         sodipodi:type="arc"
         style="fill:url(#radialGradient5419);fill-opacity:1;stroke:none"
         id="path5417"
         sodipodi:cx="285.71429"
         sodipodi:cy="706.64789"
         sodipodi:rx="1414.2858"
         sodipodi:ry="714.28571"
         d="m 1700.0001,706.64789 c 0,394.48911 -633.1973,714.28571 -1414.28581,714.28571 -781.08846,0 -1414.28579,-319.7966 -1414.28579,-714.28571 0,-394.4891 633.19733,-714.2857074 1414.28579,-714.2857074 781.08851,0 1414.28581,319.7966074 1414.28581,714.2857074 z" />
    </g>
    <g
       transform="matrix(0.25207084,0,0,0.50219214,-622.30114,382.38179)"
       id="g5421">
      <g
         id="g5423">
        <path
           sodipodi:type="arc"
           style="fill:#5fd35f;fill-opacity:1;stroke:#2ca02c;stroke-width:10;stroke-miterlimit:4;stroke-opacity:1;stroke-dasharray:none"
           id="path5425"
           sodipodi:cx="285.71429"
           sodipodi:cy="706.64789"
           sodipodi:rx="1414.2858"
           sodipodi:ry="714.28571"
           d="m 1700.0001,706.64789 c 0,394.48911 -633.1973,714.28571 -1414.28581,714.28571 -781.08846,0 -1414.28579,-319.7966 -1414.28579,-714.28571 0,-394.4891 633.19733,-714.2857074 1414.28579,-714.2857074 781.08851,0 1414.28581,319.7966074 1414.28581,714.2857074 z" />
        <path
           d="m 1700.0001,706.64789 c 0,394.48911 -633.1973,714.28571 -1414.28581,714.28571 -781.08846,0 -1414.28579,-319.7966 -1414.28579,-714.28571 0,-394.4891 633.19733,-714.2857074 1414.28579,-714.2857074 781.08851,0 1414.28581,319.7966074 1414.28581,714.2857074 z"
           sodipodi:ry="714.28571"
           sodipodi:rx="1414.2858"
           sodipodi:cy="706.64789"
           sodipodi:cx="285.71429"
           id="path5427"
           style="fill:url(#radialGradient5429);fill-opacity:1;stroke:none"
           sodipodi:type="arc"
           transform="matrix(0.88278307,0,0,0.88278307,33.490552,82.831096)" />
      </g>
    </g>
    <g
       transform="translate(-961.58477,-451.61501)"
       id="g5431">
      <path
         transform="matrix(0.11618403,0,0,0.23035568,370.21774,1028.3776)"
         sodipodi:type="arc"
         style="fill:#2a7fff;fill-opacity:1;stroke:#0055d4;stroke-width:10;stroke-miterlimit:4;stroke-opacity:1;stroke-dasharray:none"
         id="path5433"
         sodipodi:cx="285.71429"
         sodipodi:cy="706.64789"
         sodipodi:rx="1414.2858"
         sodipodi:ry="714.28571"
         d="m 1700.0001,706.64789 c 0,394.48911 -633.1973,714.28571 -1414.28581,714.28571 -781.08846,0 -1414.28579,-319.7966 -1414.28579,-714.28571 0,-394.4891 633.19733,-714.2857074 1414.28579,-714.2857074 781.08851,0 1414.28581,319.7966074 1414.28581,714.2857074 z" />
      <path
         d="m 1700.0001,706.64789 c 0,394.48911 -633.1973,714.28571 -1414.28581,714.28571 -781.08846,0 -1414.28579,-319.7966 -1414.28579,-714.28571 0,-394.4891 633.19733,-714.2857074 1414.28579,-714.2857074 781.08851,0 1414.28581,319.7966074 1414.28581,714.2857074 z"
         sodipodi:ry="714.28571"
         sodipodi:rx="1414.2858"
         sodipodi:cy="706.64789"
         sodipodi:cx="285.71429"
         id="path5435"
         style="fill:url(#radialGradient5437);fill-opacity:1;stroke:none"
         sodipodi:type="arc"
         transform="matrix(0.10256529,0,0,0.20335409,374.10881,1047.4582)" />
    </g>
    <text
       xml:space="preserve"
       style="font-size:144px;font-style:normal;font-variant:normal;font-weight:normal;font-stretch:normal;line-height:125%;letter-spacing:0px;word-spacing:0px;fill:#ffffff;fill-opacity:1;stroke:none;font-family:Sans;-inkscape-font-specification:'micro.pcf'"
       x="301.92239"
       y="156.74365"
       id="text5439"
       sodipodi:linespacing="125%"><tspan
         sodipodi:role="line"
         id="tspan5441"
         x="301.92239"
         y="156.74365">a</tspan></text>
    <text
       xml:space="preserve"
       style="font-size:144px;font-style:normal;font-variant:normal;font-weight:normal;font-stretch:normal;line-height:125%;letter-spacing:0px;word-spacing:0px;fill:#ffffff;fill-opacity:1;stroke:none;font-family:Sans;-inkscape-font-specification:'micro.pcf'"
       x="-248.64197"
       y="397.77411"
       id="text5443"
       sodipodi:linespacing="125%"><tspan
         sodipodi:role="line"
         id="tspan5445"
         x="-248.64197"
         y="397.77411">b</tspan></text>
    <text
       xml:space="preserve"
       style="font-size:144px;font-style:normal;font-variant:normal;font-weight:normal;font-stretch:normal;line-height:125%;letter-spacing:0px;word-spacing:0px;fill:#ffffff;fill-opacity:1;stroke:none;font-family:Sans;-inkscape-font-specification:'micro.pcf'"
       x="1004.7165"
       y="357.17953"
       id="text5447"
       sodipodi:linespacing="125%"><tspan
         sodipodi:role="line"
         id="tspan5449"
         x="1004.7165"
         y="357.17953">c</tspan></text>
    <text
       xml:space="preserve"
       style="font-size:144px;font-style:normal;font-variant:normal;font-weight:normal;font-stretch:normal;line-height:125%;letter-spacing:0px;word-spacing:0px;fill:#ffffff;fill-opacity:1;stroke:none;font-family:Sans;-inkscape-font-specification:'micro.pcf'"
       x="383.1116"
       y="1247.7238"
       id="text5451"
       sodipodi:linespacing="125%"><tspan
         sodipodi:role="line"
         id="tspan5453"
         x="383.1116"
         y="1247.7238">d</tspan></text>
    <text
       xml:space="preserve"
       style="font-size:144px;font-style:normal;font-variant:normal;font-weight:normal;font-stretch:normal;line-height:125%;letter-spacing:0px;word-spacing:0px;fill:#ffffff;fill-opacity:1;stroke:none;font-family:Sans;-inkscape-font-specification:'micro.pcf'"
       x="25.371632"
       y="763.12561"
       id="text5455"
       sodipodi:linespacing="125%"><tspan
         sodipodi:role="line"
         id="tspan5457"
         x="25.371632"
         y="763.12561">e</tspan></text>
    <text
       xml:space="preserve"
       style="font-size:144px;font-style:normal;font-variant:normal;font-weight:normal;font-stretch:normal;line-height:125%;letter-spacing:0px;word-spacing:0px;fill:#ffffff;fill-opacity:1;stroke:none;font-family:Sans;-inkscape-font-specification:'micro.pcf'"
       x="-555.63867"
       y="517.02081"
       id="text5459"
       sodipodi:linespacing="125%"><tspan
         sodipodi:role="line"
         id="tspan5461"
         x="-555.63867"
         y="517.02081">f</tspan></text>
    <text
       xml:space="preserve"
       style="font-size:144px;font-style:normal;font-variant:normal;font-weight:normal;font-stretch:normal;line-height:125%;letter-spacing:0px;word-spacing:0px;fill:#ffffff;fill-opacity:1;stroke:none;font-family:Sans;-inkscape-font-specification:'micro.pcf'"
       x="804.2807"
       y="752.97693"
       id="text5463"
       sodipodi:linespacing="125%"><tspan
         sodipodi:role="line"
         id="tspan5465"
         x="804.2807"
         y="752.97693">g</tspan></text>
    <text
       xml:space="preserve"
       style="font-size:144px;font-style:normal;font-variant:normal;font-weight:normal;font-stretch:normal;line-height:125%;letter-spacing:0px;word-spacing:0px;fill:#ffffff;fill-opacity:1;stroke:none;font-family:Sans;-inkscape-font-specification:'micro.pcf'"
       x="1248.2841"
       y="752.97693"
       id="text5467"
       sodipodi:linespacing="125%"><tspan
         sodipodi:role="line"
         id="tspan5469"
         x="1248.2841"
         y="752.97693">h</tspan></text>
    <text
       xml:space="preserve"
       style="font-size:144px;font-style:normal;font-variant:normal;font-weight:normal;font-stretch:normal;line-height:125%;letter-spacing:0px;word-spacing:0px;fill:#ffffff;fill-opacity:1;stroke:none;font-family:Sans;-inkscape-font-specification:'micro.pcf'"
       x="-596.23334"
       y="788.49719"
       id="text5471"
       sodipodi:linespacing="125%"><tspan
         sodipodi:role="line"
         id="tspan5473"
         x="-596.23334"
         y="788.49719">i</tspan></text>
  </g>
</svg>
