<?xml version="1.0" encoding="UTF-8" standalone="no"?>
<!-- Created with Inkscape (http://www.inkscape.org/) -->

<svg
   xmlns:dc="http://purl.org/dc/elements/1.1/"
   xmlns:cc="http://creativecommons.org/ns#"
   xmlns:rdf="http://www.w3.org/1999/02/22-rdf-syntax-ns#"
   xmlns:svg="http://www.w3.org/2000/svg"
   xmlns="http://www.w3.org/2000/svg"
   xmlns:xlink="http://www.w3.org/1999/xlink"
   xmlns:sodipodi="http://sodipodi.sourceforge.net/DTD/sodipodi-0.dtd"
   xmlns:inkscape="http://www.inkscape.org/namespaces/inkscape"
   width="1000"
   height="500"
   id="svg2"
   version="1.1"
   inkscape:version="0.48.1 r9760"
   sodipodi:docname="html.pdf"
   inkscape:export-filename="/home/fakedrake/Documents/plone-pres/scripts.png"
   inkscape:export-xdpi="90"
   inkscape:export-ydpi="90">
  <defs
     id="defs4">
    <linearGradient
       inkscape:collect="always"
       id="linearGradient3761">
      <stop
         style="stop-color:#cccccc;stop-opacity:1;"
         offset="0"
         id="stop3763" />
      <stop
         style="stop-color:#cccccc;stop-opacity:0;"
         offset="1"
         id="stop3765" />
    </linearGradient>
    <linearGradient
       inkscape:collect="always"
       xlink:href="#linearGradient3761"
       id="linearGradient3767"
       x1="234.27232"
       y1="752.28442"
       x2="228.5625"
       y2="546.57019"
       gradientUnits="userSpaceOnUse" />
    <filter
       inkscape:collect="always"
       id="filter3905"
       x="-0.041887227"
       width="1.0837744"
       y="-0.23037975"
       height="1.4607595"
       color-interpolation-filters="sRGB">
      <feGaussianBlur
         inkscape:collect="always"
         stdDeviation="2.7426161"
         id="feGaussianBlur3907" />
    </filter>
    <filter
       inkscape:collect="always"
       id="filter3909"
       x="-0.041887227"
       width="1.0837744"
       y="-0.23037975"
       height="1.4607595"
       color-interpolation-filters="sRGB">
      <feGaussianBlur
         inkscape:collect="always"
         stdDeviation="2.7426161"
         id="feGaussianBlur3911" />
    </filter>
    <filter
       inkscape:collect="always"
       id="filter3913"
       x="-0.041887227"
       width="1.0837744"
       y="-0.23037975"
       height="1.4607595"
       color-interpolation-filters="sRGB">
      <feGaussianBlur
         inkscape:collect="always"
         stdDeviation="2.7426161"
         id="feGaussianBlur3915" />
    </filter>
    <filter
       inkscape:collect="always"
       id="filter3917"
       x="-0.041887227"
       width="1.0837744"
       y="-0.23037975"
       height="1.4607595"
       color-interpolation-filters="sRGB">
      <feGaussianBlur
         inkscape:collect="always"
         stdDeviation="2.7426161"
         id="feGaussianBlur3919" />
    </filter>
    <linearGradient
       inkscape:collect="always"
       xlink:href="#linearGradient3761"
       id="linearGradient3015"
       gradientUnits="userSpaceOnUse"
       x1="234.27232"
       y1="752.28442"
       x2="228.5625"
       y2="546.57019" />
    <linearGradient
       inkscape:collect="always"
       xlink:href="#linearGradient3761"
       id="linearGradient3031"
       gradientUnits="userSpaceOnUse"
       x1="234.27232"
       y1="752.28442"
       x2="228.5625"
       y2="546.57019" />
  </defs>
  <sodipodi:namedview
     id="base"
     pagecolor="#ffffff"
     bordercolor="#666666"
     borderopacity="1.0"
     inkscape:pageopacity="0.0"
     inkscape:pageshadow="2"
     inkscape:zoom="0.35"
     inkscape:cx="325.35918"
     inkscape:cy="260.70974"
     inkscape:document-units="px"
     inkscape:current-layer="layer1"
     showgrid="false"
     inkscape:window-width="1366"
     inkscape:window-height="754"
     inkscape:window-x="0"
     inkscape:window-y="14"
     inkscape:window-maximized="0"
     width="1000px" />
  <metadata
     id="metadata7">
    <rdf:RDF>
      <cc:Work
         rdf:about="">
        <dc:format>image/svg+xml</dc:format>
        <dc:type
           rdf:resource="http://purl.org/dc/dcmitype/StillImage" />
        <dc:title></dc:title>
      </cc:Work>
    </rdf:RDF>
  </metadata>
  <g
     inkscape:label="Layer 1"
     inkscape:groupmode="layer"
     id="layer1"
     transform="translate(0,-552.36218)">
    <g
       id="g3921"
       transform="translate(-40,151.42857)">
      <rect
         style="fill:#e6e6e6;fill-opacity:1"
         id="rect2987"
         width="225.71428"
         height="240"
         x="122.85715"
         y="506.64789" />
      <path
         sodipodi:nodetypes="ccccc"
         inkscape:connector-curvature="0"
         id="rect2985"
         d="m 348.5625,608.8884 c -59.93902,-42.49071 -158.6712,97.75832 -225.71875,63.79464 l 0,71.09375 225.71875,0 z"
         style="fill:url(#linearGradient3767);fill-opacity:1" />
      <path
         inkscape:connector-curvature="0"
         id="path3769"
         d="M 171.42857,535.21933 317.14286,529.50504 308.57143,546.6479 160,558.07647 z"
         style="fill:#666666;stroke:#000000;stroke-width:1px;stroke-linecap:butt;stroke-linejoin:miter;stroke-opacity:1;filter:url(#filter3905)" />
      <path
         style="fill:#666666;stroke:#000000;stroke-width:1px;stroke-linecap:butt;stroke-linejoin:miter;stroke-opacity:1;filter:url(#filter3917)"
         d="m 165.71428,592.36219 145.71429,-5.71429 -8.57143,17.14286 -148.57143,11.42857 z"
         id="path3771"
         inkscape:connector-curvature="0" />
      <path
         inkscape:connector-curvature="0"
         id="path3773"
         d="M 162.85714,652.36219 308.57143,646.6479 300,663.79076 151.42857,675.21933 z"
         style="fill:#666666;stroke:#000000;stroke-width:1px;stroke-linecap:butt;stroke-linejoin:miter;stroke-opacity:1;filter:url(#filter3913)" />
      <path
         style="fill:#666666;stroke:#000000;stroke-width:1px;stroke-linecap:butt;stroke-linejoin:miter;stroke-opacity:1;filter:url(#filter3909)"
         d="m 160,709.50505 145.71429,-5.71429 -8.57143,17.14286 -148.57143,11.42857 z"
         id="path3775"
         inkscape:connector-curvature="0" />
    </g>
    <g
       transform="translate(254.28571,148.57143)"
       id="g3001">
      <rect
         y="506.64789"
         x="122.85715"
         height="240"
         width="225.71428"
         id="rect3003"
         style="fill:#e6e6e6;fill-opacity:1" />
      <path
         style="fill:url(#linearGradient3015);fill-opacity:1"
         d="m 348.5625,608.8884 c -59.93902,-42.49071 -158.6712,97.75832 -225.71875,63.79464 l 0,71.09375 225.71875,0 z"
         id="path3005"
         inkscape:connector-curvature="0"
         sodipodi:nodetypes="ccccc" />
      <path
         style="fill:#666666;stroke:#000000;stroke-width:1px;stroke-linecap:butt;stroke-linejoin:miter;stroke-opacity:1;filter:url(#filter3905)"
         d="M 171.42857,535.21933 317.14286,529.50504 308.57143,546.6479 160,558.07647 z"
         id="path3007"
         inkscape:connector-curvature="0" />
      <path
         inkscape:connector-curvature="0"
         id="path3009"
         d="m 165.71428,592.36219 145.71429,-5.71429 -8.57143,17.14286 -148.57143,11.42857 z"
         style="fill:#666666;stroke:#000000;stroke-width:1px;stroke-linecap:butt;stroke-linejoin:miter;stroke-opacity:1;filter:url(#filter3917)" />
      <path
         style="fill:#666666;stroke:#000000;stroke-width:1px;stroke-linecap:butt;stroke-linejoin:miter;stroke-opacity:1;filter:url(#filter3913)"
         d="M 162.85714,652.36219 308.57143,646.6479 300,663.79076 151.42857,675.21933 z"
         id="path3011"
         inkscape:connector-curvature="0" />
      <path
         inkscape:connector-curvature="0"
         id="path3013"
         d="m 160,709.50505 145.71429,-5.71429 -8.57143,17.14286 -148.57143,11.42857 z"
         style="fill:#666666;stroke:#000000;stroke-width:1px;stroke-linecap:butt;stroke-linejoin:miter;stroke-opacity:1;filter:url(#filter3909)" />
    </g>
    <g
       id="g3017"
       transform="translate(537.14285,148.57143)">
      <rect
         style="fill:#e6e6e6;fill-opacity:1"
         id="rect3019"
         width="225.71428"
         height="240"
         x="122.85715"
         y="506.64789" />
      <path
         sodipodi:nodetypes="ccccc"
         inkscape:connector-curvature="0"
         id="path3021"
         d="m 348.5625,608.8884 c -59.93902,-42.49071 -158.6712,97.75832 -225.71875,63.79464 l 0,71.09375 225.71875,0 z"
         style="fill:url(#linearGradient3031);fill-opacity:1" />
      <path
         inkscape:connector-curvature="0"
         id="path3023"
         d="M 171.42857,535.21933 317.14286,529.50504 308.57143,546.6479 160,558.07647 z"
         style="fill:#666666;stroke:#000000;stroke-width:1px;stroke-linecap:butt;stroke-linejoin:miter;stroke-opacity:1;filter:url(#filter3905)" />
      <path
         style="fill:#666666;stroke:#000000;stroke-width:1px;stroke-linecap:butt;stroke-linejoin:miter;stroke-opacity:1;filter:url(#filter3917)"
         d="m 165.71428,592.36219 145.71429,-5.71429 -8.57143,17.14286 -148.57143,11.42857 z"
         id="path3025"
         inkscape:connector-curvature="0" />
      <path
         inkscape:connector-curvature="0"
         id="path3027"
         d="M 162.85714,652.36219 308.57143,646.6479 300,663.79076 151.42857,675.21933 z"
         style="fill:#666666;stroke:#000000;stroke-width:1px;stroke-linecap:butt;stroke-linejoin:miter;stroke-opacity:1;filter:url(#filter3913)" />
      <path
         style="fill:#666666;stroke:#000000;stroke-width:1px;stroke-linecap:butt;stroke-linejoin:miter;stroke-opacity:1;filter:url(#filter3909)"
         d="m 160,709.50505 145.71429,-5.71429 -8.57143,17.14286 -148.57143,11.42857 z"
         id="path3029"
         inkscape:connector-curvature="0" />
    </g>
    <g
       transform="translate(54.285714,377.14286)"
       style="font-size:40px;font-style:normal;font-weight:normal;line-height:125%;letter-spacing:0px;word-spacing:0px;fill:#000000;fill-opacity:1;stroke:none;font-family:Sans"
       id="flowRoot3033">
      <path
         d="m 45.148437,569.81137 c -2.903656,10e-6 -4.915373,0.33204 -6.035156,0.9961 -1.119798,0.66407 -1.679693,1.79688 -1.679687,3.39843 -6e-6,1.27605 0.41666,2.29167 1.25,3.04688 0.846346,0.74219 1.992178,1.11328 3.4375,1.11328 1.992175,0 3.587225,-0.70312 4.785156,-2.10937 1.210921,-1.41927 1.816389,-3.30078 1.816406,-5.64454 l 0,-0.80078 -3.574219,0 m 7.167969,-1.48437 0,12.48047 -3.59375,0 0,-3.32032 c -0.820329,1.32813 -1.842463,2.3112 -3.066406,2.94922 -1.223971,0.625 -2.721366,0.9375 -4.492188,0.9375 -2.23959,0 -4.023443,-0.625 -5.351562,-1.875 -1.315107,-1.26302 -1.972659,-2.94921 -1.972656,-5.05859 -3e-6,-2.46093 0.820309,-4.3164 2.460937,-5.56641 1.65364,-1.24998 4.114575,-1.87498 7.382813,-1.875 l 5.039062,0 0,-0.35156 c -1.7e-5,-1.65363 -0.546891,-2.92967 -1.640625,-3.82812 -1.080743,-0.91144 -2.604179,-1.36717 -4.570312,-1.36719 -1.25001,2e-5 -2.467457,0.14976 -3.652344,0.44922 -1.184902,0.29949 -2.324224,0.74871 -3.417969,1.34765 l 0,-3.32031 c 1.315099,-0.50779 2.591139,-0.88539 3.828125,-1.13281 1.23697,-0.2604 2.441396,-0.3906 3.613281,-0.39063 3.164048,3e-5 5.527327,0.82034 7.089844,2.46094 1.56248,1.64064 2.343729,4.12762 2.34375,7.46094"
         style=""
         id="path3701" />
      <path
         d="m 75.441406,569.8895 c -1.9e-5,-2.64322 -0.546894,-4.71353 -1.640625,-6.21094 -1.080746,-1.5104 -2.57163,-2.26561 -4.472656,-2.26562 -1.901053,10e-6 -3.398447,0.75522 -4.492188,2.26562 -1.080736,1.49741 -1.6211,3.56772 -1.621093,6.21094 -7e-6,2.64324 0.540357,4.72006 1.621093,6.23047 1.093741,1.4974 2.591135,2.24609 4.492188,2.24609 1.901026,0 3.39191,-0.74869 4.472656,-2.24609 1.093731,-1.51041 1.640606,-3.58723 1.640625,-6.23047 m -12.226562,-7.63672 c 0.7552,-1.30206 1.70572,-2.26561 2.851562,-2.89063 1.158843,-0.63799 2.53905,-0.957 4.140625,-0.95703 2.656233,3e-5 4.811179,1.05471 6.464844,3.16407 1.666644,2.10939 2.499977,4.88282 2.5,8.32031 -2.3e-5,3.43751 -0.833356,6.21094 -2.5,8.32031 -1.653665,2.10938 -3.808611,3.16406 -6.464844,3.16406 -1.601575,0 -2.981782,-0.3125 -4.140625,-0.9375 -1.145842,-0.63802 -2.096362,-1.60807 -2.851562,-2.91015 l 0,3.28125 -3.613282,0 0,-30.39063 3.613282,0 0,11.83594"
         style=""
         id="path3703" />
      <path
         d="m 93.605469,561.452 c -1.927094,2e-5 -3.45053,0.75522 -4.570313,2.26562 -1.119798,1.49741 -1.679693,3.5547 -1.679687,6.17188 -6e-6,2.61719 0.553379,4.68099 1.660156,6.1914 1.119783,1.4974 2.649729,2.2461 4.589844,2.2461 1.914048,0 3.430974,-0.75521 4.550781,-2.26563 1.119774,-1.51041 1.679669,-3.5677 1.679687,-6.17187 -1.8e-5,-2.59113 -0.559913,-4.64191 -1.679687,-6.15235 -1.119807,-1.52341 -2.636733,-2.28513 -4.550781,-2.28515 m 0,-3.04688 c 3.124984,3e-5 5.579409,1.01565 7.363281,3.04688 1.78383,2.03127 2.67576,4.84376 2.67578,8.4375 -2e-5,3.58073 -0.89195,6.39323 -2.67578,8.4375 -1.783872,2.03125 -4.238297,3.04687 -7.363281,3.04687 -3.13803,0 -5.598965,-1.01562 -7.382813,-3.04687 -1.770836,-2.04427 -2.656252,-4.85677 -2.65625,-8.4375 -2e-6,-3.59374 0.885414,-6.40623 2.65625,-8.4375 1.783848,-2.03123 4.244783,-3.04685 7.382813,-3.04688"
         style=""
         id="path3705" />
      <path
         d="m 109.21094,572.17465 0,-13.24218 3.59375,0 0,13.10547 c -10e-6,2.07031 0.40364,3.6263 1.21094,4.66796 0.80728,1.02865 2.01821,1.54298 3.63281,1.54297 1.94009,10e-6 3.47003,-0.61848 4.58984,-1.85547 1.1328,-1.23697 1.6992,-2.92317 1.69922,-5.05859 l 0,-12.40234 3.59375,0 0,21.875 -3.59375,0 0,-3.35938 c -0.87241,1.32813 -1.88804,2.31771 -3.04687,2.96875 -1.14585,0.63802 -2.48049,0.95703 -4.00391,0.95703 -2.51303,0 -4.42058,-0.78125 -5.72266,-2.34375 -1.30208,-1.56249 -1.95313,-3.84765 -1.95312,-6.85547 m 9.04297,-13.76953 0,0"
         style=""
         id="path3707" />
      <path
         d="m 138.52734,552.72153 0,6.21094 7.40235,0 0,2.79297 -7.40235,0 0,11.875 c 0,1.78385 0.24088,2.92969 0.72266,3.4375 0.49478,0.50781 1.49088,0.76172 2.98828,0.76171 l 3.69141,0 0,3.00782 -3.69141,0 c -2.77344,0 -4.68751,-0.51433 -5.74219,-1.54297 -1.05469,-1.04167 -1.58203,-2.92969 -1.58203,-5.66406 l 0,-11.875 -2.63672,0 0,-2.79297 2.63672,0 0,-6.21094 3.61328,0"
         style=""
         id="path3709" />
      <path
         d="m 151.18359,575.84653 4.1211,0 0,4.96094 -4.1211,0 0,-4.96094"
         style=""
         id="path3711" />
      <path
         d="m 181.59375,567.60434 0,13.20313 -3.59375,0 0,-13.08594 c -2e-5,-2.0703 -0.40366,-3.61978 -1.21094,-4.64844 -0.80731,-1.02863 -2.01824,-1.54295 -3.63281,-1.54297 -1.94012,2e-5 -3.47006,0.61851 -4.58984,1.85547 -1.1198,1.237 -1.6797,2.92319 -1.67969,5.0586 l 0,12.36328 -3.61328,0 0,-30.39063 3.61328,0 0,11.91406 c 0.85937,-1.31508 1.86848,-2.29815 3.02734,-2.94921 1.17187,-0.65102 2.51952,-0.97654 4.04297,-0.97657 2.51301,3e-5 4.41405,0.78127 5.70313,2.34375 1.28904,1.5495 1.93357,3.83465 1.93359,6.85547"
         style=""
         id="path3713" />
      <path
         d="m 192.35547,552.72153 0,6.21094 7.40234,0 0,2.79297 -7.40234,0 0,11.875 c -1e-5,1.78385 0.24088,2.92969 0.72265,3.4375 0.49479,0.50781 1.49088,0.76172 2.98829,0.76171 l 3.6914,0 0,3.00782 -3.6914,0 c -2.77345,0 -4.68751,-0.51433 -5.74219,-1.54297 -1.05469,-1.04167 -1.58204,-2.92969 -1.58203,-5.66406 l 0,-11.875 -2.63672,0 0,-2.79297 2.63672,0 0,-6.21094 3.61328,0"
         style=""
         id="path3715" />
      <path
         d="m 221.53516,563.13169 c 0.89841,-1.61457 1.97263,-2.80597 3.22265,-3.57422 1.24998,-0.76821 2.72133,-1.15232 4.41406,-1.15235 2.27862,3e-5 4.03643,0.80081 5.27344,2.40235 1.23695,1.58856 1.85544,3.85418 1.85547,6.79687 l 0,13.20313 -3.61328,0 0,-13.08594 c -3e-5,-2.09634 -0.37113,-3.65233 -1.11328,-4.66797 -0.74222,-1.01561 -1.87503,-1.52342 -3.39844,-1.52344 -1.862,2e-5 -3.33336,0.61851 -4.41406,1.85547 -1.08075,1.237 -1.62112,2.92319 -1.6211,5.0586 l 0,12.36328 -3.61328,0 0,-13.08594 c -1e-5,-2.10936 -0.37111,-3.66535 -1.11328,-4.66797 -0.7422,-1.01561 -1.88803,-1.52342 -3.4375,-1.52344 -1.83595,2e-5 -3.29428,0.62502 -4.375,1.875 -1.08073,1.237 -1.6211,2.91668 -1.62109,5.03907 l 0,12.36328 -3.61328,0 0,-21.875 3.61328,0 0,3.39843 c 0.8203,-1.34112 1.80338,-2.3307 2.94922,-2.96875 1.14582,-0.63799 2.5065,-0.957 4.08203,-0.95703 1.58852,3e-5 2.93618,0.40367 4.04297,1.21094 1.11977,0.80731 1.94659,1.97919 2.48047,3.51563"
         style=""
         id="path3717" />
      <path
         d="m 243.48828,550.41684 3.59375,0 0,30.39063 -3.59375,0 0,-30.39063"
         style=""
         id="path3719" />
    </g>
    <flowRoot
       xml:space="preserve"
       id="flowRoot3045"
       style="font-size:40px;font-style:normal;font-weight:normal;line-height:125%;letter-spacing:0px;word-spacing:0px;fill:#000000;fill-opacity:1;stroke:none;font-family:Sans"><flowRegion
         id="flowRegion3047"><rect
           id="rect3049"
           width="240"
           height="42.857143"
           x="320"
           y="549.50507" /></flowRegion><flowPara
         id="flowPara3051">indexti</flowPara></flowRoot>    <g
       style="font-size:40px;font-style:normal;font-weight:normal;line-height:125%;letter-spacing:0px;word-spacing:0px;fill:#000000;fill-opacity:1;stroke:none;font-family:Sans"
       id="text3053">
      <path
         d="m 386.62668,939.05859 3.59375,0 0,21.875 -3.59375,0 0,-21.875 m 0,-8.51562 3.59375,0 0,4.55078 -3.59375,0 0,-4.55078"
         style=""
         id="path3680" />
      <path
         d="m 415.90402,947.73047 0,13.20312 -3.59375,0 0,-13.08593 c -2e-5,-2.0703 -0.40366,-3.61978 -1.21094,-4.64844 -0.8073,-1.02863 -2.01824,-1.54295 -3.63281,-1.54297 -1.94011,2e-5 -3.47006,0.61851 -4.58984,1.85547 -1.1198,1.23699 -1.6797,2.92319 -1.67969,5.05859 l 0,12.36328 -3.61328,0 0,-21.875 3.61328,0 0,3.39844 c 0.85937,-1.31508 1.86848,-2.29816 3.02734,-2.94922 1.17187,-0.65102 2.51952,-0.97654 4.04297,-0.97656 2.51301,2e-5 4.41405,0.78127 5.70313,2.34375 1.28904,1.5495 1.93357,3.83465 1.93359,6.85547"
         style=""
         id="path3682" />
      <path
         d="m 437.50558,942.37891 0,-11.83594 3.59375,0 0,30.39062 -3.59375,0 0,-3.28125 c -0.75522,1.30209 -1.71225,2.27214 -2.87109,2.91016 -1.14585,0.625 -2.52605,0.9375 -4.14062,0.9375 -2.64324,0 -4.79819,-1.05469 -6.46485,-3.16406 -1.65365,-2.10937 -2.48047,-4.88281 -2.48047,-8.32032 0,-3.43748 0.82682,-6.21092 2.48047,-8.32031 1.66666,-2.10935 3.82161,-3.16404 6.46485,-3.16406 1.61457,2e-5 2.99477,0.31903 4.14062,0.95703 1.15884,0.62502 2.11587,1.58856 2.87109,2.89063 m -12.24609,7.63671 c 0,2.64324 0.54036,4.72006 1.62109,6.23047 1.09375,1.4974 2.59114,2.2461 4.49219,2.2461 1.90103,0 3.39842,-0.7487 4.49219,-2.2461 1.09373,-1.51041 1.64061,-3.58723 1.64062,-6.23047 -1e-5,-2.64321 -0.54689,-4.71352 -1.64062,-6.21093 -1.09377,-1.5104 -2.59116,-2.26561 -4.49219,-2.26563 -1.90105,2e-5 -3.39844,0.75523 -4.49219,2.26563 -1.08073,1.49741 -1.62109,3.56772 -1.62109,6.21093"
         style=""
         id="path3684" />
      <path
         d="m 467.21262,949.09766 0,1.75781 -16.52344,0 c 0.15624,2.47396 0.89843,4.36198 2.22656,5.66406 1.34114,1.28907 3.20311,1.9336 5.58594,1.93359 1.38019,10e-6 2.71483,-0.16926 4.0039,-0.50781 1.30207,-0.33854 2.59113,-0.84635 3.86719,-1.52344 l 0,3.39844 c -1.28908,0.54688 -2.61069,0.96354 -3.96484,1.25 -1.35418,0.28646 -2.72788,0.42969 -4.1211,0.42969 -3.48959,0 -6.25651,-1.01562 -8.30078,-3.04688 -2.03125,-2.03124 -3.04687,-4.77863 -3.04687,-8.24218 0,-3.58072 0.96354,-6.41926 2.89062,-8.51563 1.9401,-2.10935 4.55078,-3.16404 7.83203,-3.16406 2.9427,2e-5 5.26691,0.95054 6.97266,2.85156 1.71873,1.88804 2.5781,4.45965 2.57813,7.71485 m -3.59375,-1.05469 c -0.0261,-1.96613 -0.57945,-3.53514 -1.66016,-4.70703 -1.06772,-1.17186 -2.48699,-1.7578 -4.25781,-1.75782 -2.00522,2e-5 -3.61329,0.56643 -4.82422,1.69922 -1.19793,1.13283 -1.88803,2.72788 -2.07031,4.78516 l 12.8125,-0.0195"
         style=""
         id="path3686" />
      <path
         d="m 490.59152,939.05859 -7.91015,10.64453 8.32031,11.23047 -4.23828,0 -6.36719,-8.59375 -6.36719,8.59375 -4.23828,0 8.49609,-11.44531 -7.77343,-10.42969 4.23828,0 5.80078,7.79297 5.80078,-7.79297 4.23828,0"
         style=""
         id="path3688" />
      <path
         d="m 496.58762,955.97266 4.12109,0 0,4.96093 -4.12109,0 0,-4.96093"
         style=""
         id="path3690" />
      <path
         d="m 526.99777,947.73047 0,13.20312 -3.59375,0 0,-13.08593 c -2e-5,-2.0703 -0.40366,-3.61978 -1.21094,-4.64844 -0.8073,-1.02863 -2.01824,-1.54295 -3.63281,-1.54297 -1.94011,2e-5 -3.47006,0.61851 -4.58984,1.85547 -1.1198,1.23699 -1.6797,2.92319 -1.67969,5.05859 l 0,12.36328 -3.61328,0 0,-30.39062 3.61328,0 0,11.91406 c 0.85937,-1.31508 1.86848,-2.29816 3.02734,-2.94922 1.17187,-0.65102 2.51952,-0.97654 4.04297,-0.97656 2.51301,2e-5 4.41405,0.78127 5.70313,2.34375 1.28904,1.5495 1.93357,3.83465 1.93359,6.85547"
         style=""
         id="path3692" />
      <path
         d="m 537.75949,932.84766 0,6.21093 7.40234,0 0,2.79297 -7.40234,0 0,11.875 c -10e-6,1.78386 0.24088,2.92969 0.72266,3.4375 0.49478,0.50782 1.49087,0.76172 2.98828,0.76172 l 3.6914,0 0,3.00781 -3.6914,0 c -2.77345,0 -4.68751,-0.51432 -5.74219,-1.54297 -1.05469,-1.04166 -1.58203,-2.92968 -1.58203,-5.66406 l 0,-11.875 -2.63672,0 0,-2.79297 2.63672,0 0,-6.21093 3.61328,0"
         style=""
         id="path3694" />
      <path
         d="m 566.93918,943.25781 c 0.89841,-1.61456 1.97263,-2.80597 3.22265,-3.57422 1.24998,-0.7682 2.72133,-1.15232 4.41407,-1.15234 2.27861,2e-5 4.03642,0.8008 5.27343,2.40234 1.23695,1.58856 1.85544,3.85419 1.85547,6.79688 l 0,13.20312 -3.61328,0 0,-13.08593 c -3e-5,-2.09634 -0.37112,-3.65233 -1.11328,-4.66797 -0.74222,-1.01561 -1.87503,-1.52342 -3.39844,-1.52344 -1.862,2e-5 -3.33335,0.61851 -4.41406,1.85547 -1.08075,1.23699 -1.62111,2.92319 -1.62109,5.05859 l 0,12.36328 -3.61328,0 0,-13.08593 c -2e-5,-2.10936 -0.37112,-3.66535 -1.11329,-4.66797 -0.7422,-1.01561 -1.88803,-1.52342 -3.4375,-1.52344 -1.83594,2e-5 -3.29428,0.62502 -4.375,1.875 -1.08073,1.237 -1.6211,2.91668 -1.62109,5.03906 l 0,12.36328 -3.61328,0 0,-21.875 3.61328,0 0,3.39844 c 0.82031,-1.34112 1.80338,-2.33071 2.94922,-2.96875 1.14582,-0.638 2.5065,-0.95701 4.08203,-0.95703 1.58853,2e-5 2.93618,0.40367 4.04297,1.21094 1.11977,0.80731 1.94659,1.97918 2.48047,3.51562"
         style=""
         id="path3696" />
      <path
         d="m 588.8923,930.54297 3.59375,0 0,30.39062 -3.59375,0 0,-30.39062"
         style=""
         id="path3698" />
    </g>
    <g
       style="font-size:40px;font-style:normal;font-weight:normal;line-height:125%;letter-spacing:0px;word-spacing:0px;fill:#000000;fill-opacity:1;stroke:none;font-family:Sans"
       id="text3061">
      <path
         d="m 673.79742,937.04132 0,3.35938 c -1.01564,-0.55988 -2.03777,-0.97655 -3.0664,-1.25 -1.01564,-0.28644 -2.04429,-0.42967 -3.08594,-0.42969 -2.33074,2e-5 -4.14063,0.7422 -5.42969,2.22656 -1.28907,1.47137 -1.9336,3.54168 -1.93359,6.21094 -10e-6,2.66928 0.64452,4.7461 1.93359,6.23047 1.28906,1.47135 3.09895,2.20703 5.42969,2.20703 1.04165,0 2.0703,-0.13672 3.08594,-0.41016 1.02863,-0.28645 2.05076,-0.70963 3.0664,-1.26953 l 0,3.32031 c -1.00262,0.46875 -2.04428,0.82032 -3.125,1.05469 -1.06772,0.23438 -2.20704,0.35156 -3.41796,0.35156 -3.29428,0 -5.91147,-1.03515 -7.85157,-3.10547 -1.9401,-2.0703 -2.91016,-4.86327 -2.91015,-8.3789 -10e-6,-3.5677 0.97656,-6.37368 2.92968,-8.41797 1.96614,-2.04425 4.65494,-3.06638 8.06641,-3.06641 1.10676,3e-5 2.18749,0.11721 3.24219,0.35157 1.05467,0.22137 2.0768,0.55991 3.0664,1.01562"
         style=""
         id="path3655" />
      <path
         d="m 688.56305,938.72101 c -1.92709,2e-5 -3.45053,0.75523 -4.57031,2.26562 -1.1198,1.49741 -1.6797,3.5547 -1.67969,6.17188 -10e-6,2.61719 0.55338,4.68099 1.66016,6.1914 1.11978,1.4974 2.64972,2.2461 4.58984,2.2461 1.91405,0 3.43097,-0.75521 4.55078,-2.26563 1.11977,-1.51041 1.67967,-3.5677 1.67969,-6.17187 -2e-5,-2.59113 -0.55992,-4.64191 -1.67969,-6.15235 -1.11981,-1.52341 -2.63673,-2.28513 -4.55078,-2.28515 m 0,-3.04688 c 3.12498,3e-5 5.57941,1.01565 7.36328,3.04688 1.78383,2.03127 2.67576,4.84376 2.67578,8.4375 -2e-5,3.58073 -0.89195,6.39323 -2.67578,8.4375 -1.78387,2.03125 -4.2383,3.04687 -7.36328,3.04687 -3.13803,0 -5.59897,-1.01562 -7.38281,-3.04687 -1.77084,-2.04427 -2.65626,-4.85677 -2.65625,-8.4375 -10e-6,-3.59374 0.88541,-6.40623 2.65625,-8.4375 1.78384,-2.03123 4.24478,-3.04685 7.38281,-3.04688"
         style=""
         id="path3657" />
      <path
         d="m 722.72321,944.87335 0,13.20313 -3.59375,0 0,-13.08594 c -2e-5,-2.0703 -0.40367,-3.61978 -1.21094,-4.64844 -0.80731,-1.02863 -2.01825,-1.54295 -3.63281,-1.54297 -1.94012,2e-5 -3.47007,0.61851 -4.58985,1.85547 -1.1198,1.237 -1.67969,2.92319 -1.67969,5.0586 l 0,12.36328 -3.61328,0 0,-21.875 3.61328,0 0,3.39843 c 0.85937,-1.31508 1.86848,-2.29815 3.02735,-2.94921 1.17186,-0.65102 2.51952,-0.97654 4.04297,-0.97657 2.513,3e-5 4.41404,0.78127 5.70312,2.34375 1.28904,1.5495 1.93357,3.83465 1.9336,6.85547"
         style=""
         id="path3659" />
      <path
         d="m 733.48492,929.99054 0,6.21094 7.40235,0 0,2.79297 -7.40235,0 0,11.875 c 0,1.78386 0.24088,2.92969 0.72266,3.4375 0.49478,0.50781 1.49088,0.76172 2.98828,0.76171 l 3.69141,0 0,3.00782 -3.69141,0 c -2.77344,0 -4.6875,-0.51433 -5.74219,-1.54297 -1.05469,-1.04167 -1.58203,-2.92968 -1.58203,-5.66406 l 0,-11.875 -2.63672,0 0,-2.79297 2.63672,0 0,-6.21094 3.61328,0"
         style=""
         id="path3661" />
      <path
         d="m 755.57477,947.08038 c -2.90366,10e-6 -4.91538,0.33205 -6.03516,0.9961 -1.1198,0.66407 -1.67969,1.79688 -1.67969,3.39843 0,1.27605 0.41666,2.29168 1.25,3.04688 0.84635,0.74219 1.99218,1.11328 3.4375,1.11328 1.99218,0 3.58723,-0.70312 4.78516,-2.10937 1.21092,-1.41927 1.81639,-3.30078 1.81641,-5.64454 l 0,-0.80078 -3.57422,0 m 7.16797,-1.48437 0,12.48047 -3.59375,0 0,-3.32032 c -0.82033,1.32813 -1.84247,2.3112 -3.06641,2.94922 -1.22397,0.625 -2.72137,0.9375 -4.49219,0.9375 -2.23959,0 -4.02344,-0.625 -5.35156,-1.875 -1.31511,-1.26301 -1.97266,-2.94921 -1.97266,-5.05859 0,-2.46093 0.82031,-4.3164 2.46094,-5.56641 1.65364,-1.24998 4.11458,-1.87498 7.38281,-1.875 l 5.03907,0 0,-0.35156 c -2e-5,-1.65363 -0.54689,-2.92967 -1.64063,-3.82812 -1.08074,-0.91144 -2.60418,-1.36717 -4.57031,-1.36719 -1.25001,2e-5 -2.46746,0.14976 -3.65234,0.44922 -1.18491,0.29949 -2.32423,0.74871 -3.41797,1.34765 l 0,-3.32031 c 1.3151,-0.50779 2.59114,-0.88539 3.82812,-1.13281 1.23697,-0.2604 2.4414,-0.3906 3.61328,-0.39063 3.16405,3e-5 5.52733,0.82034 7.08985,2.46094 1.56248,1.64064 2.34373,4.12762 2.34375,7.46094"
         style=""
         id="path3663" />
      <path
         d="m 785.9068,937.04132 0,3.35938 c -1.01564,-0.55988 -2.03778,-0.97655 -3.06641,-1.25 -1.01564,-0.28644 -2.04428,-0.42967 -3.08593,-0.42969 -2.33074,2e-5 -4.14064,0.7422 -5.42969,2.22656 -1.28907,1.47137 -1.9336,3.54168 -1.9336,6.21094 0,2.66928 0.64453,4.7461 1.9336,6.23047 1.28905,1.47135 3.09895,2.20703 5.42969,2.20703 1.04165,0 2.07029,-0.13672 3.08593,-0.41016 1.02863,-0.28645 2.05077,-0.70963 3.06641,-1.26953 l 0,3.32031 c -1.00262,0.46875 -2.04429,0.82032 -3.125,1.05469 -1.06772,0.23438 -2.20705,0.35156 -3.41797,0.35156 -3.29428,0 -5.91146,-1.03515 -7.85156,-3.10547 -1.94011,-2.0703 -2.91016,-4.86327 -2.91016,-8.3789 0,-3.5677 0.97656,-6.37368 2.92969,-8.41797 1.96614,-2.04425 4.65494,-3.06638 8.06641,-3.06641 1.10675,3e-5 2.18748,0.11721 3.24218,0.35157 1.05467,0.22137 2.07681,0.55991 3.06641,1.01562"
         style=""
         id="path3665" />
      <path
         d="m 795.75055,929.99054 0,6.21094 7.40234,0 0,2.79297 -7.40234,0 0,11.875 c -10e-6,1.78386 0.24088,2.92969 0.72266,3.4375 0.49478,0.50781 1.49087,0.76172 2.98828,0.76171 l 3.6914,0 0,3.00782 -3.6914,0 c -2.77345,0 -4.68751,-0.51433 -5.74219,-1.54297 -1.05469,-1.04167 -1.58204,-2.92968 -1.58203,-5.66406 l 0,-11.875 -2.63672,0 0,-2.79297 2.63672,0 0,-6.21094 3.61328,0"
         style=""
         id="path3667" />
      <path
         d="m 808.4068,953.11554 4.12109,0 0,4.96094 -4.12109,0 0,-4.96094"
         style=""
         id="path3669" />
      <path
         d="m 838.81696,944.87335 0,13.20313 -3.59375,0 0,-13.08594 c -2e-5,-2.0703 -0.40367,-3.61978 -1.21094,-4.64844 -0.80731,-1.02863 -2.01825,-1.54295 -3.63281,-1.54297 -1.94012,2e-5 -3.47007,0.61851 -4.58985,1.85547 -1.1198,1.237 -1.67969,2.92319 -1.67969,5.0586 l 0,12.36328 -3.61328,0 0,-30.39063 3.61328,0 0,11.91406 c 0.85937,-1.31508 1.86848,-2.29815 3.02735,-2.94921 1.17186,-0.65102 2.51952,-0.97654 4.04297,-0.97657 2.513,3e-5 4.41404,0.78127 5.70312,2.34375 1.28904,1.5495 1.93357,3.83465 1.9336,6.85547"
         style=""
         id="path3671" />
      <path
         d="m 849.57867,929.99054 0,6.21094 7.40235,0 0,2.79297 -7.40235,0 0,11.875 c 0,1.78386 0.24088,2.92969 0.72266,3.4375 0.49478,0.50781 1.49088,0.76172 2.98828,0.76171 l 3.69141,0 0,3.00782 -3.69141,0 c -2.77344,0 -4.6875,-0.51433 -5.74219,-1.54297 -1.05469,-1.04167 -1.58203,-2.92968 -1.58203,-5.66406 l 0,-11.875 -2.63672,0 0,-2.79297 2.63672,0 0,-6.21094 3.61328,0"
         style=""
         id="path3673" />
      <path
         d="m 878.75836,940.4007 c 0.89842,-1.61457 1.97264,-2.80597 3.22266,-3.57422 1.24997,-0.76821 2.72133,-1.15232 4.41406,-1.15235 2.27862,3e-5 4.03643,0.80081 5.27344,2.40235 1.23694,1.58856 1.85543,3.85418 1.85547,6.79687 l 0,13.20313 -3.61328,0 0,-13.08594 c -4e-5,-2.09634 -0.37113,-3.65233 -1.11329,-4.66797 -0.74221,-1.01561 -1.87502,-1.52342 -3.39843,-1.52344 -1.86201,2e-5 -3.33336,0.61851 -4.41407,1.85547 -1.08075,1.237 -1.62111,2.92319 -1.62109,5.0586 l 0,12.36328 -3.61328,0 0,-13.08594 c -2e-5,-2.10936 -0.37111,-3.66535 -1.11328,-4.66797 -0.74221,-1.01561 -1.88804,-1.52342 -3.4375,-1.52344 -1.83595,2e-5 -3.29428,0.62502 -4.375,1.875 -1.08074,1.237 -1.6211,2.91668 -1.6211,5.03907 l 0,12.36328 -3.61328,0 0,-21.875 3.61328,0 0,3.39843 c 0.82031,-1.34112 1.80338,-2.3307 2.94922,-2.96875 1.14583,-0.63799 2.5065,-0.957 4.08203,-0.95703 1.58853,3e-5 2.93619,0.40367 4.04297,1.21094 1.11978,0.80731 1.9466,1.97919 2.48047,3.51563"
         style=""
         id="path3675" />
      <path
         d="m 900.71149,927.68585 3.59375,0 0,30.39063 -3.59375,0 0,-30.39063"
         style=""
         id="path3677" />
    </g>
    <flowRoot
       xml:space="preserve"
       id="flowRoot3646"
       style="fill:black;stroke:none;stroke-opacity:1;stroke-width:1px;stroke-linejoin:miter;stroke-linecap:butt;fill-opacity:1;font-family:Sans;font-style:normal;font-weight:normal;font-size:40px;line-height:125%;letter-spacing:0px;word-spacing:0px"><flowRegion
         id="flowRegion3648"><rect
           id="rect3650"
           width="885.71429"
           height="88.571426"
           x="68.571426"
           y="374.28571" /></flowRegion><flowPara
         id="flowPara3652"></flowPara></flowRoot>  </g>
</svg>
