<?xml version="1.0" encoding="UTF-8" standalone="no"?>
<!-- Created with Inkscape (http://www.inkscape.org/) -->
<svg xmlns:dc="http://purl.org/dc/elements/1.1/" xmlns:cc="http://web.resource.org/cc/" xmlns:rdf="http://www.w3.org/1999/02/22-rdf-syntax-ns#" xmlns:svg="http://www.w3.org/2000/svg" xmlns="http://www.w3.org/2000/svg" xmlns:sodipodi="http://sodipodi.sourceforge.net/DTD/sodipodi-0.dtd" xmlns:inkscape="http://www.inkscape.org/namespaces/inkscape" width="310" height="66" id="svg5352" sodipodi:version="0.32" inkscape:version="0.45.1" version="1.0" sodipodi:docbase="C:\Dokumente und Einstellungen\Felix\Desktop" sodipodi:docname="Joomla.svg" inkscape:output_extension="org.inkscape.output.svg.inkscape">
  <defs id="defs5354"><clipPath id="clp22" clip-rule="nonzero">
<path d="M 47.752,7.5411 L 47.752,13.24 L 55.565,13.24 L 55.565,7.5411 L 47.752,7.5411 z " id="path308"/>

</clipPath>
<clipPath id="clp21" clip-rule="nonzero">
<path d="M 47.752,10.391 C 47.752,11.5 49.5,13.24 51.659,13.24 C 53.816,13.24 55.565,11.432 55.565,10.391 C 55.565,8.8184 53.816,7.5411 51.659,7.5411 C 49.5,7.5411 47.752,8.8184 47.752,10.391" id="path302"/>

</clipPath>
<clipPath id="clp20" clip-rule="nonzero">
<path d="M 2.3955,7.5411 L 2.3955,13.24 L 10.208,13.24 L 10.208,7.5411 L 2.3955,7.5411 z " id="path294"/>

</clipPath>
<clipPath id="clp19" clip-rule="nonzero">
<path d="M 2.3955,10.391 C 2.3955,11.5 4.1435,13.24 6.3018,13.24 C 8.46,13.24 10.208,11.432 10.208,10.391 C 10.208,8.8184 8.46,7.5411 6.3018,7.5411 C 4.1435,7.5411 2.3955,8.8184 2.3955,10.391" id="path288"/>

</clipPath>
<clipPath id="clp18" clip-rule="nonzero">
<path d="M 44.982,49.285 L 44.982,56.535 L 55.565,56.535 L 55.565,49.285 L 44.982,49.285 z " id="path280"/>

</clipPath>
<clipPath id="clp17" clip-rule="nonzero">
<path d="M 44.982,52.91 C 44.982,54.32 47.352,56.535 50.273,56.535 C 53.195,56.535 55.565,54.234 55.565,52.91 C 55.565,50.908 53.195,49.285 50.273,49.285 C 47.352,49.285 44.982,50.908 44.982,52.91" id="path274"/>

</clipPath>
<clipPath id="clp16" clip-rule="nonzero">
<path d="M 2.3955,49.231 L 2.3955,56.479 L 12.978,56.479 L 12.978,49.231 L 2.3955,49.231 z " id="path266"/>

</clipPath>
<clipPath id="clp15" clip-rule="nonzero">
<path d="M 2.3955,52.854 C 2.3955,54.264 4.7637,56.479 7.6865,56.479 C 10.608,56.479 12.978,54.178 12.978,52.854 C 12.978,50.852 10.608,49.231 7.6865,49.231 C 4.7637,49.231 2.3955,50.852 2.3955,52.854" id="path260"/>

</clipPath>
<clipPath id="clp14" clip-rule="nonzero">
<path d="M 16.762,11.154 L 16.762,26.227 L 36.133,26.227 L 36.133,11.154 L 16.762,11.154 z " id="path252"/>

</clipPath>
<clipPath id="clp13" clip-rule="nonzero">
<path d="M 16.762,12.67 C 18.779,12.022 21.078,12.498 22.673,14.092 L 23.79,15.211 L 29.508,20.934 L 34.795,26.227 L 36.133,24.912 L 25.095,13.725 L 23.806,12.752 C 21.684,11.154 18.825,11.195 16.762,12.67" id="path246"/>

</clipPath>
<clipPath id="clp12" clip-rule="nonzero">
<path d="M 33.521,15.227 L 33.521,38.541 L 51.075,38.541 L 51.075,15.227 L 33.521,15.227 z " id="path238"/>

</clipPath>
<clipPath id="clp11" clip-rule="nonzero">
<path d="M 47.549,22.645 L 46.256,23.961 L 39.64,30.684 L 33.521,36.903 L 34.97,38.541 L 47.9,25.562 L 49.033,24.039 C 50.896,21.531 51.075,17.539 49.919,15.227 C 49.919,15.227 50.42,19.773 47.549,22.645" id="path232"/>

</clipPath>
<clipPath id="clp10" clip-rule="nonzero">
<path d="M 18.839,33.616 L 18.839,51.17 L 42.152,51.17 L 42.152,33.616 L 18.839,33.616 z " id="path224"/>

</clipPath>
<clipPath id="clp9" clip-rule="nonzero">
<path d="M 34.733,47.643 L 33.418,46.35 L 26.695,39.735 L 20.477,33.616 L 18.839,35.065 L 31.817,47.995 L 33.34,49.128 C 35.848,50.991 39.84,51.17 42.152,50.014 C 42.152,50.014 37.604,50.515 34.733,47.643" id="path218"/>

</clipPath>
<clipPath id="clp8" clip-rule="nonzero">
<path d="M 11.349,21.293 L 11.349,40.665 L 26.421,40.665 L 26.421,21.293 L 11.349,21.293 z " id="path210"/>

</clipPath>
<clipPath id="clp7" clip-rule="nonzero">
<path d="M 12.864,40.665 C 12.216,38.647 12.692,36.348 14.286,34.754 L 15.405,33.637 L 21.128,27.918 L 26.421,22.631 L 25.108,21.293 L 13.92,32.333 L 12.947,33.622 C 11.349,35.743 11.39,38.602 12.864,40.665" id="path204"/>

</clipPath>
<clipPath id="clp6" clip-rule="nonzero">
<path d="M 15.594,46.465 L 15.594,51.21 L 26.421,51.21 L 26.421,46.465 L 15.594,46.465 z " id="path196"/>

</clipPath>
<clipPath id="clp5" clip-rule="nonzero">
<path d="M 15.594,50.313 L 15.723,50.342 C 19.424,51.21 23.458,50.266 26.421,47.516 L 25.369,46.465 C 21.69,50.571 15.594,50.313 15.594,50.313" id="path190"/>

</clipPath>
<clipPath id="clp4" clip-rule="nonzero">
<path d="M 0,57.887 L 0,0 L 287.58,0 L 287.58,57.887" id="path180"/>

</clipPath>
<clipPath id="clp3" clip-rule="nonzero">
<path d="M -143.79,-64.279 L -143.79,6.1868 L 206.28,6.1868 L 206.28,-64.279 L -143.79,-64.279 z " id="path169"/>

</clipPath>

<clipPath clip-rule="nonzero" id="clipPath5174">
<path id="path5176" d="M -143.79,-64.279 L -143.79,6.1868 L 206.28,6.1868 L 206.28,-64.279 L -143.79,-64.279 z "/>

</clipPath>


























<clipPath id="clipPath5303" clip-rule="nonzero">
<path d="M 47.752,10.391 C 47.752,11.5 49.5,13.24 51.659,13.24 C 53.816,13.24 55.565,11.432 55.565,10.391 C 55.565,8.8184 53.816,7.5411 51.659,7.5411 C 49.5,7.5411 47.752,8.8184 47.752,10.391" id="path5305"/>

</clipPath>



<clipPath id="clipPath5289" clip-rule="nonzero">
<path d="M 2.3955,10.391 C 2.3955,11.5 4.1435,13.24 6.3018,13.24 C 8.46,13.24 10.208,11.432 10.208,10.391 C 10.208,8.8184 8.46,7.5411 6.3018,7.5411 C 4.1435,7.5411 2.3955,8.8184 2.3955,10.391" id="path5291"/>

</clipPath>



<clipPath id="clipPath5275" clip-rule="nonzero">
<path d="M 44.982,52.91 C 44.982,54.32 47.352,56.535 50.273,56.535 C 53.195,56.535 55.565,54.234 55.565,52.91 C 55.565,50.908 53.195,49.285 50.273,49.285 C 47.352,49.285 44.982,50.908 44.982,52.91" id="path5277"/>

</clipPath>



<clipPath id="clipPath5261" clip-rule="nonzero">
<path d="M 2.3955,52.854 C 2.3955,54.264 4.7637,56.479 7.6865,56.479 C 10.608,56.479 12.978,54.178 12.978,52.854 C 12.978,50.852 10.608,49.231 7.6865,49.231 C 4.7637,49.231 2.3955,50.852 2.3955,52.854" id="path5263"/>

</clipPath>



<clipPath id="clipPath5247" clip-rule="nonzero">
<path d="M 16.762,12.67 C 18.779,12.022 21.078,12.498 22.673,14.092 L 23.79,15.211 L 29.508,20.934 L 34.795,26.227 L 36.133,24.912 L 25.095,13.725 L 23.806,12.752 C 21.684,11.154 18.825,11.195 16.762,12.67" id="path5249"/>

</clipPath>



<clipPath id="clipPath5233" clip-rule="nonzero">
<path d="M 47.549,22.645 L 46.256,23.961 L 39.64,30.684 L 33.521,36.903 L 34.97,38.541 L 47.9,25.562 L 49.033,24.039 C 50.896,21.531 51.075,17.539 49.919,15.227 C 49.919,15.227 50.42,19.773 47.549,22.645" id="path5235"/>

</clipPath>



<clipPath id="clipPath5219" clip-rule="nonzero">
<path d="M 34.733,47.643 L 33.418,46.35 L 26.695,39.735 L 20.477,33.616 L 18.839,35.065 L 31.817,47.995 L 33.34,49.128 C 35.848,50.991 39.84,51.17 42.152,50.014 C 42.152,50.014 37.604,50.515 34.733,47.643" id="path5221"/>

</clipPath>



<clipPath id="clipPath5205" clip-rule="nonzero">
<path d="M 12.864,40.665 C 12.216,38.647 12.692,36.348 14.286,34.754 L 15.405,33.637 L 21.128,27.918 L 26.421,22.631 L 25.108,21.293 L 13.92,32.333 L 12.947,33.622 C 11.349,35.743 11.39,38.602 12.864,40.665" id="path5207"/>

</clipPath>



<clipPath id="clipPath5191" clip-rule="nonzero">
<path d="M 15.594,50.313 L 15.723,50.342 C 19.424,51.21 23.458,50.266 26.421,47.516 L 25.369,46.465 C 21.69,50.571 15.594,50.313 15.594,50.313" id="path5193"/>

</clipPath>



<clipPath id="clipPath5183" clip-rule="nonzero">
<path d="M 0,57.887 L 0,0 L 287.58,0 L 287.58,57.887" id="path5185"/>

</clipPath>
























<clipPath id="clipPath5309" clip-rule="nonzero">
<path d="M 47.752,7.5411 L 47.752,13.24 L 55.565,13.24 L 55.565,7.5411 L 47.752,7.5411 z " id="path5311"/>

</clipPath>



<clipPath id="clipPath5295" clip-rule="nonzero">
<path d="M 2.3955,7.5411 L 2.3955,13.24 L 10.208,13.24 L 10.208,7.5411 L 2.3955,7.5411 z " id="path5297"/>

</clipPath>



<clipPath id="clipPath5281" clip-rule="nonzero">
<path d="M 44.982,49.285 L 44.982,56.535 L 55.565,56.535 L 55.565,49.285 L 44.982,49.285 z " id="path5283"/>

</clipPath>



<clipPath id="clipPath5267" clip-rule="nonzero">
<path d="M 2.3955,49.231 L 2.3955,56.479 L 12.978,56.479 L 12.978,49.231 L 2.3955,49.231 z " id="path5269"/>

</clipPath>



<clipPath id="clipPath5253" clip-rule="nonzero">
<path d="M 16.762,11.154 L 16.762,26.227 L 36.133,26.227 L 36.133,11.154 L 16.762,11.154 z " id="path5255"/>

</clipPath>



<clipPath id="clipPath5239" clip-rule="nonzero">
<path d="M 33.521,15.227 L 33.521,38.541 L 51.075,38.541 L 51.075,15.227 L 33.521,15.227 z " id="path5241"/>

</clipPath>



<clipPath id="clipPath5225" clip-rule="nonzero">
<path d="M 18.839,33.616 L 18.839,51.17 L 42.152,51.17 L 42.152,33.616 L 18.839,33.616 z " id="path5227"/>

</clipPath>



<clipPath id="clipPath5211" clip-rule="nonzero">
<path d="M 11.349,21.293 L 11.349,40.665 L 26.421,40.665 L 26.421,21.293 L 11.349,21.293 z " id="path5213"/>

</clipPath>



<clipPath id="clipPath5197" clip-rule="nonzero">
<path d="M 15.594,46.465 L 15.594,51.21 L 26.421,51.21 L 26.421,46.465 L 15.594,46.465 z " id="path5199"/>

</clipPath>















































</defs>
  <sodipodi:namedview id="base" pagecolor="#ffffff" bordercolor="#666666" borderopacity="1.0" inkscape:pageopacity="0.0" inkscape:pageshadow="2" inkscape:zoom="1.979899" inkscape:cx="150.25668" inkscape:cy="-25.88666" inkscape:document-units="px" inkscape:current-layer="layer1" width="310px" height="66px" inkscape:window-width="1280" inkscape:window-height="744" inkscape:window-x="-4" inkscape:window-y="-4"/>
  <metadata id="metadata5357">
    <rdf:RDF>
      <cc:Work rdf:about="">
        <dc:format>image/svg+xml</dc:format>
        <dc:type rdf:resource="http://purl.org/dc/dcmitype/StillImage"/>
      </cc:Work>
    </rdf:RDF>
  </metadata>
  <g inkscape:label="Ebene 1" inkscape:groupmode="layer" id="layer1">
    <g id="g6048" transform="matrix(0.893192, 0, 0, 0.893192, -114.133, -144.044)">
      <path style="font-size:14px;letter-spacing:0;word-spacing:0;fill:#86be3c;fill-rule:nonzero;stroke:none;stroke-width:2;stroke-linecap:round;stroke-linejoin:round;stroke-miterlimit:4;stroke-dasharray:none;font-family:fnt0, &quot;HelveticaLTStd&quot;, Arial" d="M 150.3518,198.3778 L 149.07672,197.1049 C 145.12306,193.15009 143.89899,187.50151 145.39662,182.49338 C 141.4441,181.60017 138.49222,178.06623 138.49222,173.84266 C 138.49331,168.94547 142.46265,164.97465 147.35905,164.97465 C 151.76766,164.97694 155.42283,168.19294 156.11017,172.40621 C 160.89414,171.28427 166.12986,172.5892 169.86051,176.31985 L 170.36945,176.82878 L 163.82537,183.36943 L 163.31758,182.85935 C 161.19493,180.73784 157.75248,180.73784 155.62755,182.86164 C 153.49575,184.99344 153.50032,188.44618 155.61611,190.56196 L 156.89588,191.83944 L 163.4411,198.3778 L 170.36258,205.29586 L 163.82537,211.83879 L 156.89588,204.91845 L 150.3518,198.3778" class="ps01" id="path174"/>
      <path style="font-size:14px;letter-spacing:0;word-spacing:0;fill:#e4b645;fill-rule:nonzero;stroke:none;stroke-width:2;stroke-linecap:round;stroke-linejoin:round;stroke-miterlimit:4;stroke-dasharray:none;font-family:fnt0, &quot;HelveticaLTStd&quot;, Arial" d="M 157.67128,191.06404 L 164.59849,184.1414 L 171.14371,177.60419 L 172.42004,176.33014 C 176.35884,172.39249 181.97197,171.15275 186.96066,172.61779 C 187.55765,168.30044 191.26314,164.97465 195.74518,164.97465 C 200.64237,164.97465 204.61434,168.94318 204.61319,173.84266 C 204.61319,178.343 201.25881,182.06221 196.91287,182.63405 C 198.34131,187.60444 197.097,193.17754 193.18451,197.09346 L 192.67443,197.60468 L 186.13493,191.05946 L 186.64043,190.55282 C 188.76537,188.42902 188.76537,184.98429 186.64272,182.86164 C 184.52578,180.74699 181.09135,180.74242 178.95955,182.87308 L 177.68321,184.14827 L 171.13799,190.68891 L 164.21536,197.60468 L 157.67128,191.06404" class="ps09" id="path176"/>
      <path style="font-size:14px;letter-spacing:0;word-spacing:0;fill:#c33734;fill-rule:nonzero;stroke:none;stroke-width:2;stroke-linecap:round;stroke-linejoin:round;stroke-miterlimit:4;stroke-dasharray:none;font-family:fnt0, &quot;HelveticaLTStd&quot;, Arial" d="M 187.13678,224.07937 C 182.10464,225.62733 176.40344,224.41 172.42004,220.42729 L 171.91912,219.92693 L 178.45748,213.3816 L 178.95955,213.88482 C 181.08448,216.00861 184.52922,216.00861 186.65187,213.8871 C 188.76765,211.76903 188.77223,208.33573 186.64043,206.20279 L 185.36181,204.92302 L 178.82231,198.3778 L 171.91226,191.46203 L 178.45748,184.92367 L 185.36181,191.83487 L 191.89902,198.3778 L 193.18451,199.66443 C 196.94603,203.42596 198.24524,208.71772 197.07527,213.53142 C 201.38233,214.13757 204.69554,217.83848 204.69554,222.31251 C 204.69554,227.21108 200.72357,231.17824 195.82867,231.17824 C 191.53533,231.17824 187.95565,228.13139 187.13678,224.07937" class="ps04" id="path184"/>
      <path style="font-size:14px;letter-spacing:0;word-spacing:0;fill:#748ec4;fill-rule:nonzero;stroke:none;stroke-width:2;stroke-linecap:round;stroke-linejoin:round;stroke-miterlimit:4;stroke-dasharray:none;font-family:fnt0, &quot;HelveticaLTStd&quot;, Arial" d="M 184.5864,205.69843 L 177.68321,212.60962 L 171.14371,219.1537 L 169.86051,220.43621 C 166.08297,224.2157 160.75576,225.50004 155.92033,224.30056 C 155.01683,228.24084 151.48975,231.17594 147.27636,231.17824 C 142.37779,231.17824 138.40734,227.20891 138.40846,222.31251 C 138.40846,218.11982 141.31898,214.60418 145.22919,213.68124 C 143.99163,208.82293 145.27379,203.45569 149.07672,199.65299 L 149.57708,199.15435 L 156.12161,205.69385 L 155.61611,206.19593 C 153.49346,208.32086 153.49346,211.75988 155.6184,213.8871 C 157.74905,216.01776 161.20179,216.01318 163.31758,213.89625 L 164.59849,212.61305 L 171.13799,206.07127 L 178.04804,199.15435 L 184.5864,205.69843" class="ps010" id="path186"/>
      <path style="font-size:14px;letter-spacing:0;word-spacing:0;fill:#000000;fill-rule:nonzero;stroke:none;stroke-width:2;stroke-linecap:round;stroke-linejoin:round;stroke-miterlimit:4;stroke-dasharray:none;font-family:fnt0, &quot;HelveticaLTStd&quot;, Arial" d="M 237.926,178.05823 L 237.926,205.80136 C 237.926,208.25339 237.18032,210.33258 235.713,211.97717 C 233.92087,213.98088 231.24468,214.99761 227.75878,214.99761 L 224.63427,214.76658 L 215.21844,213.22149 L 213.65504,216.76114 L 223.22184,218.23876 C 225.00711,218.51325 226.67115,218.65163 228.16478,218.65163 C 233.34103,218.65163 237.2478,217.19688 239.77874,214.33313 C 241.81676,211.99319 242.84949,208.93501 242.84949,205.24211 L 242.84949,178.05823 L 237.926,178.05823" class="ps03" id="path314"/>
      <path style="font-size:14px;letter-spacing:0;word-spacing:0;fill:#000000;fill-rule:nonzero;stroke:none;stroke-width:2;stroke-linecap:round;stroke-linejoin:round;stroke-miterlimit:4;stroke-dasharray:none;font-family:fnt0, &quot;HelveticaLTStd&quot;, Arial" d="M 276.34643,212.83493 C 273.45294,214.48067 269.94188,215.3144 265.90472,215.3144 C 261.77608,215.3144 258.24214,214.49668 255.38297,212.88868 L 255.38297,212.88868 C 251.90392,210.94101 250.21587,208.20192 250.21587,204.51016 C 250.21587,200.87329 251.95196,198.05529 255.38297,196.13621 C 258.24214,194.52478 261.77608,193.7082 265.90472,193.7082 C 269.99906,193.7082 273.52156,194.52478 276.40361,196.13621 C 279.80031,198.0713 281.51581,200.8893 281.51581,204.51016 C 281.51581,208.0967 279.77743,210.89755 276.34643,212.83493 z M 279.23991,193.37768 C 275.48867,191.32937 271.00549,190.29206 265.90472,190.29206 C 260.84971,190.29206 256.35509,191.32937 252.57183,193.37539 L 252.57068,193.37539 C 247.79358,195.9761 245.369,199.72733 245.369,204.52502 C 245.369,209.32386 247.79358,213.06709 252.57183,215.64721 C 256.35509,217.69552 260.83827,218.7294 265.90472,218.7294 C 270.98262,218.7294 275.4658,217.70238 279.21704,215.67351 C 283.95183,213.09225 286.36497,209.34102 286.36497,204.52502 C 286.36497,199.71132 283.96326,195.96008 279.23991,193.37768" class="ps03" id="path316"/>
      <path style="font-size:14px;letter-spacing:0;word-spacing:0;fill:#000000;fill-rule:nonzero;stroke:none;stroke-width:2;stroke-linecap:round;stroke-linejoin:round;stroke-miterlimit:4;stroke-dasharray:none;font-family:fnt0, &quot;HelveticaLTStd&quot;, Arial" d="M 319.89736,212.83493 C 317.00387,214.48067 313.49281,215.3144 309.45566,215.3144 C 305.32701,215.3144 301.79307,214.49668 298.9339,212.88868 C 295.45714,210.94101 293.76451,208.20192 293.76451,204.51016 C 293.76451,200.87329 295.50289,198.05529 298.9339,196.13621 C 301.79307,194.52478 305.32701,193.7082 309.45566,193.7082 C 313.53856,193.7082 317.07249,194.52478 319.95454,196.13621 C 323.3398,198.0713 325.06674,200.8893 325.06674,204.51016 C 325.06674,208.0967 323.32837,210.89755 319.89736,212.83493 z M 322.79084,193.37768 C 319.03961,191.32937 314.55642,190.29206 309.45566,190.29206 C 304.40064,190.29206 299.90602,191.32937 296.12047,193.37539 L 296.12047,193.37539 C 291.33993,195.9761 288.91535,199.72733 288.91535,204.52502 C 288.91535,209.32386 291.33993,213.06709 296.12047,215.64721 C 299.90602,217.69552 304.3892,218.7294 309.45566,218.7294 C 314.53355,218.7294 319.00529,217.70238 322.75653,215.67351 C 327.50276,213.09225 329.90446,209.34102 329.90446,204.52502 C 329.90446,199.70903 327.5142,195.96008 322.79084,193.37768" class="ps03" id="path318"/>
      <path style="font-size:14px;letter-spacing:0;word-spacing:0;fill:#000000;fill-rule:nonzero;stroke:none;stroke-width:2;stroke-linecap:round;stroke-linejoin:round;stroke-miterlimit:4;stroke-dasharray:none;font-family:fnt0, &quot;HelveticaLTStd&quot;, Arial" d="M 382.87923,192.68462 C 380.20304,191.09949 376.77204,190.29206 372.68914,190.29206 C 367.49688,190.29206 363.28817,191.92522 360.14308,195.09547 C 357.10092,191.92522 352.90366,190.29206 347.63134,190.29206 C 343.37689,190.29206 339.91157,191.1887 337.23539,192.89619 C 337.23539,192.24087 337.23539,190.68891 337.23539,190.68891 L 332.54634,190.68891 L 332.54634,218.25363 L 337.23539,218.25363 L 337.23539,199.39224 C 337.55561,198.03241 338.44767,196.78353 339.90013,195.75079 C 341.8215,194.39554 344.36045,193.7082 347.45979,193.7082 C 350.18172,193.7082 352.53768,194.27088 354.43617,195.37681 C 356.71208,196.67488 357.81,198.49102 357.81,200.93162 L 357.81,218.25363 L 362.41899,218.25363 L 362.41899,200.93162 C 362.41899,198.48759 363.51691,196.66115 365.78137,195.35051 C 367.70274,194.26174 370.08157,193.7082 372.83781,193.7082 C 375.59406,193.7082 377.96145,194.27088 379.87138,195.3791 C 382.13585,196.67488 383.23377,198.49102 383.23377,200.93162 L 383.23377,218.25363 L 387.91138,218.25363 L 387.91138,201.57664 C 387.91138,197.65272 386.21875,194.65859 382.87923,192.68462" class="ps03" id="path320"/>
      <path style="font-size:14px;letter-spacing:0;word-spacing:0;fill:#000000;fill-rule:nonzero;stroke:none;stroke-width:2;stroke-linecap:round;stroke-linejoin:round;stroke-miterlimit:4;stroke-dasharray:none;font-family:fnt0, &quot;HelveticaLTStd&quot;, Arial" d="M 391.69692,178.05823 L 391.69692,218.25363 L 396.37453,218.25363 L 396.37453,178.05823 L 391.69692,178.05823" class="ps03" id="path322"/>
      <path style="font-size:14px;letter-spacing:0;word-spacing:0;fill:#000000;fill-rule:nonzero;stroke:none;stroke-width:2;stroke-linecap:round;stroke-linejoin:round;stroke-miterlimit:4;stroke-dasharray:none;font-family:fnt0, &quot;HelveticaLTStd&quot;, Arial" d="M 405.00923,204.51016 C 405.00923,200.85728 406.74761,198.03013 410.15575,196.10762 C 413.02636,194.51677 416.58317,193.7082 420.73469,193.7082 C 425.86976,193.7082 429.88404,194.96052 432.6746,197.43427 C 435.13349,199.61754 436.38009,202.46413 436.38009,205.88828 C 436.38009,205.88828 436.38009,208.90528 436.38009,209.15345 C 434.41297,211.32528 431.54236,213.04079 427.83688,214.23935 C 425.6639,214.95415 423.27363,215.3144 420.73469,215.3144 C 416.51455,215.3144 412.93486,214.52527 410.13287,212.96874 C 406.67899,211.03937 405.00923,208.27397 405.00923,204.51016 z M 436.38009,190.68891 C 436.38009,190.68891 436.38009,194.4573 436.38009,195.40769 C 432.36581,192.04416 427.08205,190.29206 420.58601,190.29206 C 415.32513,190.29206 410.81907,191.29506 407.15933,193.26789 C 402.51603,195.7954 400.16008,199.58437 400.16008,204.52502 C 400.16008,209.39706 402.57322,213.1563 407.33088,215.70096 C 411.07068,217.71153 415.58818,218.7294 420.74612,218.7294 C 423.34225,218.7294 425.84689,218.42175 428.20285,217.81561 C 431.51949,216.96014 434.25286,215.66894 436.38009,214.00719 C 436.38009,214.93928 436.38009,218.25363 436.38009,218.25363 L 441.06913,218.25363 L 441.06913,190.68891 L 436.38009,190.68891" class="ps03" id="path324"/>
      <path style="font-size:14px;letter-spacing:0;word-spacing:0;fill:#000000;fill-rule:nonzero;stroke:none;stroke-width:2;stroke-linecap:round;stroke-linejoin:round;stroke-miterlimit:4;stroke-dasharray:none;font-family:fnt0, &quot;HelveticaLTStd&quot;, Arial" d="M 451.00762,213.08882 C 447.74816,213.08882 447.25638,214.7826 447.25638,215.79017 C 447.25638,216.82862 447.74816,218.57043 451.00762,218.57043 C 454.2442,218.57043 454.72454,216.82862 454.72454,215.79017 C 454.72454,214.7826 454.2442,213.08882 451.00762,213.08882 z M 453.29496,177.42235 L 448.61735,177.42235 L 448.61735,209.18548 L 453.29496,209.18548 L 453.29496,177.42235" class="ps03" id="path326"/>
      <path style="font-size:14px;letter-spacing:0;word-spacing:0;fill:#000000;fill-rule:nonzero;stroke:none;stroke-width:2;stroke-linecap:round;stroke-linejoin:round;stroke-miterlimit:4;stroke-dasharray:none;font-family:fnt0, &quot;HelveticaLTStd&quot;, Arial" d="M 460.84317,178.07424 L 458.89894,178.07424 L 458.89894,181.87923 L 457.97256,181.87923 L 457.97256,178.07424 L 456.02833,178.07424 L 456.02833,177.42235 L 460.84317,177.42235 L 460.84317,178.07424 z M 462.50149,178.4871 L 462.51293,178.78446 L 462.52437,179.26137 L 462.52437,181.87923 L 461.64374,181.87923 L 461.64374,177.42235 L 462.86747,177.42235 L 464.48004,180.97802 L 466.09262,177.42235 L 467.30491,177.42235 L 467.30491,181.87923 L 466.43572,181.87923 L 466.43572,179.26137 L 466.43572,178.8222 L 466.43572,178.49168 L 464.91464,181.87923 L 464.04545,181.87923 L 462.50149,178.4871" class="ps03" id="path328"/>
    </g>
  </g>
</svg>