<?xml version="1.0" encoding="UTF-8" standalone="no"?>
<!-- Created with Inkscape (http://www.inkscape.org/) -->
<svg xmlns:dc="http://purl.org/dc/elements/1.1/" xmlns:cc="http://creativecommons.org/ns#" xmlns:rdf="http://www.w3.org/1999/02/22-rdf-syntax-ns#" xmlns:svg="http://www.w3.org/2000/svg" xmlns="http://www.w3.org/2000/svg" xmlns:sodipodi="http://sodipodi.sourceforge.net/DTD/sodipodi-0.dtd" xmlns:inkscape="http://www.inkscape.org/namespaces/inkscape" width="200" height="189.74603" id="svg2" version="1.1" inkscape:version="0.47 r22583" sodipodi:docname="Mac_OS_Logo_with_Text (1).svg">
  <title id="title3043">Mac-OS Logo with Text</title>
  <defs id="defs4">
    <inkscape:perspective sodipodi:type="inkscape:persp3d" inkscape:vp_x="0 : 526.18109 : 1" inkscape:vp_y="0 : 1000 : 0" inkscape:vp_z="744.09448 : 526.18109 : 1" inkscape:persp3d-origin="372.04724 : 350.78739 : 1" id="perspective10"/>
    <inkscape:perspective id="perspective2824" inkscape:persp3d-origin="0.5 : 0.33333333 : 1" inkscape:vp_z="1 : 0.5 : 1" inkscape:vp_y="0 : 1000 : 0" inkscape:vp_x="0 : 0.5 : 1" sodipodi:type="inkscape:persp3d"/>
    <inkscape:perspective id="perspective2875" inkscape:persp3d-origin="0.5 : 0.33333333 : 1" inkscape:vp_z="1 : 0.5 : 1" inkscape:vp_y="0 : 1000 : 0" inkscape:vp_x="0 : 0.5 : 1" sodipodi:type="inkscape:persp3d"/>
    <inkscape:perspective id="perspective2889" inkscape:persp3d-origin="0.5 : 0.33333333 : 1" inkscape:vp_z="1 : 0.5 : 1" inkscape:vp_y="0 : 1000 : 0" inkscape:vp_x="0 : 0.5 : 1" sodipodi:type="inkscape:persp3d"/>
    <inkscape:perspective id="perspective2932" inkscape:persp3d-origin="0.5 : 0.33333333 : 1" inkscape:vp_z="1 : 0.5 : 1" inkscape:vp_y="0 : 1000 : 0" inkscape:vp_x="0 : 0.5 : 1" sodipodi:type="inkscape:persp3d"/>
    <inkscape:perspective id="perspective2967" inkscape:persp3d-origin="0.5 : 0.33333333 : 1" inkscape:vp_z="1 : 0.5 : 1" inkscape:vp_y="0 : 1000 : 0" inkscape:vp_x="0 : 0.5 : 1" sodipodi:type="inkscape:persp3d"/>
  </defs>
  <sodipodi:namedview id="base" pagecolor="#ffffff" bordercolor="#666666" borderopacity="1.0" inkscape:pageopacity="0.0" inkscape:pageshadow="2" inkscape:zoom="1" inkscape:cx="336" inkscape:cy="38.987947" inkscape:document-units="px" inkscape:current-layer="layer1" showgrid="true" inkscape:window-width="1280" inkscape:window-height="710" inkscape:window-x="-4" inkscape:window-y="-4" inkscape:window-maximized="1" inkscape:snap-bbox="true" inkscape:snap-nodes="true">
    <inkscape:grid type="xygrid" id="grid2848" empspacing="5" visible="true" enabled="true" snapvisiblegridlinesonly="true"/>
  </sodipodi:namedview>
  <metadata id="metadata7">
    <rdf:RDF>
      <cc:Work rdf:about="">
        <dc:format>image/svg+xml</dc:format>
        <dc:type rdf:resource="http://purl.org/dc/dcmitype/StillImage"/>
        <dc:title>Mac-OS Logo with Text</dc:title>
        <dc:creator>
          <cc:Agent>
            <dc:title>Apple Corporation</dc:title>
          </cc:Agent>
        </dc:creator>
        <dc:contributor>
          <cc:Agent>
            <dc:title>Devin Cook</dc:title>
          </cc:Agent>
        </dc:contributor>
        <dc:description>This is the logo Apple debuted for Mac-OS 8. </dc:description>
        <cc:license rdf:resource="http://creativecommons.org/licenses/publicdomain/"/>
      </cc:Work>
      <cc:License rdf:about="http://creativecommons.org/licenses/publicdomain/">
        <cc:permits rdf:resource="http://creativecommons.org/ns#Reproduction"/>
        <cc:permits rdf:resource="http://creativecommons.org/ns#Distribution"/>
        <cc:permits rdf:resource="http://creativecommons.org/ns#DerivativeWorks"/>
      </cc:License>
    </rdf:RDF>
  </metadata>
  <g inkscape:label="Layer 1" inkscape:groupmode="layer" id="layer1" transform="translate(1045.92, -1189.22)">
    <path sodipodi:nodetypes="ccccc" id="path2844" d="m -999.92314,1293.9676 0,-89.5 109.99999,0 0,89.5 -109.99999,0 z" style="fill:#b0a7d2"/>
    <path sodipodi:nodetypes="cccccsscsssccccc" id="path2838" d="m -937.92315,1293.9676 -61.99999,0 0,-89.5 58.49999,0 0.62177,6.072 c -7.52781,13.0601 -11.07484,27.4848 -12.58788,41.1171 -0.10085,0.9087 -0.16402,1.6853 -0.14037,1.7258 0.0236,0.041 5.58175,0.074 11.12913,0.075 5.54738,8e-4 8.74334,0.038 8.81325,0.082 0.0996,0.063 0.0105,-0.4648 -0.4124,1.1852 -1.26244,4.9255 -2.01915,9.2769 -2.32301,13.3581 -0.11511,1.5459 -0.16313,3.3173 -0.0919,3.3883 l -0.0444,5.4715 0.0626,1.4915 c 0.17968,4.2806 0.87616,8.82 2.09866,13.6783 l -3.62554,1.8551 z" style="fill:#5972ba"/>
    <g transform="matrix(0.100921, 0, 0, 0.0996647, -940.366, 1241.54)" id="g3033">
      <path style="fill:#020202;fill-opacity:1" d="m -466.99837,1376.417 c -31.92811,-6.6526 -50.44566,-36.8225 -46.10063,-75.11 5.61363,-49.4662 44.01669,-86.0989 161.4911,-154.0462 l 10.4,-6.0154 0.29637,-44.3603 c 0.30038,-44.9618 -0.46302,-61.3065 -3.39637,-72.7177 -4.87961,-18.9825 -14.72402,-27.55982 -33.13578,-28.87082 -22.75837,-1.6206 -46.62633,10.82832 -61.79021,32.22812 -5.87202,8.2868 -8.48645,13.8549 -13.85143,29.5 -12.71334,37.0741 -23.64505,49.8213 -43.52013,50.7478 -6.75707,0.315 -8.53402,0.054 -11.20198,-1.6425 -6.94828,-4.4194 -8.28061,-14.5014 -3.8008,-28.7617 10.11028,-32.1833 41.24247,-66.0088 77.62762,-84.34332 31.36315,-15.8038 68.93605,-20.8701 99.20251,-13.3764 20.50468,5.0768 33.77454,18.3126 39.02804,38.92772 3.85161,15.114 3.90592,16.9522 4.51878,152.9484 0.59612,132.279 0.61096,133.0416 2.73607,140.6691 3.53491,12.6875 7.90545,19.2683 14.45655,21.7673 6.6658,2.5427 12.41919,0.2811 22.96409,-9.0271 3.81333,-3.3662 7.90333,-6.5799 9.08887,-7.1417 3.12249,-1.4796 6.7328,-0.2179 8.11028,2.8344 5.50281,12.1935 -30.84957,46.3878 -56.3189,52.9755 -15.36008,3.9729 -28.35707,-2.5588 -37.12756,-18.6585 -1.62365,-2.9804 -5.19163,-12.1323 -7.92886,-20.3374 -2.73723,-8.2051 -5.4474,-15.0767 -6.02262,-15.2703 -0.57521,-0.1936 -7.25865,4.883 -14.85209,11.2814 -41.44917,34.9256 -66.76763,47.5735 -94.73593,47.3258 -5.06201,-0.045 -12.32366,-0.7316 -16.13699,-1.5262 z m 62.48918,-38.4152 c 29.86327,-7.7106 53.30743,-31.7114 62.00491,-63.4771 2.09205,-7.6407 2.20456,-10.1108 2.50516,-55 0.34288,-51.2023 0.29497,-51.7034 -5.00221,-52.3219 -4.80816,-0.5614 -46.35068,23.9292 -66.03514,38.9297 -32.93088,25.0948 -49.85188,50.9781 -51.2533,78.3998 -0.68695,13.4418 0.97123,22.7313 5.79414,32.4598 9.51817,19.1996 28.80649,26.9947 51.98644,21.0097 z m 312.922084,38.975 c -23.047094,-3.648 -44.038764,-12.5688 -62.504514,-26.5625 -3.85938,-2.9247 -11.6917,-10.2027 -17.40515,-16.1734 -36.92189,-38.5839 -56.12171,-97.4493 -54.0108,-165.5937 0.65936,-21.2856 2.20773,-33.1645 6.71745,-51.5355 15.76904,-64.2376 56.53794,-112.6491 111.14798,-131.98412 16.591575,-5.8744 26.74247,-7.4542 48.22471,-7.5055 51.6704675,-0.1234 83.539732,15.2095 89.173065,42.90262 1.429257,7.0265 0.676,28.1599 -1.439855,40.3966 -3.133669,18.1227 -10.019756,24.4126 -17.777067,16.2379 -1.4110321,-1.4871 -5.6145139,-9.4382 -9.3408833,-17.6691 -16.8092717,-37.1291 -34.1406237,-57.1906 -54.9939117,-63.65702 -14.88646,-4.6161 -34.32198,-2.3777 -50.419698,5.80702 -35.84379,18.2242 -60.41796,64.956 -67.51166,128.3846 -8.8409,79.0513 6.71518,149.2327 41.38645,186.7153 9.22602,9.9742 17.74134,16.3649 29.8188,22.3789 15.805423,7.8705 22.461423,9.2892 43.58095,9.2892 21.427467,0 27.831588,-1.4125 44.571428,-9.8304 12.35718073,-6.2141 18.6721596,-10.7847 31.777348,-22.9996 10.070468,-9.3864 12.971672,-10.4987 15.842864,-6.0745 1.462438,2.2534 1.470659,2.8882 0.09013,6.9776 -2.267398,6.7184 -8.184305,15.1271 -16.561356,23.536 -17.5314283,17.5978 -40.143999,29.8186 -65.816052,35.5698 -8.313364,1.8624 -36.090277,2.7289 -44.550628,1.3898 l 4e-4,0 z m -944.696794,-15.3814 c -6.4864,-2.3369 -9.6478,-6.5882 -9.6478,-12.974 0,-9.3693 3.7078,-11.5967 19.3046,-11.5967 9.5067,0 12.1432,-0.3421 15.3442,-1.9908 13.12187,-6.7586 18.67638,-28.6986 22.78745,-90.0092 2.39444,-35.7095 16.84925,-334.74132 16.84935,-348.56852 1.5e-4,-18.5938 -1.32332,-24.0444 -7.29047,-30.0254 -5.58686,-5.5998 -12.53149,-7.982 -28.32723,-9.717 -14.8019,-1.6258 -17.7665,-3.0061 -19.2649,-8.9698 -1.1581,-4.6092 0.8458,-10.2143 4.6879,-13.1119 2.7163,-2.0486 3.9178,-2.1167 43.085,-2.4403 48.08872,-0.3974 53.70957,-0.039 57.63688,3.6766 2.45478,2.3223 10.61196,26.7962 64.87926,194.65632 34.13931,105.6 62.66123,193.4263 63.38204,195.1695 1.8834,4.5548 4.84701,5.9294 7.34534,3.407 2.14963,-2.1703 -0.24504,5.1442 75.32156,-230.06682 39.19017,-121.9845 52.11455,-161.0492 53.86829,-162.8198 1.26904,-1.2812 4.04896,-2.7373 6.1776,-3.2358 4.9228,-1.1529 82.61202,-1.1566 88.52789,0 6.11691,1.1915 9.93285,5.5493 9.93285,11.3435 0,4.5901 -1.80626,8.0068 -5.20323,9.8422 -1.17161,0.6331 -7.97853,1.7381 -15.12648,2.4557 -20.02261,2.0099 -28.78336,6.3698 -32.07968,15.9648 -2.79234,8.1281 -2.27549,45.2248 3.27338,234.94402 6.58443,225.1263 5.84193,206.1057 8.26117,211.6273 4.4772,10.2188 15.30688,15.2558 37.40818,17.3989 9.48026,0.9193 13.11233,2.6035 14.89279,6.9057 4.40618,10.6469 -2.32077,18.5002 -15.88327,18.5429 -3.26857,0.01 -12.85143,-0.7398 -21.29524,-1.6669 -21.31945,-2.3405 -68.08038,-2.3486 -89.14285,-0.015 -19.77621,2.1908 -26.17976,2.1486 -31.31638,-0.2064 -5.5419,-2.5409 -7.31219,-5.3998 -7.31219,-11.8088 0,-8.1573 3.10307,-10.5288 15.4011,-11.7703 26.6324,-2.6883 37.28744,-9.322 39.97195,-24.8859 1.85818,-10.773 1.26394,-56.4658 -2.94073,-226.1213 -3.07257,-123.97602 -4.36262,-164.31272 -5.28605,-165.28112 -0.98946,-1.0378 -1.51932,-0.9428 -2.78893,0.5 -0.86207,0.9796 -32.18852,95.38112 -69.61435,209.78112 -37.42582,114.4 -68.80393,209.35 -69.72912,211 -2.20012,3.9237 -6.31163,4.5677 -8.36604,1.3104 -0.80144,-1.2707 -31.85433,-96.3604 -69.00641,-211.3104 -37.15208,-114.95 -68.23906,-209.78752 -69.08217,-210.75002 -1.69601,-1.9362 -4.72297,-2.3184 -5.70147,-0.7199 -0.58576,0.9569 -11.77694,238.07382 -14.41723,305.46992 -0.64641,16.5 -0.9049,39.675 -0.57443,51.5 1.05875,37.8852 5.05624,51.5573 16.80224,57.4669 4.64497,2.3369 6.0766,2.5331 18.48668,2.5331 10.58665,0 13.92189,0.3324 15.65881,1.5607 5.23561,3.7024 6.85295,13.0058 3.09869,17.8244 -4.99616,6.4127 -14.63988,7.7316 -38.13502,5.2155 -18.47477,-1.9785 -37.36956,-2.0131 -54.88223,-0.1006 -16.4745,1.7991 -25.1172,1.8195 -29.9713,0.071 l 0,0 z M 25.243223,956.77468 c -0.251977,-0.6875 -0.572198,-10.7 -0.711756,-22.25 l -0.253661,-21 -7.923809,-0.5 c -7.6596494,-0.4833 -7.9238094,-0.5833 -7.9238094,-3 l 0,-2.5 19.9434354,-0.2703 c 17.09869,-0.2318 20.025844,-0.053 20.52128,1.25 1.319314,3.4711 -0.329135,4.4317 -8.117249,4.7299 l -7.585562,0.2904 -0.544069,22 c -0.299223,12.1 -0.633508,22.1125 -0.742857,22.25 -0.687687,0.8649 -6.286453,0.024 -6.661943,-1 z m 29.715276,0.047 c -0.279512,-0.7352 -0.388366,-12.1278 -0.241973,-25.317 l 0.266042,-23.9802 4.95238,0 4.952381,0 6.516145,19.4429 c 3.583939,10.6937 6.926796,19.5786 7.428571,19.7445 0.501874,0.1658 3.973989,-8.6961 7.715909,-19.693 l 6.803481,-19.9944 4.851551,0 4.851654,0 -0.26456,25.25 -0.26466,25.25 -2.971425,0 -2.971428,0 -0.495238,-18.5 c -0.285257,-10.6549 -0.850819,-17.9442 -1.333677,-17.1894 -0.461165,0.7209 -3.394163,9.0459 -6.517927,18.5 -5.583215,16.8981 -5.729905,17.1945 -8.655474,17.4905 -1.636762,0.1656 -3.435368,-0.2844 -3.996869,-1 -0.561501,-0.7156 -3.569081,-9.0636 -6.683634,-18.5511 -3.114453,-9.4875 -6.061318,-17.25 -6.548533,-17.25 -0.487215,0 -1.007314,8.2125 -1.155787,18.25 l -0.270003,18.25 -2.729456,0.317 c -1.610415,0.187 -2.937752,-0.2311 -3.23747,-1.0198 z" id="path2836-4" sodipodi:nodetypes="cscccssssssssssssssssssssssccssssssccsssssssssssssssssssssscccssssssssssssssssscsssssssssssssssssssssssssssssssscccccccccscccscccccccscccccccccsssssscccc"/>
      <path style="fill:#5972ba;fill-opacity:1" d="m 385.80165,1377.919 c -83.20961,-8.8178 -155.8754,-74.1801 -188.32211,-169.3943 -12.27745,-36.0276 -17.59076,-69.5327 -17.60304,-111 -0.0119,-40.4261 4.53054,-70.7227 15.84297,-105.66892 15.0174,-46.3915 37.32104,-83.4176 68.87553,-114.3398 41.09892,-40.2755 88.11177,-60.49126 140.67545,-60.49126 68.2129,0 131.3618,37.24466 174.63788,102.99996 8.97788,13.6413 23.23638,41.9973 29.03542,57.7429 14.24839,38.68712 20.43877,74.95892 20.43877,119.75712 0,36.1791 -3.15467,60.7964 -11.8973,92.8405 -10.34275,37.9089 -29.7544,76.9102 -52.53466,105.5508 -46.58457,58.5689 -113.07652,89.0047 -179.14891,82.003 z m 42.73231,-27.3903 c 61.42012,-11.8647 108.48973,-72.0856 126.62475,-162.004 6.23188,-30.8994 8.40865,-54.3004 8.42321,-90.5501 0.0119,-29.139 -1.02802,-45.2271 -4.48805,-69.4499 -8.23541,-57.65452 -26.65322,-103.74942 -55.16011,-138.05192 -20.498,-24.6653 -47.56821,-41.2803 -76.75507,-47.1104 -11.94712,-2.3864 -34.53374,-2.3699 -45.63223,0.033 -35.89495,7.7728 -65.6967,29.7672 -88.92515,65.6289 -22.89961,35.354 -37.08441,79.0289 -43.68316,134.50002 -2.57504,21.6465 -2.57247,87.5316 0,108.5 8.74184,71.1373 29.25559,122.657 63.02845,158.2943 22.71865,23.9728 49.12247,37.8434 79.2797,41.6475 9.42487,1.1889 27.24265,0.5017 37.2833,-1.4378 l 0.004,4e-4 3.6e-4,0 z m 326.32614,27.3529 c -27.87844,-2.9421 -59.96293,-14.0621 -76.25963,-26.4303 -10.90821,-8.2787 -15.99381,-17.1437 -18.02271,-31.4163 -1.51582,-10.6642 -0.65629,-84.7681 1.07566,-92.7237 2.15815,-9.9139 7.72076,-14.8551 13.84161,-12.2954 4.29817,1.7975 5.75308,6.8999 7.48473,26.2492 2.43954,27.2588 5.99525,41.961 14.09022,58.2596 13.64291,27.4689 36.86829,45.5297 66.48086,51.6977 13.0933,2.7272 38.27596,2.1533 50.1069,-1.1418 34.54276,-9.6209 58.51466,-35.1004 68.66397,-72.9821 2.38269,-8.8935 2.56909,-11.137 2.62248,-31.5738 0.0465,-17.9184 -0.28516,-23.577 -1.7892,-30.5 -4.92979,-22.6923 -13.52019,-38.9378 -29.27342,-55.3599 -14.81039,-15.4394 -33.37172,-28.73 -64.46088,-46.1564 -36.38643,-20.3957 -44.41513,-25.1128 -55.46667,-32.5882 -32.23604,-21.805 -49.27757,-42.1308 -58.41858,-69.6774 -7.82694,-23.58632 -8.99659,-57.63682 -2.94379,-85.69912 12.05776,-55.9031 49.15673,-93.8103 103.45761,-105.71126 11.65998,-2.5555 39.71968,-3.5245 54.02602,-1.8657 29.07325,3.3711 61.6925,13.89276 73.0912,23.57636 6.23702,5.2986 8.00047,17.7471 8.70945,61.4816 l 0.52693,32.5 -2.31018,4.4989 c -2.63467,5.1311 -6.15017,6.958 -10.45091,5.4309 -4.09047,-1.4524 -6.51486,-6.0067 -10.13891,-19.0467 -13.60855,-48.9657 -34.133,-74.8957 -66.1129,-83.525 -10.1815,-2.7474 -32.60083,-2.9541 -44.30895,-0.4087 -33.67302,7.3209 -54.47797,26.5316 -63.00469,58.1767 -3.2239,11.9651 -3.77104,34.6983 -1.1432,47.5039 3.7745,18.3936 13.35657,34.6199 29.08166,49.2472 14.80742,13.77362 32.26546,25.39462 66.20591,44.07042 11.71238,6.4447 26.97829,15.1518 33.9243,19.3491 36.33819,21.958 63.05431,48.2193 76.52142,75.2186 21.11566,42.3334 20.05347,105.5715 -2.56207,152.5318 -30.01806,62.3315 -92.89973,96.7336 -163.24424,89.3098 z" id="path2844-7" sodipodi:nodetypes="ccsssssssssccssssscsscssccccsssssssssssssssssscccssssssssssscc"/>
    </g>
    <path sodipodi:nodetypes="ccssssssccccccccccc" id="path2834" d="m -939.95948,1277.3212 -4.66946,0 c -2.23819,0 -4.89111,-0.045 -5.89537,-0.1 -12.03348,-0.6554 -22.7469,-3.1525 -30.59668,-7.1316 -1.93418,-0.9805 -2.46748,-1.2972 -2.46748,-1.4656 0,-0.2014 2.76817,-4.0797 2.91187,-4.0797 0.0651,0 0.80235,0.3257 1.63827,0.7239 10.00248,4.7641 21.36206,6.9774 35.05241,6.8294 1.97172,-0.021 3.85996,-0.073 3.91821,-0.1332 l 0.10823,5.3563 z m -33.12095,-46.5097 c -0.0263,-0.068 -0.0362,-3.0212 -0.0222,-6.5618 l 0.0256,-6.4374 2.81292,0 2.81292,0 0,6.5357 0,6.5357 -2.79075,0.026 c -2.17936,0.02 -2.80121,0 -2.83849,-0.098 z" style="fill:#28277a"/>
    <path sodipodi:nodetypes="cssssssssssssscccccscccsssssssssssscccccccccccc" id="path2832" d="m -932.93392,1307.1248 c -2.8956,-5.954 -5.16226,-13.0344 -6.33186,-19.779 -0.50039,-2.8855 -0.74388,-5.0078 -1.0881,-9.484 -0.38893,-5.0577 0.12593,-12.2602 1.28425,-17.9655 0.21727,-1.0701 0.36889,-1.9878 0.33694,-2.0393 -0.0361,-0.058 -3.69076,-0.094 -9.67542,-0.094 -7.62469,0 -9.61863,-0.025 -9.62364,-0.1229 -0.12027,-2.3401 0.4788,-8.7105 1.25003,-13.2924 2.08558,-12.3906 6.93104,-25.3577 13.93709,-37.2975 1.99245,-3.3956 5.49543,-8.6395 8.10808,-12.1377 1.24323,-1.6646 4.36829,-5.592 4.52765,-5.6901 0.0946,-0.058 3.76714,2.9548 3.76714,3.0906 0,0.048 -0.57009,0.8074 -1.26685,1.6874 -12.30027,15.5357 -20.22862,31.8608 -23.59216,48.5782 -0.64423,3.202 -1.29997,7.7577 -1.32975,9.2384 l -0.0158,0.7863 10.20208,0.025 10.20209,0.025 -0.0475,0.2207 c -0.0261,0.1214 -0.22731,0.9062 -0.44706,1.744 -1.49867,5.714 -2.48343,12.1279 -2.48826,16.2063 l -9.9e-4,0.8254 0.76492,-0.059 c 0.4207,-0.033 1.87522,-0.2184 3.23225,-0.4131 8.5878,-1.232 13.80018,-2.709 20.29099,-5.7497 0.93061,-0.436 1.73846,-0.8021 1.79521,-0.8135 0.0568,-0.012 0.73547,0.8636 1.50827,1.9447 1.29551,1.8124 1.39316,1.979 1.25237,2.1373 -0.25081,0.2821 -4.4935,2.3488 -6.19259,3.0167 -6.0181,2.3654 -13.22087,4.0411 -20.92419,4.868 -0.81426,0.087 -1.5424,0.1801 -1.61809,0.206 -0.11313,0.039 -0.12572,0.287 -0.0708,1.3961 0.43453,8.7762 2.63714,17.7456 6.28052,25.5751 1.21569,2.6125 1.31861,2.8455 1.27453,2.8859 -0.0542,0.05 -4.41383,2.1264 -4.46383,2.1264 -0.0203,0 -0.39717,-0.7408 -0.83749,-1.6462 l 10e-6,0 z m 6.95426,-76.2561 c -0.037,-0.037 -0.0673,-3.0013 -0.0673,-6.5877 l 0,-6.5208 2.8376,0.026 2.83759,0.026 0,6.5357 0,6.5357 -2.77029,0.026 c -1.52366,0.014 -2.80057,0 -2.83759,-0.041 l 0,-10e-5 z" style="fill:#020202"/>
  </g>
</svg>