<?xml version="1.0" encoding="UTF-8" standalone="no"?>
<!-- Generator: Adobe Illustrator 13.0.2, SVG Export Plug-In . SVG Version: 6.00 Build 14948)  -->
<svg xmlns:dc="http://purl.org/dc/elements/1.1/" xmlns:cc="http://creativecommons.org/ns#" xmlns:rdf="http://www.w3.org/1999/02/22-rdf-syntax-ns#" xmlns:svg="http://www.w3.org/2000/svg" xmlns="http://www.w3.org/2000/svg" xmlns:sodipodi="http://sodipodi.sourceforge.net/DTD/sodipodi-0.dtd" xmlns:inkscape="http://www.inkscape.org/namespaces/inkscape" version="1.1" id="Ebene_1" x="0px" y="0px" width="384.266px" height="161.833px" viewBox="0 0 384.266 161.833" enable-background="new 0 0 384.266 161.833" xml:space="preserve" sodipodi:version="0.32" inkscape:version="0.46" sodipodi:docname="Logo_Typo3.svg" inkscape:output_extension="org.inkscape.output.svg.inkscape"><metadata id="metadata2562"><rdf:RDF><cc:Work rdf:about=""><dc:format>image/svg+xml</dc:format><dc:type rdf:resource="http://purl.org/dc/dcmitype/StillImage"/></cc:Work></rdf:RDF></metadata><defs id="defs2560"><inkscape:perspective sodipodi:type="inkscape:persp3d" inkscape:vp_x="0 : 80.916496 : 1" inkscape:vp_y="0 : 1000 : 0" inkscape:vp_z="384.26599 : 80.916496 : 1" inkscape:persp3d-origin="192.133 : 53.944331 : 1" id="perspective2564"/>
	
	
</defs><sodipodi:namedview inkscape:window-height="701" inkscape:window-width="953" inkscape:pageshadow="2" inkscape:pageopacity="0.0" guidetolerance="10.0" gridtolerance="10.0" objecttolerance="10.0" borderopacity="1.0" bordercolor="#666666" pagecolor="#ffffff" id="base" showgrid="false" inkscape:zoom="1.4130837" inkscape:cx="192.133" inkscape:cy="80.916496" inkscape:window-x="127" inkscape:window-y="22" inkscape:current-layer="Ebene_1"/>
<g id="g2547">
		<g id="g2549">
			<path style="fill:#000b09" id="path2551" d="M 67.822,67.745 L 67.822,120.776 L 60.428,120.776 L 60.428,67.745 L 47.339,67.745 L 47.339,61.284 L 80.909,61.284 L 80.909,67.745 L 67.822,67.745 z M 107.485,93.155 L 107.485,120.775 L 99.836,120.775 L 99.836,93.155 L 84.624,61.284 L 92.782,61.284 L 104,85.336 L 115.219,61.284 L 122.953,61.284 L 107.485,93.155 z M 145.898,98.34 L 138.759,98.34 L 138.759,120.776 L 131.366,120.776 L 131.366,61.284 C 131.366,61.284 138.675,60.69 145.728,60.69 C 158.647,60.69 162.388,68.678 162.388,79.132 C 162.389,92.052 157.968,98.34 145.898,98.34 z M 146.75,66.81 C 142.074,66.81 138.76,67.318 138.76,67.318 L 138.76,92.133 L 146.75,92.133 C 151.508,92.133 154.824,88.988 154.824,79.726 C 154.823,71.227 152.783,66.81 146.75,66.81 z M 189.078,121.372 C 175.054,121.372 171.313,111.174 171.313,90.352 C 171.313,70.377 175.054,60.689 189.078,60.689 C 203.101,60.689 206.839,70.377 206.839,90.352 C 206.839,111.174 203.101,121.372 189.078,121.372 z M 189.078,66.893 C 181.43,66.893 178.878,72.08 178.878,90.776 C 178.878,109.05 181.43,115.17 189.078,115.17 C 196.726,115.17 199.277,109.051 199.277,90.776 C 199.276,72.079 196.726,66.893 189.078,66.893 z M 228.17,121.372 C 224.007,121.372 217.801,120.097 217.037,119.925 L 217.037,113.724 C 219.078,114.148 224.346,115.027 228.086,115.027 C 232.42,115.027 235.225,111.342 235.225,104.8 C 235.225,97.065 233.952,92.986 227.916,92.986 L 220.947,92.986 L 220.947,86.782 L 227.066,86.782 C 233.951,86.782 234.291,79.728 234.291,76.328 C 234.291,69.613 232.165,66.893 227.916,66.893 C 224.177,66.893 219.926,67.828 217.462,68.338 L 217.462,62.135 C 218.399,61.964 223.412,60.69 227.746,60.69 C 236.502,60.69 241.515,64.429 241.515,77.094 C 241.515,82.873 239.474,87.971 234.969,89.588 C 240.155,89.927 242.533,95.621 242.533,103.95 C 242.533,116.612 237.605,121.372 228.17,121.372 z"/>
			<g id="g2553">
				<path style="fill:#f18e00" id="path2555" d="M 323.389,96.227 C 322.188,96.581 321.231,96.703 319.979,96.703 C 309.708,96.703 294.62,60.807 294.62,48.86 C 294.62,44.46 295.665,42.992 297.134,41.735 C 284.56,43.2 269.47,47.813 264.648,53.681 C 263.601,55.149 262.972,57.453 262.972,60.387 C 262.972,79.041 282.882,121.374 296.925,121.374 C 303.42,121.374 314.377,110.686 323.389,96.227 L 323.389,96.227 z"/>
				<path style="fill:#1da345" id="path2557" d="M 316.832,40.476 C 329.826,40.476 342.822,42.572 342.822,49.907 C 342.822,64.788 333.39,82.812 328.57,82.812 C 319.978,82.812 309.289,58.92 309.289,46.973 C 309.289,41.525 311.385,40.476 316.832,40.476 z"/>
			</g>
		</g>
	</g>
</svg>